<?xml version="1.0" encoding="utf-8"?>
<!-- Generator: Adobe Illustrator 19.0.0, SVG Export Plug-In . SVG Version: 6.00 Build 0)  -->
<svg version="1.1" id="Ñëîé_1" xmlns="http://www.w3.org/2000/svg" xmlns:xlink="http://www.w3.org/1999/xlink" x="0px" y="0px"
	 viewBox="0 0 600 400" style="enable-background:new 0 0 600 400;" xml:space="preserve">
<style type="text/css">
	.st0{fill:#0F054C;}
	.st1{opacity:0.9;fill:url(#SVGID_1_);}
	.st2{opacity:0.8;fill:url(#SVGID_2_);}
	.st3{opacity:0.1;fill:#42E8E0;}
	.st4{opacity:0.67;}
	.st5{opacity:0.9;}
	.st6{fill:#080344;}
	.st7{fill:url(#SVGID_3_);}
	.st8{fill:url(#SVGID_4_);}
	.st9{fill:#24126A;}
	.st10{opacity:0.51;}
	.st11{fill:#453C9E;}
	.st12{fill:url(#SVGID_5_);}
	.st13{fill:url(#SVGID_6_);}
	.st14{opacity:0.51;fill:#453C9E;}
	.st15{opacity:0.3;}
	.st16{clip-path:url(#SVGID_9_);}
	.st17{fill:url(#SVGID_10_);}
	.st18{opacity:0.8;fill:url(#SVGID_11_);}
	.st19{fill:#FFFFFF;}
	.st20{opacity:0.15;}
	.st21{clip-path:url(#SVGID_13_);}
	.st22{fill:url(#SVGID_14_);}
	.st23{fill:url(#SVGID_15_);}
	.st24{opacity:0.4;clip-path:url(#SVGID_13_);fill:#24126A;}
	.st25{fill:#42E8E0;}
	.st26{fill:url(#SVGID_16_);}
	.st27{fill:#BCBEFF;}
	.st28{fill:#5351AF;}
	.st29{fill:url(#SVGID_17_);}
	.st30{fill:url(#SVGID_18_);}
	.st31{fill:url(#SVGID_19_);}
	.st32{fill:url(#SVGID_20_);}
	.st33{filter:url(#Adobe_OpacityMaskFilter);}
	.st34{filter:url(#Adobe_OpacityMaskFilter_1_);}
	.st35{mask:url(#SVGID_21_);fill:url(#SVGID_22_);}
	.st36{opacity:0.78;fill:url(#SVGID_23_);}
	.st37{fill:url(#SVGID_24_);}
	.st38{fill:url(#SVGID_25_);}
	.st39{fill:url(#SVGID_26_);}
	.st40{fill:#6767C1;}
	.st41{opacity:0.5;fill:#42E8E0;}
	.st42{fill:url(#SVGID_27_);}
	.st43{fill:url(#SVGID_28_);}
	.st44{fill:url(#SVGID_29_);}
	.st45{fill:url(#SVGID_30_);}
</style>
<rect x="0" class="st0" width="600" height="400"/>
<radialGradient id="SVGID_1_" cx="238.6668" cy="215.3332" r="317.881" gradientTransform="matrix(-1 0 0 1 600 0)" gradientUnits="userSpaceOnUse">
	<stop  offset="0" style="stop-color:#5761D7"/>
	<stop  offset="3.110474e-002" style="stop-color:#525BCE"/>
	<stop  offset="0.1763" style="stop-color:#3E41A6"/>
	<stop  offset="0.3263" style="stop-color:#2D2B85"/>
	<stop  offset="0.4803" style="stop-color:#201A6C"/>
	<stop  offset="0.6397" style="stop-color:#160E5A"/>
	<stop  offset="0.8079" style="stop-color:#11074F"/>
	<stop  offset="1" style="stop-color:#0F054C"/>
</radialGradient>
<rect x="0" class="st1" width="600" height="400"/>
<radialGradient id="SVGID_2_" cx="-13.0002" cy="93.5939" r="439.3419" gradientTransform="matrix(-1 0 0 1 600 0)" gradientUnits="userSpaceOnUse">
	<stop  offset="0" style="stop-color:#FF2C9C"/>
	<stop  offset="3.006321e-002" style="stop-color:#F62F9F"/>
	<stop  offset="0.2023" style="stop-color:#C63EB0"/>
	<stop  offset="0.3737" style="stop-color:#9E4BBE"/>
	<stop  offset="0.5413" style="stop-color:#7F54C9"/>
	<stop  offset="0.7039" style="stop-color:#695BD1"/>
	<stop  offset="0.8594" style="stop-color:#5C60D5"/>
	<stop  offset="1" style="stop-color:#5761D7"/>
</radialGradient>
<path class="st2" d="M583.4,39.7c-1.2-0.7-3.3-0.7-4.5,0c-0.9,0.5-1.2,1.3-0.7,2l-69.5,40.1l0,50.7l-16.9,9.8l0,55.1l-58,33.5
	l-9-5.2l44.7-25.8l0-30.2l-0.2-0.1l-50.9-29.4v-10.2l28.8-16.6c1.2,0.5,3,0.5,4.1-0.2c1.2-0.7,1.2-1.9,0-2.6c-1.2-0.7-3.3-0.7-4.5,0
	c-1.1,0.6-1.2,1.6-0.3,2.4l-28.8,16.6v11.1l0.2,0.1l50.9,29.4l0,29.4L434.9,219l0-12.6l15.5-8.9c1.2,0.5,3,0.5,4.1-0.2
	c1.2-0.7,1.2-1.9,0-2.6c-1.2-0.7-3.3-0.7-4.5,0c-1.1,0.6-1.2,1.6-0.3,2.4l-15.5,8.9l0,13.4l-10.2,5.9l-12.1-7l0-21.9l22.8-13.2
	l0-15.2l-0.2-0.1l-48-27.7c0.9-0.7,0.8-1.7-0.3-2.4c-1.2-0.7-3.3-0.7-4.5,0c-1.2,0.7-1.2,1.9,0,2.6c1.1,0.6,2.9,0.7,4.1,0.2
	l48.2,27.8l0,14.3l-22.1,12.8l0-15.1l-0.2-0.1l-29.4-17c0.9-0.7,0.8-1.7-0.3-2.4c-1.2-0.7-3.3-0.7-4.5,0c-1.2,0.7-1.2,1.9,0,2.6
	c1.1,0.6,2.9,0.7,4.1,0.2l29.5,17.1l0,37l-8.5-4.9l-14,8.1l-12.7-7.3l0-17.8l-0.2-0.1l-33.5-19.3l0-16.8c0.7,0,1.4-0.2,1.9-0.5
	c1.2-0.7,1.2-1.9,0-2.6c-1.2-0.7-3.3-0.7-4.5,0c-1.2,0.7-1.2,1.9,0,2.6c0.5,0.3,1.2,0.5,1.9,0.5l0,17.2l0.2,0.1l33.5,19.3l0,17
	l-54.5-31.5l0-33.4l29.6-17.1l27.1,0l0.1,0l46.6-26.9c1.2,0.5,3,0.5,4.1-0.2c1.2-0.7,1.2-1.9,0-2.6c-1.2-0.7-3.3-0.7-4.5,0
	c-1.1,0.6-1.2,1.7-0.3,2.4l-46.1,26.6l-25.7,0l85.5-49.4c1.2,0.5,3,0.5,4.1-0.2c1.2-0.7,1.2-1.9,0-2.6c-1.2-0.7-3.3-0.7-4.5,0
	c-1.1,0.6-1.2,1.7-0.3,2.4L320,148.1l0,34.2l0.2,0.1l67.7,39.1l-13.6,7.9l-115.6-66.8l0-39.8l-0.2-0.1l-39.3-22.7
	c0.9-0.7,0.8-1.7-0.3-2.4c-1.2-0.7-3.3-0.7-4.5,0c-1.2,0.7-1.2,1.9,0,2.6c1.1,0.6,2.9,0.7,4.1,0.2l39.5,22.8l0,39.8l0.2,0.1
	l115.5,66.7l-13,7.5l-114.4-66l-68.2,0l-42.6-24.6l0-37.8c0.4-0.1,0.9-0.2,1.2-0.4c1.2-0.7,1.2-1.9,0-2.6c-1.2-0.7-3.3-0.7-4.5,0
	c-1.2,0.7-1.2,1.9,0,2.6c0.7,0.4,1.6,0.6,2.5,0.5l0,38.1l0.2,0.1l43,24.8l68.2,0l96.5,55.7l-19.4,0l-32.9-19h-25.4l-0.1,0L229.6,229
	c-1.2-0.5-3-0.5-4.1,0.2c-1.2,0.7-1.2,1.9,0,2.6c1.2,0.7,3.3,0.7,4.5,0c1.1-0.6,1.2-1.7,0.3-2.4l34.8-20.1h25l32.9,19l20.8,0
	l16.1,9.3l-34.6,20l-9.9-5.7v-14.9l-25-14.4c0.9-0.7,0.8-1.7-0.3-2.4c-1.2-0.7-3.3-0.7-4.5,0c-1.2,0.7-1.2,1.9,0,2.6
	c1.1,0.6,2.9,0.7,4.1,0.2l25,14.4v14.1L288,236.2h-12.6l-0.1,0l-15.1,8.7c-1.2-0.5-3-0.5-4.1,0.2c-1.2,0.7-1.2,1.9,0,2.6
	c1.2,0.7,3.3,0.7,4.5,0c1.1-0.6,1.2-1.7,0.3-2.4l14.6-8.4h12.3l36.7,21.2l-6.7,3.9l21.3,12.3l-10,5.8h-15.1l-10.8-6.2
	c0.9-0.7,0.7-1.7-0.4-2.3c-1.2-0.7-3.3-0.7-4.5,0c-1.2,0.7-1.2,1.9,0,2.6c1.1,0.7,2.9,0.7,4.1,0.2l11.3,6.5h14l-25.4,14.7
	l-59.8-34.5l-43,0l-0.1,0l-24.2,14c-1.2-0.5-3-0.5-4.1,0.2c-1.2,0.7-1.2,1.9,0,2.6c1.2,0.7,3.3,0.7,4.5,0c1.1-0.6,1.2-1.7,0.3-2.4
	l23.8-13.7l42.7,0l46.1,26.6h-19.7L249.6,277c0.9-0.7,0.8-1.7-0.3-2.4c-1.2-0.7-3.3-0.7-4.5,0c-1.2,0.7-1.2,1.9,0,2.6
	c1.1,0.6,2.9,0.7,4.1,0.2l19.8,11.4h21.2l11.9,6.9l-30.4,17.5l-97.1,0L99,269.8c0.9-0.7,0.8-1.7-0.3-2.4c-1.2-0.7-3.3-0.7-4.5,0
	c-1.2,0.7-1.2,1.9,0,2.6c1.1,0.6,2.9,0.7,4.1,0.2l75.9,43.8l96,0l-12,7l-71.9,0l-0.1,0l-35.4,20.5c-1.2-0.5-3-0.5-4.1,0.2
	c-1.2,0.7-1.2,1.9,0,2.6c1.2,0.7,3.3,0.7,4.5,0c1.1-0.6,1.2-1.7,0.3-2.4l35-20.2l71.9,0l0.1,0l81.4-47l9,5.2l-85.6,49.4h-62.6
	l-0.1,0L125,373l-104.8,0L0,361.3v0.8l20.1,11.6l105.1,0l0.1,0l47.5-27.4l0,16.2l-31.3,18.1c-1.2-0.5-3-0.5-4.1,0.2
	c-1.2,0.7-1.2,1.9,0,2.6c1.2,0.7,3.3,0.7,4.5,0c1.1-0.6,1.2-1.7,0.3-2.4l31.3-18.1l0-16.9h-0.2l27.6-15.9h62.6l0.1,0l86-49.7
	l10.3,5.9l-167,96.4l0,17.4h0.7l0-17l167-96.4l12.7,7.3l-86.1,49.7l0,8.9l-15.3,8.8v20.4l-29.6,17.1c-1.2-0.5-3-0.5-4.1,0.2
	c-0.5,0.3-0.7,0.6-0.9,0.9h6.2c-0.1-0.2-0.3-0.5-0.5-0.7l29.6-17.1v-20.4l14.6-8.4l0,32.7l8.6,5l-15.5,8.9h1.4l14.8-8.5l14.8,8.5
	h1.4l-24.8-14.3l0-41.6l86.1-49.7l11.6,6.7l-60.9,35.2c-1.2-0.5-3-0.5-4.1,0.2c-1.2,0.7-1.2,1.9,0,2.6c1.2,0.7,3.3,0.7,4.5,0
	c1.1-0.6,1.2-1.6,0.3-2.4l60.9-35.2l11.2,6.4l-72.9,42.1h-19.8c-0.1-0.3-0.4-0.7-0.9-0.9c-1.2-0.7-3.3-0.7-4.5,0s-1.2,1.9,0,2.6
	c1.2,0.7,3.3,0.7,4.5,0c0.5-0.3,0.8-0.6,0.9-0.9h20l0.1,0l73.3-42.3l4.5,2.6l3.5-2l17.5,10.1l0,14l-14.4,8.3v0h-22.6l-0.1,0
	l-24.8,14.3c-1.2-0.5-3-0.5-4.1,0.2c-1.2,0.7-1.2,1.9,0,2.6c1.2,0.7,3.3,0.7,4.5,0c1.1-0.6,1.2-1.7,0.3-2.4l24.4-14.1H408
	l-42.4,24.5c-1.2-0.6-3-0.5-4.2,0.1c-1.2,0.7-1.2,1.9,0,2.6c1.2,0.7,3.3,0.7,4.5,0c1.1-0.6,1.2-1.6,0.4-2.3l52.9-30.6l0,6.8
	l-31.5,18.2v12.8l-25.6,14.8c-1.2-0.5-3-0.5-4.1,0.2c-1.2,0.7-1.2,1.9,0,2.6c1.2,0.7,3.3,0.7,4.5,0c1.1-0.6,1.2-1.7,0.3-2.4
	l25.6-14.8v-12.8l31.5-18.2l0-7.6l4.4-2.5l0-14.9l-17.5-10.1l11.5-6.6l35.9,20.8l0,23.6l-24.4,14.1c-1.2-0.6-3-0.5-4.2,0.1
	c-1.2,0.7-1.2,1.9,0,2.6c1.2,0.7,3.3,0.7,4.5,0c1.1-0.6,1.2-1.6,0.4-2.3l23.7-13.7l0,19.1l-18.7,10.8l0,23.1h0.7l0-22.7l18-10.4
	l0,33.1h0.7l0-77.8L419,301.4l12.9-7.4l47,27.1l0,64.6l22.6,13l0,1.3h0.7v-1.7l-22.6-13l0-64.6l-47-27.1l9.6-5.5l63.4,36.6l0,55.1
	l35.1,20.2h1.4l-35.8-20.6l0-55.1l-63.4-36.6l15.5-8.9l105.5,60.9l0,27.4l36.2,20.9v-0.8l-35.4-20.5l0-27.4l-59.3-34.3h46.9
	l47.8,27.6v-0.8l-47.7-27.5H504l-44.9-25.9l18-10.4l38.6,22.3l62,0l22.3,12.9v-0.8l-4.9-2.8l4.9,0v-0.7l-6.1,0l-16-9.2l-62,0
	l-10.8-6.2h26.4l0.1,0l13.2-7.6l55.1,0l0.2,0.1v-0.8l-54,0l14.9-8.6c1.2,0.5,3,0.5,4.1-0.2c1.2-0.7,1.2-1.9,0-2.6
	c-1.2-0.7-3.3-0.7-4.5,0c-1.1,0.6-1.2,1.7-0.3,2.4l-28.9,16.7h-27.4l-26.1-15l9.6-5.6l-6.2-3.6h18l23.5,13.6
	c-0.9,0.7-0.8,1.7,0.3,2.4c1.2,0.7,3.3,0.7,4.5,0c1.2-0.7,1.2-1.9,0-2.6c-1.1-0.6-2.9-0.7-4.1-0.2l-24.1-13.9H480l-13.2-7.6l8.1-4.7
	h14.4l12.6-7.3h9.4l21.3,12.3c-1,0.7-0.9,1.7,0.3,2.4c1.2,0.7,3.3,0.7,4.5,0c1.2-0.7,1.2-1.9,0-2.6c-1.1-0.6-2.8-0.7-4-0.2
	l-21.8-12.6h-9.8l-12.6,7.3h-13l25.9-15h14l29.2,16.8l54.8,0v-0.7l-54.6,0L516.2,229h-14.4l-0.1,0l-35.7,20.6l-9.4-5.4l40.3-23.3
	l28.4,0l23.5,13.5l51.1,0v-0.7l-50.9,0l-22.2-12.8l73.1,0v-0.7l-103.1,0l-0.1,0L456,243.8l-10.6-6.1l56.2-32.5l98.4,0v-0.7l-71.7,0
	l71.7-41.4v-0.8l-73.1,42.2l-24.8,0l53.3-30.8v-6.8l25.5-14.7c1.2,0.5,3,0.5,4.1-0.2c1.2-0.7,1.2-1.9,0-2.6c-1.2-0.7-3.3-0.7-4.5,0
	c-1.1,0.6-1.2,1.6-0.3,2.4l-13.9,8l0-18.6l33.7-19.4V121l-34.4,19.8l0,19.4l-10.9,6.3v6.8l-53.7,31l0.2,0.3l-56.5,32.6l-10.3-5.9
	l58-33.5l0-55.1L600,80.6v-0.8l-90.6,52.3l0-49.8l69.4-40c0,0,0.1,0.1,0.1,0.1c1.2,0.7,3.3,0.7,4.5,0
	C584.6,41.6,584.6,40.4,583.4,39.7z M486,261.9L402.7,310l-83.3-48.1l83.3-48.1L486,261.9z"/>
<path class="st3" d="M600,125.9l-14.8,8.6l0,27.6l-131.6,76l-10-5.8l67.9-39.2l0-7l12-6.9l0-16.1l23.3-13.5c1,0.4,2.3,0.4,3.2-0.1
	c1-0.6,1-1.5,0-2c-1-0.6-2.6-0.6-3.5,0c-0.9,0.5-1,1.3-0.3,1.9l-23.3,13.5l0,16.1l-11.5,6.6l0-25.8l-0.1-0.1l-6.6-3.8l39.8-23
	l0-25.8l28.3-16.3c1,0.4,2.3,0.4,3.2-0.1c1-0.6,1-1.5,0-2c-1-0.6-2.6-0.6-3.5,0c-0.9,0.5-1,1.3-0.3,1.9l-28.3,16.3l0,25.8l-39.8,23
	L439.4,118l0-28.9c0.5,0,1.1-0.2,1.5-0.4c1-0.6,1-1.5,0-2c-1-0.6-2.6-0.6-3.5,0c-1,0.6-1,1.5,0,2c0.4,0.2,0.9,0.4,1.5,0.4l0,29.2
	l0.1,0.1l38.9,22.5l-28.4,0l-22.9-13.2c0.7-0.6,0.6-1.4-0.3-1.9c-1-0.6-2.6-0.6-3.5,0c-1,0.6-1,1.5,0,2c0.9,0.5,2.3,0.6,3.2,0.1
	l23.3,13.5l29.5,0v0l32,18.5l0,32.8L443,231.9l-9.1-5.3l48-27.7c1,0.4,2.3,0.4,3.2-0.1c1-0.6,1-1.5,0-2c-1-0.6-2.6-0.6-3.5,0
	c-0.9,0.5-1,1.3-0.3,1.9l-48,27.7l-8.8-5.1l57.5-33.2l15.6,0c0.1,0.3,0.3,0.5,0.7,0.7c1,0.6,2.6,0.6,3.5,0c1-0.6,1-1.5,0-2
	c-1-0.6-2.6-0.6-3.5,0c-0.4,0.2-0.6,0.5-0.7,0.7l-15.8,0l-0.1,0L424,221l-3.5-2l-0.1,0.1l-2.6,1.5l-13.8-7.9l0-11.1l11.4-6.6v0
	l17.8,0l19.7-11.3c1,0.4,2.3,0.4,3.2-0.1c1-0.6,1-1.5,0-2c-1-0.6-2.6-0.6-3.5,0c-0.9,0.5-1,1.3-0.3,1.9L433,194.4l-16.8,0l33.4-19.3
	c1,0.4,2.4,0.4,3.3-0.1c1-0.6,1-1.5,0-2c-1-0.6-2.6-0.6-3.5,0c-0.9,0.5-1,1.3-0.3,1.8l-41.7,24.1v-5.3l24.8-14.3v-10.1l20.2-11.7
	c1,0.4,2.3,0.4,3.2-0.1c1-0.6,1-1.5,0-2c-1-0.6-2.6-0.6-3.5,0c-0.9,0.5-1,1.3-0.3,1.9l-20.2,11.7v10.1l-24.8,14.3v6l-3.5,2l0,11.7
	l13.8,7.9l-9,5.2l-28.3-16.4l0-18.6L399,180c1,0.4,2.4,0.4,3.3-0.1c1-0.6,1-1.5,0-2c-1-0.6-2.6-0.6-3.5,0c-0.9,0.5-1,1.3-0.3,1.8
	l-18.7,10.8l0-15l14.8-8.5l0-28.3c0.5,0,1.1-0.2,1.5-0.4c1-0.6,1-1.5,0-2c-1-0.6-2.6-0.6-3.5,0c-1,0.6-1,1.5,0,2
	c0.4,0.2,0.9,0.4,1.5,0.4l0,27.9l-14.2,8.2l0-49.8h-0.6l0,85.1l28.3,16.4l-10.2,5.9l-37-21.4l0-50.9l-17.8-10.3l0-19.2l-15.7-9.1
	c0.7-0.6,0.6-1.4-0.3-1.9c-1-0.6-2.6-0.6-3.5,0c-1,0.6-1,1.5,0,2c0.9,0.5,2.3,0.6,3.2,0.1l15.7,9.1l0,19.2l17.8,10.3l0,50.9l37,21.4
	l-7.5,4.3l-50-28.9l0-43.4l-0.1-0.1L295,139c0.7-0.6,0.6-1.4-0.3-1.9c-1-0.6-2.6-0.6-3.5,0c-1,0.6-1,1.5,0,2
	c0.9,0.5,2.3,0.6,3.2,0.1l44.4,25.6l0,43.4l0.1,0.1l49.8,28.8l-12.2,7l-83.1-48v-21.6l-0.1-0.1l-69.6-40.2c0.7-0.6,0.6-1.4-0.3-1.9
	c-1-0.6-2.6-0.6-3.5,0c-1,0.6-1,1.5,0,2c0.9,0.5,2.3,0.6,3.2,0.1l69.7,40.3v21.6l0.1,0.1l46.6,26.9l-37,0l-42.8-24.7
	c0.7-0.6,0.6-1.4-0.3-1.9c-1-0.6-2.6-0.6-3.5,0c-1,0.6-1,1.5,0,2c0.9,0.5,2.3,0.6,3.2,0.1l43.2,25l38.1,0l35.4,20.4l-14.2,8.2
	l-30.4-17.6h-48.9l-55.6-32.1l-30.8,0l-12.6-7.3c0.7-0.6,0.6-1.4-0.3-1.9c-1-0.6-2.6-0.6-3.5,0c-1,0.6-1,1.5,0,2
	c0.9,0.5,2.3,0.6,3.2,0.1l13,7.5l30.8,0l42,24.2h-36.3L215,217.8c0.7-0.6,0.6-1.4-0.3-1.9c-1-0.6-2.6-0.6-3.5,0c-1,0.6-1,1.5,0,2
	c0.9,0.5,2.3,0.6,3.2,0.1l17.9,10.3h37.4l12.6,7.3h48.9l8.5,4.9H319l-0.1,0l-10.4,6l-43.4,0l-12.2-7.1h-24.6
	c-0.1-0.3-0.3-0.5-0.7-0.7c-1-0.6-2.6-0.6-3.5,0c-1,0.6-1,1.5,0,2c1,0.6,2.6,0.6,3.5,0c0.4-0.2,0.6-0.5,0.7-0.7h24.4l12.2,7.1
	l42.6,0l-11.7,6.8c-1-0.4-2.3-0.4-3.2,0.1c-1,0.6-1,1.5,0,2c1,0.6,2.6,0.6,3.5,0c0.9-0.5,1-1.3,0.3-1.9l22.8-13.2h21.6l20.5,11.9
	l-7.6,4.4l0.4,0.2l4.5,2.6l-14.2,0l-18.6-10.7c0.7-0.6,0.6-1.4-0.3-1.9c-1-0.6-2.6-0.6-3.5,0c-1,0.6-1,1.5,0,2
	c0.9,0.5,2.3,0.6,3.2,0.1l19,11l15.3,0l10.4,6l-6.4,3.7h-11.3l-0.1,0l-9.9,5.7h-7.4l-16.8-9.7c0.8-0.6,0.7-1.4-0.2-1.9
	c-1-0.6-2.6-0.6-3.5,0c-1,0.6-1,1.5,0,2c0.9,0.5,2.2,0.6,3.2,0.2l17.2,9.9h7.7l0.1,0l9.9-5.7h10.2l-20.4,11.8h-11l-23-13.3h-69.3
	l-43-24.8c0.7-0.6,0.7-1.4-0.2-1.9c-1-0.6-2.6-0.6-3.5,0c-1,0.6-1,1.5,0,2c0.9,0.5,2.2,0.6,3.2,0.2l43.4,25.1H308l23,13.3h11.3
	l0.1,0l28.1-16.2l7.4,4.3l-31.8,18.3h-22.4l-18.5-10.7l-47.5,0c-0.1-0.3-0.3-0.5-0.7-0.7c-1-0.6-2.6-0.6-3.5,0c-1,0.6-1,1.5,0,2
	c1,0.6,2.6,0.6,3.5,0c0.4-0.2,0.6-0.5,0.7-0.7l47.3,0l17.5,10.1h-66.9l-0.1,0l-63.7,36.8c-1-0.4-2.3-0.4-3.2,0.1c-1,0.6-1,1.5,0,2
	c1,0.6,2.6,0.6,3.5,0c0.9-0.5,1-1.3,0.3-1.9l63.4-36.6h90.4l0.1,0l32.1-18.5l8.4,4.8l-44.3,25.6h-78l-0.1,0l-68.3,39.4l-79.6,0
	L70,314.9c0.7-0.6,0.6-1.4-0.3-1.9c-1-0.6-2.6-0.6-3.5,0c-1,0.6-1,1.5,0,2c0.9,0.5,2.3,0.6,3.2,0.1l46.8,27l79.9,0l0.1,0l68.3-39.4
	h56.8L238,350.9l0,12.7l-33.3,19.2c-1-0.4-2.3-0.4-3.2,0.1c-1,0.6-1,1.5,0,2c1,0.6,2.6,0.6,3.5,0c0.9-0.5,1-1.3,0.3-1.9l33.3-19.2
	l0-12.7l84-48.5h19.5l-42,24.3v5.3L279.9,344c-1-0.4-2.3-0.4-3.2,0.1c-1,0.6-1,1.5,0,2c1,0.6,2.6,0.6,3.5,0c0.9-0.5,1-1.3,0.3-1.9
	l10.9-6.3v14.6l-63.2,36.5c-1-0.4-2.3-0.4-3.2,0.1c-1,0.6-1,1.5,0,2c1,0.6,2.6,0.6,3.5,0c0.9-0.5,1-1.3,0.3-1.9l63.2-36.5v-15.3
	l8.6-5v-5.3l42.4-24.5l-0.1-0.2l44.5-25.7l8.1,4.7L349.7,308l0,43.4L265.6,400h1.1l69.6-40.2l0,39.3l-1.6,0.9h1.1l1-0.6l0-39.9
	l13.3-7.7l0-43.4l45.7-26.4l7.1,4.1l-35.3,20.4l0,23.8l0.1,0.1l40.1,23.1l0,8.1l-22.7,13.1c-1-0.4-2.3-0.4-3.2,0.1c-1,0.6-1,1.5,0,2
	c1,0.6,2.6,0.6,3.5,0c0.9-0.5,1-1.3,0.3-1.9l22.7-13.1l0-8.7l-0.1-0.1l-40.1-23.1l0-23.2l26.6-15.4l0,9.9l-12.2,7.1
	c-1-0.4-2.3-0.4-3.2,0.1c-1,0.6-1,1.5,0,2c1,0.6,2.6,0.6,3.5,0c0.9-0.5,1-1.3,0.3-1.9l12.2-7.1l0-10.6l8.1-4.7l9.5,5.5l0,17.3
	l-18,10.4v11.9l0.1,0.1l37.8,21.8c-0.7,0.6-0.6,1.4,0.3,1.9c1,0.6,2.6,0.6,3.5,0c1-0.6,1-1.5,0-2c-0.9-0.5-2.3-0.6-3.2-0.1l-38-21.9
	v-11.3l17.4-10.1l0,11.9l23.3,13.4c-0.7,0.6-0.6,1.4,0.3,1.9c1,0.6,2.6,0.6,3.5,0c1-0.6,1-1.5,0-2c-0.9-0.5-2.3-0.6-3.2-0.1
	l-23.3-13.4l0-29.2l6.7,3.9l0.1-0.1l10.9-6.3l10,5.8l0,14l26.5,15.3l0,13.2c-0.5,0-1.1,0.2-1.5,0.4c-1,0.6-1,1.5,0,2
	c1,0.6,2.6,0.6,3.5,0c1-0.6,1-1.5,0-2c-0.4-0.2-0.9-0.4-1.5-0.4l0-13.5L442,309.1l0-13.4l43,24.8l0,26.3l-23.3,13.5h-21.4l-0.1,0
	l-36.7,21.2c-1-0.4-2.3-0.4-3.2,0.1c-1,0.6-1,1.5,0,2c1,0.6,2.6,0.6,3.5,0c0.9-0.5,1-1.3,0.3-1.9l36.4-21h20.3l-67.4,38.9
	c-1-0.4-2.3-0.4-3.2,0.1c0,0,0,0,0,0h4.1l91.4-52.8l0-26.9l-0.1-0.1l-53.4-30.8l10.7-6.2l91.1,52.6l0,31.4l31.1,18
	c-0.7,0.6-0.6,1.4,0.3,1.9c1,0.6,2.6,0.6,3.5,0c1-0.6,1-1.5,0-2c-0.9-0.5-2.3-0.6-3.2-0.1l-31.1-18l0-31.4l-0.1-0.1l-91-52.5
	l10.2-5.9l90.1,52h53.8l2.5,1.5v-0.6l-2.4-1.4h-53.8l-76.1-43.9h15.3l26,15l20,0l0.1,0l27.7-16c1,0.4,2.3,0.4,3.2-0.1
	c1-0.6,1-1.5,0-2c-1-0.6-2.6-0.6-3.5,0c-0.9,0.5-1,1.3-0.3,1.9l-27.4,15.8l-19.7,0l-26-15h-16.4l-12.7-7.3l27.3-15.8l7.8,4.5l0,11.8
	l19.7,11.4c-0.7,0.6-0.6,1.4,0.3,1.9c1,0.6,2.6,0.6,3.5,0c1-0.6,1-1.5,0-2c-0.9-0.5-2.3-0.6-3.2-0.1l-19.7-11.4l0-11.1l21,12.1h10
	l0.1,0l11.9-6.9c1,0.4,2.3,0.4,3.2-0.1c1-0.6,1-1.5,0-2c-1-0.6-2.6-0.6-3.5,0c-0.9,0.5-1,1.3-0.3,1.9l-11.5,6.7H511L482,260.5l5.3-3
	l-0.4-0.2l-16.4-9.4l7.9-4.5h11.9l8.5,4.9c-0.7,0.6-0.6,1.3,0.3,1.8c1,0.6,2.6,0.6,3.5,0c1-0.6,1-1.5,0-2c-0.9-0.5-2.3-0.6-3.3-0.1
	l-8.9-5.1h-11.1l20-11.6l47.2,27.2h33.9l0.1,0l19.1-11c0.1,0.1,0.3,0.1,0.4,0.1v-2.6c-0.3,0.1-0.5,0.2-0.7,0.3
	c-0.9,0.5-1,1.3-0.3,1.9l-18.8,10.8h-33.6l-36.4-21l15.6,0l15.2,8.8c-0.7,0.6-0.6,1.4,0.3,1.9c1,0.6,2.6,0.6,3.5,0c1-0.6,1-1.5,0-2
	c-0.9-0.5-2.3-0.6-3.2-0.1l-15.6-9l-16.7,0l-9.4-5.4l23.9-13.8l76.1,0v-0.6l-75.2,0l9.5-5.5l56.6,0l0.1,0l9-5.2v-0.6l-9.2,5.3
	l-56.6,0l-0.1,0l-64.2,37.1l-7.1-4.1l67.5-39l49.3,0l0.1,0l20.3-11.7V192l-20.5,11.9l-49.3,0l-0.1,0L462.2,243l-8.1-4.7l131.6-76
	l0-27.6l14.3-8.2V125.9z M486.2,257.5l-65.7,37.9l-65.7-37.9l65.7-37.9L486.2,257.5z"/>
<g>
	<g class="st4">
		<polygon class="st0" points="470.7,349.1 366.6,288.9 470.7,228.8 574.8,288.9 		"/>
	</g>
	<g class="st4">
		<polygon class="st0" points="470.7,339.7 382.7,288.9 470.7,238.1 558.7,288.9 		"/>
	</g>
	<g class="st5">
		<polygon class="st6" points="470.7,328.9 401.5,288.9 470.7,249 539.9,288.9 		"/>
	</g>
</g>
<g>
	<g>
		<g>
			<g>
				<g>
					<g>
						<g>
							
								<linearGradient id="SVGID_3_" gradientUnits="userSpaceOnUse" x1="157.1959" y1="232.3986" x2="262.3357" y2="232.3986" gradientTransform="matrix(-1 0 0 1 709.138 0)">
								<stop  offset="0" style="stop-color:#C0BFF6"/>
								<stop  offset="0.2938" style="stop-color:#C5C4F7"/>
								<stop  offset="0.6399" style="stop-color:#D3D2F9"/>
								<stop  offset="1" style="stop-color:#E9E9FD"/>
							</linearGradient>
							<path class="st7" d="M446.8,238.9l11.4-67.6l-0.9-0.4l1.4-0.8l0,0c0.3-0.2,0.6-0.2,1.1,0.1l91,52.6c0.7,0.4,1.3,1.5,1.2,2.3
								l-11.5,68.1c-0.1,0.4-0.2,0.6-0.5,0.7l0,0l-1.3,0.8l-0.2-1.3l0.1,0L448,241.3C447.3,240.8,446.7,239.7,446.8,238.9z"/>
							
								<linearGradient id="SVGID_4_" gradientUnits="userSpaceOnUse" x1="157.1966" y1="259.3719" x2="175.2501" y2="259.3719" gradientTransform="matrix(-1 0 0 1 709.138 0)">
								<stop  offset="0" style="stop-color:#5761D7"/>
								<stop  offset="0.1779" style="stop-color:#5C66D9"/>
								<stop  offset="0.3876" style="stop-color:#6A73DF"/>
								<stop  offset="0.6134" style="stop-color:#8289E8"/>
								<stop  offset="0.849" style="stop-color:#A3A7F5"/>
								<stop  offset="1" style="stop-color:#BCBEFF"/>
							</linearGradient>
							<path class="st8" d="M550.2,224.7l1.5-0.7c0.2,0.4,0.3,0.8,0.2,1.1l-11.5,68.1c-0.1,0.4-0.2,0.6-0.5,0.7l0,0l-1.3,0.8
								l-0.2-1.3l0.1,0l-4.6-2.6L550.2,224.7z"/>
							<path class="st9" d="M446.6,242.1l91,52.6c0.7,0.4,1.3,0.2,1.4-0.6l11.5-68.1c0.1-0.8-0.4-1.9-1.2-2.3l-91-52.6
								c-0.7-0.4-1.3-0.2-1.4,0.6l-11.5,68.1C445.3,240.5,445.8,241.6,446.6,242.1z"/>
							<g class="st10">
								<polygon class="st11" points="458,172.3 549.4,225.1 537.9,293.4 446.5,240.7 								"/>
							</g>
						</g>
						<g>
							
								<linearGradient id="SVGID_5_" gradientUnits="userSpaceOnUse" x1="171.2822" y1="288.8016" x2="319.774" y2="288.8016" gradientTransform="matrix(-1 0 0 1 709.138 0)">
								<stop  offset="0" style="stop-color:#5761D7"/>
								<stop  offset="0.1779" style="stop-color:#5C66D9"/>
								<stop  offset="0.3876" style="stop-color:#6A73DF"/>
								<stop  offset="0.6134" style="stop-color:#8289E8"/>
								<stop  offset="0.849" style="stop-color:#A3A7F5"/>
								<stop  offset="1" style="stop-color:#BCBEFF"/>
							</linearGradient>
							<path class="st12" d="M389.4,274.3l5,2.6l49.8-28.8c0.8-0.5,2.3-0.4,3.3,0.1l85.9,49.6c0.8-0.5,4.6-2.3,4.6-2.3l-1.8,3
								c0,0,0,0,0,0c-0.1,0.2-0.2,0.4-0.5,0.6l-52.5,30.3c-0.8,0.5-2.3,0.4-3.3-0.1l-87.9-50.8c-0.4-0.2-0.6-0.5-0.7-0.8l0,0
								L389.4,274.3z"/>
							
								<linearGradient id="SVGID_6_" gradientUnits="userSpaceOnUse" x1="221.1759" y1="284.7399" x2="369.7469" y2="284.7399" gradientTransform="matrix(-1 0 0 1 709.138 0)">
								<stop  offset="0" style="stop-color:#C0BFF6"/>
								<stop  offset="0.2938" style="stop-color:#C5C4F7"/>
								<stop  offset="0.6399" style="stop-color:#D3D2F9"/>
								<stop  offset="1" style="stop-color:#E9E9FD"/>
							</linearGradient>
							<path class="st13" d="M390.1,275.1l90.1,52c1,0.6,2.5,0.6,3.3,0.1l53.8-31c0.9-0.5,0.7-1.4-0.2-1.9l-90.1-52
								c-1-0.6-2.5-0.6-3.3-0.1l-53.8,31C389,273.7,389.1,274.6,390.1,275.1z"/>
							<path class="st9" d="M390.1,275.1l90.1,52c1,0.6,2.5,0.6,3.3,0.1l53.8-31c0.9-0.5,0.7-1.4-0.2-1.9l-90.1-52
								c-1-0.6-2.5-0.6-3.3-0.1l-53.8,31C389,273.7,389.1,274.6,390.1,275.1z"/>
							<path class="st14" d="M390.1,275.1l90.1,52c1,0.6,2.5,0.6,3.3,0.1l53.8-31c0.9-0.5,0.7-1.4-0.2-1.9l-90.1-52
								c-1-0.6-2.5-0.6-3.3-0.1l-53.8,31C389,273.7,389.1,274.6,390.1,275.1z"/>
							<g class="st15">
								<defs>
									<path id="SVGID_7_" class="st15" d="M390.1,273.2l90.1,52c1,0.6,2.5,0.6,3.3,0.1l53.8-31c0.9-0.5,0.7-1.4-0.2-1.9l-90.1-52
										c-1-0.6-2.5-0.6-3.3-0.1l-53.8,31C389,271.8,389.1,272.7,390.1,273.2z"/>
								</defs>
								
									<radialGradient id="SVGID_8_" cx="471.504" cy="309.1374" r="94.0564" gradientTransform="matrix(1 0 0 1.0004 0 -22.8514)" gradientUnits="userSpaceOnUse">
									<stop  offset="0" style="stop-color:#42E8E0"/>
									<stop  offset="0.1055" style="stop-color:#37B6BF"/>
									<stop  offset="0.2197" style="stop-color:#2C87A1"/>
									<stop  offset="0.338" style="stop-color:#235F87"/>
									<stop  offset="0.4587" style="stop-color:#1C3F72"/>
									<stop  offset="0.5824" style="stop-color:#162561"/>
									<stop  offset="0.7105" style="stop-color:#121355"/>
									<stop  offset="0.8458" style="stop-color:#10084E"/>
									<stop  offset="1" style="stop-color:#0F054C"/>
								</radialGradient>
								<use xlink:href="#SVGID_7_"  style="overflow:visible;opacity:0.5;fill:url(#SVGID_8_);"/>
								<clipPath id="SVGID_9_">
									<use xlink:href="#SVGID_7_"  style="overflow:visible;opacity:0.5;"/>
								</clipPath>
								<g class="st16">
									<g>
										<g>
											<g>
												<g>
													<g>
														<g>
															
																<radialGradient id="SVGID_10_" cx="-2555.5215" cy="5376.6084" r="58.7738" gradientTransform="matrix(-0.7781 0 0 -1.0596 -1538.7906 6032.812)" gradientUnits="userSpaceOnUse">
																<stop  offset="0" style="stop-color:#C0BFF6"/>
																<stop  offset="1" style="stop-color:#393091"/>
															</radialGradient>
															<path class="st17" d="M438.8,330.4c0-20,11.9-36.2,26.6-36.2c14.7,0,26.6,16.2,26.6,36.2c0,20-11.9,26-26.6,26
																C450.7,356.4,438.8,350.4,438.8,330.4z"/>
														</g>
													</g>
												</g>
											</g>
										</g>
									</g>
								</g>
							</g>
							<linearGradient id="SVGID_11_" gradientUnits="userSpaceOnUse" x1="389.1035" y1="282.8245" x2="538.0999" y2="282.8245">
								<stop  offset="0" style="stop-color:#42E8E0"/>
								<stop  offset="0.1055" style="stop-color:#37B6BF"/>
								<stop  offset="0.2197" style="stop-color:#2C87A1"/>
								<stop  offset="0.338" style="stop-color:#235F87"/>
								<stop  offset="0.4587" style="stop-color:#1C3F72"/>
								<stop  offset="0.5824" style="stop-color:#162561"/>
								<stop  offset="0.7105" style="stop-color:#121355"/>
								<stop  offset="0.8458" style="stop-color:#10084E"/>
								<stop  offset="1" style="stop-color:#0F054C"/>
							</linearGradient>
							<path class="st18" d="M482.1,325.9c-0.7,0-1.4-0.2-2-0.5l-90.1-52c-0.6-0.3-0.9-0.8-0.9-1.3c0-0.4,0.2-0.8,0.7-1l53.8-31
								c0.9-0.5,2.5-0.5,3.5,0.1l90.1,52c0.6,0.3,0.9,0.8,0.9,1.3c0,0.4-0.2,0.8-0.7,1l-53.8,31
								C483.2,325.8,482.7,325.9,482.1,325.9z M445.1,240.1c-0.5,0-1,0.1-1.3,0.3l-53.8,31c-0.2,0.1-0.5,0.3-0.5,0.7
								c0,0.3,0.3,0.6,0.7,0.9l90.1,52c0.9,0.5,2.3,0.6,3.1,0.1l53.8-31c0.2-0.1,0.5-0.3,0.5-0.7s-0.3-0.6-0.7-0.9l-90.1-52
								C446.4,240.3,445.7,240.1,445.1,240.1z"/>
							<path class="st19" d="M390.1,274.7l90.1,52c1,0.6,2.5,0.6,3.3,0.1l53.8-31c0.3-0.2,0.5-0.4,0.5-0.6c0.1,0.4-0.1,0.8-0.5,1
								l-53.8,31c-0.9,0.5-2.3,0.4-3.3-0.1l-90.1-52c-0.6-0.4-0.9-0.9-0.8-1.3C389.4,274.2,389.7,274.5,390.1,274.7z"/>
						</g>
					</g>
					<g class="st20">
						<defs>
							<polygon id="SVGID_12_" class="st20" points="549.4,225.1 458,172.3 446.5,240.7 537.9,293.4 							"/>
						</defs>
						<clipPath id="SVGID_13_">
							<use xlink:href="#SVGID_12_"  style="overflow:visible;"/>
						</clipPath>
						<g class="st21">
							<g>
								
									<linearGradient id="SVGID_14_" gradientUnits="userSpaceOnUse" x1="114.1824" y1="256.1099" x2="262.6742" y2="256.1099" gradientTransform="matrix(-1 0 0 1 709.138 0)">
									<stop  offset="0" style="stop-color:#5761D7"/>
									<stop  offset="0.1779" style="stop-color:#5C66D9"/>
									<stop  offset="0.3876" style="stop-color:#6A73DF"/>
									<stop  offset="0.6134" style="stop-color:#8289E8"/>
									<stop  offset="0.849" style="stop-color:#A3A7F5"/>
									<stop  offset="1" style="stop-color:#BCBEFF"/>
								</linearGradient>
								<path class="st22" d="M446.5,241.6l5,2.6l49.8-28.8c0.8-0.5,2.3-0.4,3.3,0.1l85.9,49.6c0.8-0.5,4.6-2.3,4.6-2.3l-1.8,3
									c0,0,0,0,0,0c-0.1,0.2-0.2,0.4-0.5,0.6l-52.5,30.3c-0.8,0.5-2.3,0.4-3.3-0.1L449,245.9c-0.4-0.2-0.6-0.5-0.7-0.8l0,0
									L446.5,241.6z"/>
								
									<linearGradient id="SVGID_15_" gradientUnits="userSpaceOnUse" x1="164.0762" y1="252.0482" x2="312.6471" y2="252.0482" gradientTransform="matrix(-1 0 0 1 709.138 0)">
									<stop  offset="0" style="stop-color:#C0BFF6"/>
									<stop  offset="0.2938" style="stop-color:#C5C4F7"/>
									<stop  offset="0.6399" style="stop-color:#D3D2F9"/>
									<stop  offset="1" style="stop-color:#E9E9FD"/>
								</linearGradient>
								<path class="st23" d="M447.2,242.5l90.1,52c1,0.6,2.5,0.6,3.3,0.1l53.8-31c0.9-0.5,0.7-1.4-0.2-1.9l-90.1-52
									c-1-0.6-2.5-0.6-3.3-0.1l-53.8,31C446.1,241,446.2,241.9,447.2,242.5z"/>
								<path class="st9" d="M447.2,242.5l90.1,52c1,0.6,2.5,0.6,3.3,0.1l53.8-31c0.9-0.5,0.7-1.4-0.2-1.9l-90.1-52
									c-1-0.6-2.5-0.6-3.3-0.1l-53.8,31C446.1,241,446.2,241.9,447.2,242.5z"/>
								<path class="st14" d="M447.2,242.5l90.1,52c1,0.6,2.5,0.6,3.3,0.1l53.8-31c0.9-0.5,0.7-1.4-0.2-1.9l-90.1-52
									c-1-0.6-2.5-0.6-3.3-0.1l-53.8,31C446.1,241,446.2,241.9,447.2,242.5z"/>
								<path class="st19" d="M594.2,261.6l-90.1-52c-0.6-0.4-1.5-0.5-2.2-0.5c0.6,0,1.1,0.2,1.6,0.5l90.1,52c1,0.6,1.1,1.4,0.2,1.9
									l-53.8,31c-0.3,0.2-0.7,0.3-1.1,0.3c0.7,0.1,1.3,0,1.8-0.3l53.8-31C595.3,263.1,595.2,262.2,594.2,261.6z"/>
							</g>
						</g>
						<path class="st24" d="M513.6,271.9L487.8,257c-2.6-1.5-2.6-4,0-5.5l25.9-14.9c2.6-1.5,6.9-1.5,9.5,0l25.9,14.9
							c2.6,1.5,2.6,4,0,5.5l-25.9,14.9C520.5,273.4,516.2,273.4,513.6,271.9z"/>
						<g class="st21">
							<path class="st25" d="M527.3,273.9c-6.5,0-12.5-1.4-17.1-4.1l0,0c-4.6-2.7-7.2-6.3-7.2-10.1c0-3.8,2.6-7.4,7.2-10.1
								c9.4-5.4,24.7-5.4,34.2,0c4.6,2.7,7.2,6.3,7.2,10.1c0,3.8-2.6,7.4-7.2,10.1C539.8,272.4,533.7,273.9,527.3,273.9z
								 M527.3,245.8c-6.1,0-12.3,1.3-16.9,4c-4.5,2.6-7,6.1-7,9.8c0,3.7,2.5,7.2,7,9.8l0,0c4.5,2.6,10.5,4,16.9,4
								c6.4,0,12.4-1.4,16.9-4c4.5-2.6,7-6.1,7-9.8c0-3.7-2.5-7.2-7-9.8C539.6,247.2,533.4,245.8,527.3,245.8z"/>
							<g>
								<g>
									
										<linearGradient id="SVGID_16_" gradientUnits="userSpaceOnUse" x1="-233.9513" y1="251.914" x2="-190.0488" y2="251.914" gradientTransform="matrix(-1 0 0 1 315.2906 0)">
										<stop  offset="0" style="stop-color:#5761D7"/>
										<stop  offset="0.1779" style="stop-color:#5C66D9"/>
										<stop  offset="0.3876" style="stop-color:#6A73DF"/>
										<stop  offset="0.6134" style="stop-color:#8289E8"/>
										<stop  offset="0.849" style="stop-color:#A3A7F5"/>
										<stop  offset="1" style="stop-color:#BCBEFF"/>
									</linearGradient>
									<path class="st26" d="M505.3,251.9V247h1.7c1.1-1.5,2.7-2.9,4.7-4.1c8.6-5,22.5-5,31,0c2.1,1.2,3.7,2.6,4.7,4.1h1.7v4.9
										l0,0c0,3.2-2.1,6.5-6.4,9c-8.6,5-22.5,5-31,0C507.5,258.4,505.3,255.2,505.3,251.9z"/>
									<path class="st27" d="M511.8,256c8.6,5,22.5,5,31,0c8.6-5,8.6-13,0-17.9c-8.6-5-22.5-5-31,0
										C503.2,243,503.2,251.1,511.8,256z"/>
								</g>
								<g>
									<path class="st9" d="M507,246.9v-6.6h1.6c1-1.4,2.4-2.7,4.4-3.8c7.9-4.6,20.8-4.6,28.7,0c1.9,1.1,3.4,2.4,4.4,3.8h1.6v6.7
										l0,0c0,3-2,6-5.9,8.3c-7.9,4.6-20.8,4.6-28.7,0C509,252.8,507,249.9,507,246.9z"/>
									<g class="st10">
										<path class="st11" d="M507,245.3v-6.6h1.6c1-1.4,2.4-2.7,4.4-3.8c7.9-4.6,20.8-4.6,28.7,0c1.9,1.1,3.4,2.4,4.4,3.8h1.6
											v6.7l0,0c0,3-2,6-5.9,8.3c-7.9,4.6-20.8,4.6-28.7,0C509,251.2,507,248.3,507,245.3z"/>
									</g>
									<path class="st27" d="M513,248.5c7.9,4.6,20.8,4.6,28.7,0c7.9-4.6,7.9-12,0-16.6s-20.8-4.6-28.7,0
										C505,236.5,505,243.9,513,248.5z"/>
								</g>
								<g>
									<g class="st10">
										<path class="st28" d="M513.3,248.8c3.5,4.4,8.1,6.8,12,8.1c-4.5-0.3-8.9-1.4-12.3-3.4c-4-2.3-5.9-5.3-5.9-8.3v-2
											C509.1,244.4,511.2,246.2,513.3,248.8z"/>
									</g>
									
										<linearGradient id="SVGID_17_" gradientUnits="userSpaceOnUse" x1="-233.9513" y1="240.0995" x2="-190.0488" y2="240.0995" gradientTransform="matrix(-1 0 0 1 315.2906 0)">
										<stop  offset="0" style="stop-color:#5761D7"/>
										<stop  offset="0.1779" style="stop-color:#5C66D9"/>
										<stop  offset="0.3876" style="stop-color:#6A73DF"/>
										<stop  offset="0.6134" style="stop-color:#8289E8"/>
										<stop  offset="0.849" style="stop-color:#A3A7F5"/>
										<stop  offset="1" style="stop-color:#BCBEFF"/>
									</linearGradient>
									<path class="st29" d="M505.3,240.1v-4.9h1.7c1.1-1.5,2.7-2.9,4.7-4.1c8.6-5,22.5-5,31,0c2.1,1.2,3.7,2.6,4.7,4.1h1.7v4.9
										l0,0c0,3.2-2.1,6.5-6.4,9c-8.6,5-22.5,5-31,0C507.5,246.6,505.3,243.3,505.3,240.1z"/>
									<path class="st27" d="M511.8,244.2c8.6,5,22.5,5,31,0c8.6-5,8.6-13,0-17.9c-8.6-5-22.5-5-31,0
										C503.2,231.2,503.2,239.2,511.8,244.2z"/>
								</g>
								<g>
									<path class="st9" d="M507,234.8v-6.6h1.6c1-1.4,2.4-2.7,4.4-3.8c7.9-4.6,20.8-4.6,28.7,0c1.9,1.1,3.4,2.4,4.4,3.8h1.6v6.7
										l0,0c0,3-2,6-5.9,8.3c-7.9,4.6-20.8,4.6-28.7,0C509,240.8,507,237.8,507,234.8z"/>
									<g class="st10">
										<path class="st11" d="M507,233.3v-6.6h1.6c1-1.4,2.4-2.7,4.4-3.8c7.9-4.6,20.8-4.6,28.7,0c1.9,1.1,3.4,2.4,4.4,3.8h1.6
											v6.7l0,0c0,3-2,6-5.9,8.3c-7.9,4.6-20.8,4.6-28.7,0C509,239.3,507,236.3,507,233.3z"/>
									</g>
									<path class="st27" d="M513,236.4c7.9,4.6,20.8,4.6,28.7,0c7.9-4.6,7.9-12,0-16.6c-7.9-4.6-20.8-4.6-28.7,0
										C505,224.4,505,231.9,513,236.4z"/>
								</g>
								<g>
									<g class="st10">
										<path class="st28" d="M513.3,236.1c4.3,5.5,10.4,7.8,14.7,8.8c-5.4,0.1-10.9-1-15-3.4c-4-2.3-5.9-5.3-5.9-8.3v-2.7
											C509.1,231.7,511.2,233.5,513.3,236.1z"/>
									</g>
									
										<linearGradient id="SVGID_18_" gradientUnits="userSpaceOnUse" x1="-233.9513" y1="228.0396" x2="-190.0488" y2="228.0396" gradientTransform="matrix(-1 0 0 1 315.2906 0)">
										<stop  offset="0" style="stop-color:#5761D7"/>
										<stop  offset="0.1779" style="stop-color:#5C66D9"/>
										<stop  offset="0.3876" style="stop-color:#6A73DF"/>
										<stop  offset="0.6134" style="stop-color:#8289E8"/>
										<stop  offset="0.849" style="stop-color:#A3A7F5"/>
										<stop  offset="1" style="stop-color:#BCBEFF"/>
									</linearGradient>
									<path class="st30" d="M505.3,228v-4.9h1.7c1.1-1.5,2.7-2.9,4.7-4.1c8.6-5,22.5-5,31,0c2.1,1.2,3.7,2.6,4.7,4.1h1.7v4.9l0,0
										c0,3.2-2.1,6.5-6.4,9c-8.6,5-22.5,5-31,0C507.5,234.5,505.3,231.3,505.3,228z"/>
									<path class="st27" d="M511.8,232.1c8.6,5,22.5,5,31,0c8.6-5,8.6-13,0-17.9c-8.6-5-22.5-5-31,0
										C503.2,219.2,503.2,227.2,511.8,232.1z"/>
								</g>
								<g>
									<path class="st9" d="M507,222.7v-6.6h1.6c1-1.4,2.4-2.7,4.4-3.8c7.9-4.6,20.8-4.6,28.7,0c1.9,1.1,3.4,2.4,4.4,3.8h1.6v6.7
										l0,0c0,3-2,6-5.9,8.3c-7.9,4.6-20.8,4.6-28.7,0C509,228.7,507,225.7,507,222.7z"/>
									<g class="st10">
										<path class="st11" d="M507,220.9v-6.6h1.6c1-1.4,2.4-2.7,4.4-3.8c7.9-4.6,20.8-4.6,28.7,0c1.9,1.1,3.4,2.4,4.4,3.8h1.6
											v6.7l0,0c0,3-2,6-5.9,8.3c-7.9,4.6-20.8,4.6-28.7,0C509,226.9,507,223.9,507,220.9z"/>
									</g>
									<path class="st27" d="M513,224.4c7.9,4.6,20.8,4.6,28.7,0c7.9-4.6,7.9-12,0-16.6s-20.8-4.6-28.7,0
										C505,212.4,505,219.8,513,224.4z"/>
								</g>
								<g>
									
										<linearGradient id="SVGID_19_" gradientUnits="userSpaceOnUse" x1="-233.9513" y1="215.9798" x2="-190.0488" y2="215.9798" gradientTransform="matrix(-1 0 0 1 315.2906 0)">
										<stop  offset="0" style="stop-color:#5761D7"/>
										<stop  offset="0.1779" style="stop-color:#5C66D9"/>
										<stop  offset="0.3876" style="stop-color:#6A73DF"/>
										<stop  offset="0.6134" style="stop-color:#8289E8"/>
										<stop  offset="0.849" style="stop-color:#A3A7F5"/>
										<stop  offset="1" style="stop-color:#BCBEFF"/>
									</linearGradient>
									<path class="st31" d="M505.3,216v-4.9h1.7c1.1-1.5,2.7-2.9,4.7-4.1c8.6-5,22.5-5,31,0c2.1,1.2,3.7,2.6,4.7,4.1h1.7v4.9l0,0
										c0,3.2-2.1,6.5-6.4,9c-8.6,5-22.5,5-31,0C507.5,222.5,505.3,219.2,505.3,216z"/>
									<path class="st27" d="M511.8,220.1c8.6,5,22.5,5,31,0c8.6-5,8.6-13,0-17.9c-8.6-5-22.5-5-31,0
										C503.2,207.1,503.2,215.1,511.8,220.1z"/>
									<path class="st27" d="M511.8,220.1c8.6,5,22.5,5,31,0c8.6-5,8.6-13,0-17.9c-8.6-5-22.5-5-31,0
										C503.2,207.1,503.2,215.1,511.8,220.1z"/>
								</g>
								<g>
									<g class="st10">
										<path class="st28" d="M513.3,223.5c4.8,6.1,11.6,8.3,15.9,9.1c-5.8,0.3-11.8-0.8-16.2-3.4c-4-2.3-5.9-5.3-5.9-8.3v-3
											C509.1,219,511.2,220.8,513.3,223.5z"/>
									</g>
									
										<linearGradient id="SVGID_20_" gradientUnits="userSpaceOnUse" x1="-233.9513" y1="215.9798" x2="-190.0488" y2="215.9798" gradientTransform="matrix(-1 0 0 1 315.2906 0)">
										<stop  offset="0" style="stop-color:#5761D7"/>
										<stop  offset="0.1779" style="stop-color:#5C66D9"/>
										<stop  offset="0.3876" style="stop-color:#6A73DF"/>
										<stop  offset="0.6134" style="stop-color:#8289E8"/>
										<stop  offset="0.849" style="stop-color:#A3A7F5"/>
										<stop  offset="1" style="stop-color:#BCBEFF"/>
									</linearGradient>
									<path class="st32" d="M505.3,216v-4.9h1.7c1.1-1.5,2.7-2.9,4.7-4.1c8.6-5,22.5-5,31,0c2.1,1.2,3.7,2.6,4.7,4.1h1.7v4.9l0,0
										c0,3.2-2.1,6.5-6.4,9c-8.6,5-22.5,5-31,0C507.5,222.5,505.3,219.2,505.3,216z"/>
									<path class="st27" d="M511.8,220.1c8.6,5,22.5,5,31,0c8.6-5,8.6-13,0-17.9c-8.6-5-22.5-5-31,0
										C503.2,207.1,503.2,215.1,511.8,220.1z"/>
									<path class="st27" d="M511.8,220.1c8.6,5,22.5,5,31,0c8.6-5,8.6-13,0-17.9c-8.6-5-22.5-5-31,0
										C503.2,207.1,503.2,215.1,511.8,220.1z"/>
									<path class="st19" d="M511.6,219.7c8.6,5,22.5,5,31,0c5.2-3,7.3-7.2,6.1-11.1c1.4,4-0.6,8.4-6,11.5c-8.6,5-22.5,5-31,0
										c-3.3-1.9-5.4-4.3-6.1-6.8C506.5,215.6,508.5,217.9,511.6,219.7z"/>
									<path class="st19" d="M511.6,231.7c8.6,5,22.5,5,31,0c5.2-3,7.3-7.2,6.1-11.1c1.4,4-0.6,8.4-6,11.5c-8.6,5-22.5,5-31,0
										c-3.3-1.9-5.4-4.3-6.1-6.8C506.5,227.7,508.5,229.9,511.6,231.7z"/>
									<path class="st19" d="M511.6,243.8c8.6,5,22.5,5,31,0c5.2-3,7.3-7.2,6.1-11.1c1.4,4-0.6,8.4-6,11.5c-8.6,5-22.5,5-31,0
										c-3.3-1.9-5.4-4.3-6.1-6.8C506.5,239.8,508.5,242,511.6,243.8z"/>
									<path class="st19" d="M511.6,255.9c8.6,5,22.5,5,31,0c5.2-3,7.3-7.2,6.1-11.1c1.4,4-0.6,8.4-6,11.5c-8.6,5-22.5,5-31,0
										c-3.3-1.9-5.4-4.3-6.1-6.8C506.5,251.8,508.5,254,511.6,255.9z"/>
								</g>
								<defs>
									<filter id="Adobe_OpacityMaskFilter" filterUnits="userSpaceOnUse" x="527.3" y="204.7" width="22" height="11.8">
										<feFlood  style="flood-color:white;flood-opacity:1" result="back"/>
										<feBlend  in="SourceGraphic" in2="back" mode="normal"/>
									</filter>
								</defs>
								<mask maskUnits="userSpaceOnUse" x="527.3" y="204.7" width="22" height="11.8" id="SVGID_21_">
									<g class="st33">
										<defs>
											<filter id="Adobe_OpacityMaskFilter_1_" filterUnits="userSpaceOnUse" x="527.3" y="204.7" width="22" height="11.8">
												<feFlood  style="flood-color:white;flood-opacity:1" result="back"/>
												<feBlend  in="SourceGraphic" in2="back" mode="normal"/>
											</filter>
										</defs>
										<mask maskUnits="userSpaceOnUse" x="527.3" y="204.7" width="22" height="11.8" id="SVGID_21_">
											<g class="st34">
											</g>
										</mask>
										
											<linearGradient id="SVGID_22_" gradientUnits="userSpaceOnUse" x1="-233.9508" y1="210.5525" x2="-212.0001" y2="210.5525" gradientTransform="matrix(-1 0 0 1 315.2906 0)">
											<stop  offset="0" style="stop-color:#000000"/>
											<stop  offset="4.693538e-002" style="stop-color:#2F2F2F"/>
											<stop  offset="9.814870e-002" style="stop-color:#5A5A5A"/>
											<stop  offset="0.155" style="stop-color:#828282"/>
											<stop  offset="0.2161" style="stop-color:#A4A4A4"/>
											<stop  offset="0.2828" style="stop-color:#C0C0C0"/>
											<stop  offset="0.3571" style="stop-color:#D7D7D7"/>
											<stop  offset="0.442" style="stop-color:#E9E9E9"/>
											<stop  offset="0.5443" style="stop-color:#F6F6F6"/>
											<stop  offset="0.6813" style="stop-color:#FDFDFD"/>
											<stop  offset="1" style="stop-color:#FFFFFF"/>
										</linearGradient>
										<path class="st35" d="M547.2,216.4h-19.9v-11.8h18.9C549.9,208.3,550.2,212.7,547.2,216.4z"/>
									</g>
								</mask>
								
									<linearGradient id="SVGID_23_" gradientUnits="userSpaceOnUse" x1="-233.9508" y1="210.5525" x2="-212.0001" y2="210.5525" gradientTransform="matrix(-1 0 0 1 315.2906 0)">
									<stop  offset="0" style="stop-color:#E9E9FD"/>
									<stop  offset="3.739363e-002" style="stop-color:#D3D5F7"/>
									<stop  offset="0.1056" style="stop-color:#B2B6EF"/>
									<stop  offset="0.1817" style="stop-color:#969BE7"/>
									<stop  offset="0.2663" style="stop-color:#7F86E1"/>
									<stop  offset="0.3632" style="stop-color:#6D75DD"/>
									<stop  offset="0.4798" style="stop-color:#606AD9"/>
									<stop  offset="0.6363" style="stop-color:#5963D8"/>
									<stop  offset="1" style="stop-color:#5761D7"/>
								</linearGradient>
								<path class="st36" d="M547.2,216.4h-19.9v-11.8h18.9C549.9,208.3,550.2,212.7,547.2,216.4z"/>
								<g>
									
										<linearGradient id="SVGID_24_" gradientUnits="userSpaceOnUse" x1="-223.2704" y1="209.9225" x2="-200.7298" y2="209.9225" gradientTransform="matrix(-1 0 0 1 315.2906 0)">
										<stop  offset="0" style="stop-color:#5761D7"/>
										<stop  offset="0.1779" style="stop-color:#5C66D9"/>
										<stop  offset="0.3876" style="stop-color:#6A73DF"/>
										<stop  offset="0.6134" style="stop-color:#8289E8"/>
										<stop  offset="0.849" style="stop-color:#A3A7F5"/>
										<stop  offset="1" style="stop-color:#BCBEFF"/>
									</linearGradient>
									<path class="st37" d="M516,209.9v-2.5h0.9c0.5-0.8,1.4-1.5,2.4-2.1c4.4-2.5,11.5-2.5,15.9,0c1.1,0.6,1.9,1.3,2.4,2.1h0.9
										v2.5l0,0c0,1.7-1.1,3.3-3.3,4.6c-4.4,2.5-11.5,2.5-15.9,0C517.1,213.3,516,211.6,516,209.9z"/>
									<path class="st27" d="M519.3,212c4.4,2.5,11.5,2.5,15.9,0c4.4-2.5,4.4-6.7,0-9.2s-11.5-2.5-15.9,0
										C514.9,205.4,514.9,209.5,519.3,212z"/>
									
										<linearGradient id="SVGID_25_" gradientUnits="userSpaceOnUse" x1="-223.2704" y1="207.4211" x2="-200.7297" y2="207.4211" gradientTransform="matrix(-1 0 0 1 315.2906 0)">
										<stop  offset="0" style="stop-color:#C0BFF6"/>
										<stop  offset="0.2938" style="stop-color:#C5C4F7"/>
										<stop  offset="0.6399" style="stop-color:#D3D2F9"/>
										<stop  offset="1" style="stop-color:#E9E9FD"/>
									</linearGradient>
									<path class="st38" d="M519.3,212c4.4,2.5,11.5,2.5,15.9,0c4.4-2.5,4.4-6.7,0-9.2s-11.5-2.5-15.9,0
										C514.9,205.4,514.9,209.5,519.3,212z"/>
									<path class="st9" d="M521.9,210.5c3,1.7,7.8,1.7,10.7,0c0.9-0.5,1.6-1.2,1.9-1.8c0.8-1.5-1.1-2.6-3.2-3.7
										c-3-1.7-5.1-2.1-8-0.4c-2,1.2-4.1,2.7-3.3,4.2C520.4,209.3,521,210,521.9,210.5z"/>
									
										<linearGradient id="SVGID_26_" gradientUnits="userSpaceOnUse" x1="-219.5884" y1="205.855" x2="-204.4117" y2="205.855" gradientTransform="matrix(-1 0 0 1 315.2906 0)">
										<stop  offset="0" style="stop-color:#BCBEFF"/>
										<stop  offset="0.151" style="stop-color:#A3A7F5"/>
										<stop  offset="0.3866" style="stop-color:#8289E8"/>
										<stop  offset="0.6124" style="stop-color:#6A73DF"/>
										<stop  offset="0.8221" style="stop-color:#5C66D9"/>
										<stop  offset="1" style="stop-color:#5761D7"/>
									</linearGradient>
									<path class="st39" d="M532.7,206.8c-3-1.7-7.8-1.7-10.7,0c-0.9,0.5-1.6,1.2-1.9,1.8c-0.8-1.5-0.1-3.2,1.9-4.3
										c3-1.7,7.8-1.7,10.7,0c2,1.2,2.7,2.9,1.9,4.3C534.2,208,533.6,207.4,532.7,206.8z"/>
								</g>
							</g>
							<g>
								<g class="st10">
									<path class="st40" d="M514.9,229.6c1.5,0.6,2.6,0.4,2.5-0.4c-0.1-0.8-1.4-1.9-2.9-2.5c-1.5-0.6-2.6-0.4-2.5,0.4
										C512.2,227.9,513.5,229,514.9,229.6z"/>
								</g>
								<g class="st10">
									<path class="st40" d="M514.9,241.8c1.5,0.6,2.6,0.4,2.5-0.4c-0.1-0.8-1.4-1.9-2.9-2.5c-1.5-0.6-2.6-0.4-2.5,0.4
										C512.2,240.2,513.5,241.3,514.9,241.8z"/>
								</g>
								<g class="st10">
									<path class="st40" d="M514.9,254.2c1.5,0.6,2.6,0.4,2.5-0.4c-0.1-0.8-1.4-1.9-2.9-2.5s-2.6-0.4-2.5,0.4
										C512.1,252.5,513.4,253.6,514.9,254.2z"/>
								</g>
								<g class="st10">
									
										<ellipse transform="matrix(-0.5809 0.814 -0.814 -0.5809 991.954 -58.6083)" class="st40" cx="511.1" cy="226.1" rx="0.6" ry="0.8"/>
								</g>
								<g class="st10">
									
										<ellipse transform="matrix(-0.5809 0.8139 -0.8139 -0.5809 1001.965 -39.1663)" class="st40" cx="511.1" cy="238.3" rx="0.6" ry="0.8"/>
								</g>
								<g class="st10">
									
										<ellipse transform="matrix(-0.5809 0.814 -0.814 -0.5809 1011.9225 -19.825)" class="st40" cx="511.1" cy="250.6" rx="0.6" ry="0.8"/>
								</g>
							</g>
						</g>
					</g>
				</g>
			</g>
		</g>
	</g>
	<g>
		<g>
			<polygon class="st41" points="467,192.1 461.8,189.1 462,188 467.1,191 			"/>
			<polygon class="st41" points="469.6,193.6 467.8,192.6 467.9,191.4 469.8,192.5 			"/>
			<polygon class="st41" points="471.7,194.8 470.4,194.1 470.6,193 471.8,193.7 			"/>
			<polygon class="st41" points="464.2,193.4 461.4,191.7 461.6,190.6 464.4,192.2 			"/>
			<polygon class="st41" points="468.4,195.8 465,193.8 465.2,192.7 468.6,194.7 			"/>
			<polygon class="st41" points="470.5,197 469.2,196.3 469.4,195.1 470.7,195.8 			"/>
			<polygon class="st41" points="472.4,198.1 471.2,197.4 471.3,196.2 472.6,197 			"/>
			<polygon class="st25" points="463,195.5 461,194.3 461.1,193.2 463.2,194.4 			"/>
			<polygon class="st25" points="464.5,196.3 463.8,195.9 464,194.8 464.7,195.2 			"/>
			<polygon class="st41" points="466.5,197.5 465.3,196.8 465.4,195.7 466.7,196.4 			"/>
			<polygon class="st41" points="468,201.2 460.5,196.9 460.7,195.8 468.2,200.1 			"/>
			<polygon class="st41" points="470.7,202.8 468.8,201.7 469,200.6 470.9,201.6 			"/>
			<polygon class="st41" points="462.1,200.7 460.1,199.5 460.3,198.4 462.3,199.5 			"/>
			<polygon class="st41" points="466.9,203.4 462.9,201.1 463.1,200 467.1,202.3 			"/>
			<polygon class="st41" points="469,204.6 467.7,203.9 467.9,202.7 469.1,203.5 			"/>
			<polygon class="st41" points="463.8,204.5 459.7,202.1 459.9,200.9 464,203.4 			"/>
			<polygon class="st25" points="467.6,206.7 464.6,204.9 464.8,203.8 467.8,205.5 			"/>
			<polygon class="st41" points="470.5,208.3 468.4,207.1 468.6,206 470.6,207.2 			"/>
			<polygon class="st41" points="460.7,205.5 459.3,204.7 459.4,203.5 460.8,204.3 			"/>
			<polygon class="st41" points="463.3,207 461.4,205.9 461.6,204.8 463.5,205.9 			"/>
			<polygon class="st41" points="467.1,209.2 464.1,207.5 464.3,206.3 467.3,208.1 			"/>
			<polygon class="st41" points="463.1,209.7 458.8,207.3 459,206.1 463.3,208.6 			"/>
			<polygon class="st41" points="467.9,212.5 463.9,210.2 464.1,209.1 468.1,211.4 			"/>
			<polygon class="st25" points="470,213.7 468.7,213 468.9,211.9 470.2,212.6 			"/>
			<polygon class="st41" points="472,214.8 470.7,214.1 470.9,213 472.2,213.7 			"/>
			<polygon class="st41" points="461,211.3 458.4,209.8 458.6,208.7 461.2,210.2 			"/>
			<polygon class="st25" points="475.2,196.9 478.7,198.9 478.9,197.8 475.4,195.7 			"/>
			<polygon class="st41" points="475.5,199.9 478.3,201.5 478.5,200.4 475.7,198.8 			"/>
			<polygon class="st41" points="475.9,202.9 477.9,204.1 478.1,203 476,201.8 			"/>
			<polygon class="st41" points="474.5,205 477.5,206.7 477.7,205.6 474.7,203.8 			"/>
			<polygon class="st41" points="475,208.1 477,209.3 477.2,208.1 475.2,207 			"/>
			<polygon class="st41" points="474,210.4 476.6,211.9 476.8,210.7 474.2,209.2 			"/>
			<polygon class="st41" points="474.8,213.6 476.2,214.5 476.4,213.3 475,212.5 			"/>
			<polygon class="st41" points="473,215.5 475.8,217 475.9,215.9 473.2,214.3 			"/>
			<polygon class="st41" points="472.8,218.1 475.3,219.6 475.5,218.5 472.9,217 			"/>
			<polygon class="st41" points="462.9,212.4 461.8,211.8 462,210.7 463.1,211.3 			"/>
			<polygon class="st41" points="466.1,214.3 463.7,212.9 463.8,211.7 466.3,213.2 			"/>
			<polygon class="st41" points="487,203.6 481.8,200.6 482,199.5 487.1,202.5 			"/>
			<polygon class="st41" points="489.6,205.2 487.7,204.1 487.9,202.9 489.8,204 			"/>
			<polygon class="st25" points="491.7,206.3 490.4,205.6 490.6,204.5 491.8,205.2 			"/>
			<polygon class="st41" points="484.2,204.9 481.4,203.2 481.6,202.1 484.4,203.7 			"/>
			<polygon class="st41" points="488.4,207.3 485,205.3 485.2,204.2 488.6,206.2 			"/>
			<polygon class="st25" points="490.5,208.5 489.2,207.8 489.4,206.6 490.7,207.4 			"/>
			<polygon class="st41" points="492.4,209.6 491.2,208.9 491.3,207.8 492.6,208.5 			"/>
			<polygon class="st41" points="483,207 481,205.8 481.1,204.7 483.2,205.9 			"/>
			<polygon class="st41" points="484.5,207.9 483.8,207.5 484,206.3 484.7,206.7 			"/>
			<polygon class="st41" points="486.5,209 485.3,208.3 485.4,207.2 486.7,207.9 			"/>
			<polygon class="st41" points="488,212.7 480.5,208.4 480.7,207.3 488.2,211.6 			"/>
			<polygon class="st41" points="490.7,214.3 488.8,213.2 489,212.1 490.9,213.1 			"/>
			<polygon class="st41" points="482.1,212.2 480.1,211 480.3,209.9 482.3,211 			"/>
			<polygon class="st41" points="486.9,214.9 482.9,212.6 483.1,211.5 487.1,213.8 			"/>
			<polygon class="st41" points="489,216.1 487.7,215.4 487.9,214.3 489.1,215 			"/>
			<polygon class="st25" points="483.8,216 479.7,213.6 479.9,212.5 484,214.9 			"/>
			<polygon class="st41" points="487.6,218.2 484.6,216.4 484.8,215.3 487.8,217.1 			"/>
			<polygon class="st41" points="490.5,219.8 488.4,218.6 488.6,217.5 490.6,218.7 			"/>
			<polygon class="st41" points="480.7,217 479.3,216.2 479.4,215 480.8,215.9 			"/>
			<polygon class="st41" points="483.3,218.5 481.4,217.4 481.6,216.3 483.5,217.4 			"/>
			<polygon class="st25" points="487.1,220.7 484.1,219 484.3,217.8 487.3,219.6 			"/>
			<polygon class="st41" points="483.1,221.3 478.8,218.8 479,217.6 483.3,220.1 			"/>
			<polygon class="st41" points="487.9,224 483.9,221.7 484.1,220.6 488.1,222.9 			"/>
			<polygon class="st41" points="490,225.2 488.7,224.5 488.9,223.4 490.2,224.1 			"/>
			<polygon class="st41" points="492,226.4 490.7,225.6 490.9,224.5 492.2,225.2 			"/>
			<polygon class="st41" points="481,222.8 478.4,221.4 478.6,220.2 481.2,221.7 			"/>
			<polygon class="st25" points="495.2,208.4 498.7,210.4 498.9,209.3 495.4,207.2 			"/>
			<polygon class="st41" points="495.5,211.4 498.3,213 498.5,211.9 495.7,210.3 			"/>
			<polygon class="st41" points="495.9,214.4 497.9,215.6 498.1,214.5 496,213.3 			"/>
			<polygon class="st41" points="494.5,216.5 497.5,218.2 497.6,217.1 494.7,215.4 			"/>
			<polygon class="st41" points="495,219.6 497,220.8 497.2,219.7 495.2,218.5 			"/>
			<polygon class="st41" points="494,221.9 496.6,223.4 496.8,222.2 494.2,220.7 			"/>
			<polygon class="st41" points="494.8,225.1 496.2,226 496.4,224.8 495,224 			"/>
			<polygon class="st41" points="493,227 495.8,228.5 495.9,227.4 493.2,225.8 			"/>
			<polygon class="st41" points="492.8,229.6 495.3,231.1 495.5,230 492.9,228.5 			"/>
			<polygon class="st25" points="482.9,223.9 481.8,223.3 482,222.2 483,222.8 			"/>
			<polygon class="st41" points="486.1,225.8 483.7,224.4 483.8,223.3 486.3,224.7 			"/>
			<polygon class="st41" points="463.1,215.4 458,212.5 458.2,211.3 463.3,214.3 			"/>
			<polygon class="st41" points="465.8,217 463.9,215.9 464.1,214.8 466,215.8 			"/>
			<polygon class="st41" points="467.8,218.1 466.6,217.4 466.7,216.3 468,217 			"/>
			<polygon class="st41" points="460.4,216.7 457.5,215 457.7,213.9 460.5,215.5 			"/>
			<polygon class="st41" points="464.6,219.1 461.1,217.1 461.3,216 464.8,218 			"/>
			<polygon class="st41" points="466.6,220.3 465.4,219.6 465.6,218.4 466.8,219.2 			"/>
			<polygon class="st41" points="468.6,221.4 467.3,220.7 467.5,219.6 468.8,220.3 			"/>
			<polygon class="st41" points="459.2,218.8 457.1,217.6 457.3,216.5 459.3,217.7 			"/>
			<polygon class="st41" points="460.6,219.7 459.9,219.3 460.1,218.1 460.8,218.5 			"/>
			<polygon class="st41" points="462.7,220.8 461.4,220.1 461.6,219 462.9,219.7 			"/>
			<polygon class="st41" points="464.2,224.5 456.7,220.2 456.9,219.1 464.4,223.4 			"/>
			<polygon class="st41" points="466.8,226.1 465,225 465.2,223.9 467,224.9 			"/>
			<polygon class="st41" points="458.3,224 456.3,222.8 456.5,221.7 458.5,222.8 			"/>
			<polygon class="st41" points="463.1,226.7 459.1,224.4 459.3,223.3 463.3,225.6 			"/>
			<polygon class="st41" points="465.1,227.9 463.9,227.2 464,226.1 465.3,226.8 			"/>
			<polygon class="st41" points="460,227.8 455.8,225.4 456,224.3 460.2,226.7 			"/>
			<polygon class="st41" points="463.8,230 460.8,228.2 461,227.1 464,228.9 			"/>
			<polygon class="st41" points="466.6,231.6 464.6,230.4 464.8,229.3 466.8,230.5 			"/>
			<polygon class="st41" points="456.8,228.8 455.4,228 455.6,226.8 457,227.7 			"/>
			<polygon class="st41" points="459.5,230.3 457.6,229.2 457.8,228.1 459.7,229.2 			"/>
			<polygon class="st41" points="463.2,232.5 460.3,230.8 460.4,229.6 463.4,231.4 			"/>
			<polygon class="st41" points="459.3,233.1 455,230.6 455.2,229.4 459.5,231.9 			"/>
			<polygon class="st41" points="464.1,235.8 460.1,233.5 460.3,232.4 464.3,234.7 			"/>
			<polygon class="st41" points="466.2,237 464.9,236.3 465.1,235.2 466.4,235.9 			"/>
			<polygon class="st41" points="468.1,238.2 466.9,237.4 467.1,236.3 468.3,237 			"/>
			<polygon class="st41" points="457.1,234.6 454.6,233.2 454.8,232 457.3,233.5 			"/>
			<polygon class="st41" points="471.3,220.2 474.9,222.2 475.1,221.1 471.5,219 			"/>
			<polygon class="st41" points="471.7,223.2 474.5,224.8 474.7,223.7 471.9,222.1 			"/>
			<polygon class="st41" points="472,226.2 474.1,227.4 474.2,226.3 472.2,225.1 			"/>
			<polygon class="st41" points="470.7,228.3 473.6,230 473.8,228.9 470.9,227.2 			"/>
			<polygon class="st41" points="471.2,231.4 473.2,232.6 473.4,231.5 471.4,230.3 			"/>
			<polygon class="st41" points="470.2,233.7 472.8,235.2 473,234 470.4,232.6 			"/>
			<polygon class="st41" points="471,237 472.4,237.8 472.5,236.6 471.1,235.8 			"/>
			<polygon class="st41" points="469.2,238.8 471.9,240.4 472.1,239.2 469.4,237.6 			"/>
			<polygon class="st41" points="468.9,241.4 471.5,242.9 471.7,241.8 469.1,240.3 			"/>
			<polygon class="st41" points="459,235.7 457.9,235.1 458.1,234 459.2,234.6 			"/>
			<polygon class="st41" points="462.3,237.6 459.8,236.2 460,235.1 462.5,236.5 			"/>
			<polygon class="st41" points="483.1,226.9 478,224 478.2,222.8 483.3,225.8 			"/>
			<polygon class="st41" points="485.8,228.5 483.9,227.4 484.1,226.3 486,227.3 			"/>
			<polygon class="st41" points="487.8,229.6 486.6,228.9 486.7,227.8 488,228.5 			"/>
			<polygon class="st41" points="480.4,228.2 477.5,226.5 477.7,225.4 480.5,227 			"/>
			<polygon class="st41" points="484.6,230.6 481.1,228.6 481.3,227.5 484.8,229.5 			"/>
			<polygon class="st41" points="486.6,231.8 485.4,231.1 485.6,229.9 486.8,230.7 			"/>
			<polygon class="st41" points="488.6,232.9 487.3,232.2 487.5,231.1 488.8,231.8 			"/>
			<polygon class="st41" points="479.2,230.3 477.1,229.1 477.3,228 479.3,229.2 			"/>
			<polygon class="st41" points="480.6,231.2 479.9,230.8 480.1,229.6 480.8,230 			"/>
			<polygon class="st41" points="482.7,232.3 481.4,231.6 481.6,230.5 482.9,231.2 			"/>
			<polygon class="st41" points="484.2,236.1 476.7,231.7 476.9,230.6 484.4,234.9 			"/>
			<polygon class="st41" points="486.8,237.6 485,236.5 485.2,235.4 487,236.4 			"/>
			<polygon class="st41" points="478.3,235.5 476.3,234.3 476.5,233.2 478.5,234.3 			"/>
			<polygon class="st41" points="483.1,238.2 479.1,235.9 479.3,234.8 483.3,237.1 			"/>
			<polygon class="st41" points="485.1,239.4 483.9,238.7 484,237.6 485.3,238.3 			"/>
			<polygon class="st41" points="480,239.3 475.8,236.9 476,235.8 480.2,238.2 			"/>
			<polygon class="st41" points="483.8,241.5 480.8,239.8 481,238.6 484,240.4 			"/>
			<polygon class="st41" points="486.6,243.1 484.6,241.9 484.8,240.8 486.8,242 			"/>
			<polygon class="st41" points="476.8,240.3 475.4,239.5 475.6,238.4 477,239.2 			"/>
			<polygon class="st41" points="479.5,241.8 477.6,240.8 477.8,239.6 479.7,240.7 			"/>
			<polygon class="st41" points="483.2,244 480.3,242.3 480.4,241.1 483.4,242.9 			"/>
			<polygon class="st41" points="479.3,244.6 475,242.1 475.2,240.9 479.5,243.4 			"/>
			<polygon class="st41" points="484.1,247.3 480.1,245 480.3,243.9 484.3,246.2 			"/>
			<polygon class="st41" points="486.2,248.5 484.9,247.8 485.1,246.7 486.4,247.4 			"/>
			<polygon class="st41" points="488.1,249.7 486.9,248.9 487.1,247.8 488.3,248.5 			"/>
			<polygon class="st41" points="477.1,246.2 474.6,244.7 474.8,243.5 477.3,245 			"/>
			<polygon class="st41" points="491.3,231.7 494.9,233.7 495.1,232.6 491.5,230.5 			"/>
			<polygon class="st41" points="491.7,234.7 494.5,236.3 494.7,235.2 491.9,233.6 			"/>
			<polygon class="st41" points="492,237.7 494.1,238.9 494.2,237.8 492.2,236.6 			"/>
			<polygon class="st41" points="490.7,239.8 493.6,241.5 493.8,240.4 490.9,238.7 			"/>
			<polygon class="st41" points="491.2,242.9 493.2,244.1 493.4,243 491.4,241.8 			"/>
			<polygon class="st41" points="490.2,245.2 492.8,246.7 493,245.5 490.4,244.1 			"/>
			<polygon class="st41" points="490.9,248.5 492.4,249.3 492.5,248.1 491.1,247.3 			"/>
			<polygon class="st41" points="489.2,250.3 491.9,251.9 492.1,250.7 489.4,249.2 			"/>
			<polygon class="st41" points="488.9,253 491.5,254.4 491.7,253.3 489.1,251.8 			"/>
			<polygon class="st41" points="479,247.2 477.9,246.6 478.1,245.5 479.2,246.1 			"/>
			<polygon class="st41" points="482.3,249.1 479.8,247.7 480,246.6 482.5,248 			"/>
		</g>
		<g>
			<polygon class="st41" points="509.6,216 504.5,213 504.6,211.9 509.8,214.8 			"/>
			<polygon class="st41" points="512.3,217.5 510.4,216.4 510.6,215.3 512.4,216.4 			"/>
			<polygon class="st41" points="514.3,218.7 513,218 513.2,216.8 514.5,217.6 			"/>
			<polygon class="st41" points="506.8,217.2 504,215.6 504.2,214.5 507,216.1 			"/>
			<polygon class="st41" points="511.1,219.7 507.6,217.7 507.8,216.5 511.3,218.5 			"/>
			<polygon class="st41" points="513.1,220.8 511.9,220.1 512,219 513.3,219.7 			"/>
			<polygon class="st41" points="515.1,222 513.8,221.2 514,220.1 515.3,220.8 			"/>
			<polygon class="st25" points="505.6,219.3 503.6,218.2 503.8,217 505.8,218.2 			"/>
			<polygon class="st25" points="507.1,220.2 506.4,219.8 506.6,218.7 507.3,219.1 			"/>
			<polygon class="st41" points="509.2,221.4 507.9,220.7 508.1,219.5 509.4,220.3 			"/>
			<polygon class="st41" points="510.7,225.1 503.2,220.8 503.4,219.6 510.9,224 			"/>
			<polygon class="st41" points="513.3,226.6 511.5,225.6 511.7,224.4 513.5,225.5 			"/>
			<polygon class="st41" points="504.8,224.5 502.8,223.4 502.9,222.2 505,223.4 			"/>
			<polygon class="st41" points="509.6,227.3 505.6,225 505.8,223.8 509.7,226.1 			"/>
			<polygon class="st41" points="511.6,228.5 510.3,227.7 510.5,226.6 511.8,227.3 			"/>
			<polygon class="st41" points="506.5,228.3 502.3,225.9 502.5,224.8 506.7,227.2 			"/>
			<polygon class="st25" points="510.3,230.5 507.3,228.8 507.5,227.7 510.5,229.4 			"/>
			<polygon class="st41" points="513.1,232.2 511.1,231 511.3,229.9 513.3,231 			"/>
			<polygon class="st41" points="503.3,229.3 501.9,228.5 502.1,227.4 503.5,228.2 			"/>
			<polygon class="st41" points="506,230.9 504.1,229.8 504.3,228.7 506.1,229.7 			"/>
			<polygon class="st41" points="509.7,233 506.7,231.3 506.9,230.2 509.9,231.9 			"/>
			<polygon class="st41" points="505.8,233.6 501.5,231.1 501.7,230 506,232.5 			"/>
			<polygon class="st41" points="510.6,236.4 506.6,234.1 506.8,232.9 510.8,235.3 			"/>
			<polygon class="st25" points="512.7,237.6 511.4,236.8 511.6,235.7 512.8,236.4 			"/>
			<polygon class="st41" points="514.6,238.7 513.4,238 513.5,236.8 514.8,237.6 			"/>
			<polygon class="st41" points="503.6,235.2 501.1,233.7 501.2,232.6 503.8,234.1 			"/>
			<polygon class="st25" points="517.8,220.7 521.4,222.8 521.6,221.6 518,219.6 			"/>
			<polygon class="st41" points="518.2,223.7 521,225.4 521.2,224.2 518.3,222.6 			"/>
			<polygon class="st41" points="518.5,226.8 520.5,228 520.7,226.8 518.7,225.7 			"/>
			<polygon class="st41" points="517.2,228.8 520.1,230.5 520.3,229.4 517.3,227.7 			"/>
			<polygon class="st41" points="517.7,232 519.7,233.1 519.9,232 517.8,230.8 			"/>
			<polygon class="st41" points="516.7,234.2 519.3,235.7 519.5,234.6 516.9,233.1 			"/>
			<polygon class="st41" points="517.4,237.5 518.8,238.3 519,237.2 517.6,236.4 			"/>
			<polygon class="st41" points="515.7,239.3 518.4,240.9 518.6,239.8 515.9,238.2 			"/>
			<polygon class="st41" points="515.4,242 518,243.5 518.2,242.4 515.6,240.9 			"/>
			<polygon class="st41" points="505.5,236.3 504.4,235.6 504.6,234.5 505.7,235.1 			"/>
			<polygon class="st41" points="508.8,238.2 506.3,236.7 506.5,235.6 509,237 			"/>
			<polygon class="st41" points="529.6,227.5 524.5,224.5 524.6,223.4 529.8,226.4 			"/>
			<polygon class="st41" points="532.3,229 530.4,227.9 530.6,226.8 532.4,227.9 			"/>
			<polygon class="st25" points="534.3,230.2 533,229.5 533.2,228.3 534.5,229.1 			"/>
			<polygon class="st41" points="526.8,228.7 524,227.1 524.2,226 527,227.6 			"/>
			<polygon class="st41" points="531.1,231.2 527.6,229.2 527.8,228 531.3,230 			"/>
			<polygon class="st25" points="533.1,232.3 531.9,231.6 532,230.5 533.3,231.2 			"/>
			<polygon class="st41" points="535.1,233.5 533.8,232.7 534,231.6 535.3,232.3 			"/>
			<polygon class="st41" points="525.6,230.9 523.6,229.7 523.8,228.5 525.8,229.7 			"/>
			<polygon class="st41" points="527.1,231.7 526.4,231.3 526.6,230.2 527.3,230.6 			"/>
			<polygon class="st41" points="529.2,232.9 527.9,232.2 528.1,231 529.4,231.8 			"/>
			<polygon class="st41" points="530.7,236.6 523.2,232.3 523.4,231.1 530.9,235.5 			"/>
			<polygon class="st41" points="533.3,238.1 531.5,237.1 531.7,235.9 533.5,237 			"/>
			<polygon class="st41" points="524.8,236 522.8,234.9 522.9,233.7 525,234.9 			"/>
			<polygon class="st41" points="529.6,238.8 525.6,236.5 525.8,235.4 529.7,237.7 			"/>
			<polygon class="st41" points="531.6,240 530.3,239.2 530.5,238.1 531.8,238.8 			"/>
			<polygon class="st25" points="526.5,239.8 522.3,237.4 522.5,236.3 526.7,238.7 			"/>
			<polygon class="st41" points="530.3,242 527.3,240.3 527.5,239.2 530.5,240.9 			"/>
			<polygon class="st41" points="533.1,243.7 531.1,242.5 531.3,241.4 533.3,242.5 			"/>
			<polygon class="st41" points="523.3,240.8 521.9,240 522.1,238.9 523.5,239.7 			"/>
			<polygon class="st41" points="526,242.4 524.1,241.3 524.3,240.2 526.1,241.2 			"/>
			<polygon class="st25" points="529.7,244.6 526.7,242.8 526.9,241.7 529.9,243.4 			"/>
			<polygon class="st41" points="525.8,245.1 521.5,242.6 521.7,241.5 526,244 			"/>
			<polygon class="st41" points="530.6,247.9 526.6,245.6 526.8,244.4 530.8,246.8 			"/>
			<polygon class="st41" points="532.7,249.1 531.4,248.3 531.6,247.2 532.8,247.9 			"/>
			<polygon class="st41" points="534.6,250.2 533.4,249.5 533.5,248.3 534.8,249.1 			"/>
			<polygon class="st41" points="523.6,246.7 521.1,245.2 521.2,244.1 523.8,245.6 			"/>
			<polygon class="st25" points="537.8,232.2 541.4,234.3 541.6,233.2 538,231.1 			"/>
			<polygon class="st41" points="538.2,235.3 541,236.9 541.2,235.7 538.3,234.1 			"/>
			<polygon class="st41" points="538.5,238.3 540.5,239.5 540.7,238.3 538.7,237.2 			"/>
			<polygon class="st41" points="537.2,240.3 540.1,242.1 540.3,240.9 537.3,239.2 			"/>
			<polygon class="st41" points="537.7,243.5 539.7,244.6 539.9,243.5 537.8,242.3 			"/>
			<polygon class="st41" points="536.7,245.7 539.3,247.2 539.5,246.1 536.9,244.6 			"/>
			<polygon class="st41" points="537.4,249 538.8,249.8 539,248.7 537.6,247.9 			"/>
			<polygon class="st41" points="535.7,250.8 538.4,252.4 538.6,251.3 535.9,249.7 			"/>
			<polygon class="st41" points="535.4,253.5 538,255 538.2,253.9 535.6,252.4 			"/>
			<polygon class="st25" points="525.5,247.8 524.4,247.2 524.6,246 525.7,246.7 			"/>
			<polygon class="st41" points="528.8,249.7 526.3,248.2 526.5,247.1 529,248.5 			"/>
			<polygon class="st41" points="505.8,239.3 500.6,236.3 500.8,235.2 506,238.2 			"/>
			<polygon class="st41" points="508.4,240.8 506.6,239.7 506.8,238.6 508.6,239.7 			"/>
			<polygon class="st41" points="510.5,242 509.2,241.3 509.4,240.1 510.7,240.9 			"/>
			<polygon class="st41" points="503,240.5 500.2,238.9 500.4,237.8 503.2,239.4 			"/>
			<polygon class="st41" points="507.2,243 503.8,241 504,239.8 507.4,241.8 			"/>
			<polygon class="st41" points="509.3,244.1 508,243.4 508.2,242.3 509.5,243 			"/>
			<polygon class="st41" points="511.2,245.3 510,244.5 510.2,243.4 511.4,244.1 			"/>
			<polygon class="st41" points="501.8,242.7 499.8,241.5 500,240.4 502,241.5 			"/>
			<polygon class="st41" points="503.3,243.5 502.6,243.1 502.8,242 503.5,242.4 			"/>
			<polygon class="st41" points="505.3,244.7 504.1,244 504.3,242.8 505.5,243.6 			"/>
			<polygon class="st41" points="506.9,248.4 499.4,244.1 499.5,242.9 507,247.3 			"/>
			<polygon class="st41" points="509.5,249.9 507.6,248.9 507.8,247.7 509.7,248.8 			"/>
			<polygon class="st41" points="501,247.8 498.9,246.7 499.1,245.5 501.1,246.7 			"/>
			<polygon class="st41" points="505.7,250.6 501.7,248.3 501.9,247.2 505.9,249.5 			"/>
			<polygon class="st41" points="507.8,251.8 506.5,251 506.7,249.9 508,250.6 			"/>
			<polygon class="st41" points="502.7,251.7 498.5,249.2 498.7,248.1 502.8,250.5 			"/>
			<polygon class="st41" points="506.5,253.8 503.4,252.1 503.6,251 506.6,252.7 			"/>
			<polygon class="st41" points="509.3,255.5 507.2,254.3 507.4,253.2 509.5,254.3 			"/>
			<polygon class="st41" points="499.5,252.6 498.1,251.8 498.3,250.7 499.7,251.5 			"/>
			<polygon class="st41" points="502.1,254.2 500.3,253.1 500.5,252 502.3,253 			"/>
			<polygon class="st41" points="505.9,256.4 502.9,254.6 503.1,253.5 506.1,255.2 			"/>
			<polygon class="st41" points="502,256.9 497.6,254.4 497.8,253.3 502.1,255.8 			"/>
			<polygon class="st41" points="506.8,259.7 502.7,257.4 502.9,256.2 507,258.6 			"/>
			<polygon class="st41" points="508.8,260.9 507.6,260.1 507.7,259 509,259.7 			"/>
			<polygon class="st41" points="510.8,262 509.5,261.3 509.7,260.2 511,260.9 			"/>
			<polygon class="st41" points="499.8,258.5 497.2,257 497.4,255.9 500,257.4 			"/>
			<polygon class="st41" points="514,244 517.6,246.1 517.7,245 514.2,242.9 			"/>
			<polygon class="st41" points="514.3,247.1 517.1,248.7 517.3,247.5 514.5,245.9 			"/>
			<polygon class="st41" points="514.7,250.1 516.7,251.3 516.9,250.1 514.9,249 			"/>
			<polygon class="st41" points="513.3,252.1 516.3,253.9 516.5,252.7 513.5,251 			"/>
			<polygon class="st41" points="513.8,255.3 515.9,256.4 516,255.3 514,254.1 			"/>
			<polygon class="st41" points="512.9,257.5 515.4,259 515.6,257.9 513,256.4 			"/>
			<polygon class="st41" points="513.6,260.8 515,261.6 515.2,260.5 513.8,259.7 			"/>
			<polygon class="st41" points="511.9,262.6 514.6,264.2 514.8,263.1 512,261.5 			"/>
			<polygon class="st41" points="511.6,265.3 514.2,266.8 514.3,265.7 511.8,264.2 			"/>
			<polygon class="st41" points="501.7,259.6 500.6,259 500.8,257.8 501.9,258.5 			"/>
			<polygon class="st41" points="504.9,261.5 502.5,260 502.7,258.9 505.1,260.3 			"/>
			<polygon class="st41" points="525.8,250.8 520.6,247.8 520.8,246.7 526,249.7 			"/>
			<polygon class="st41" points="528.4,252.3 526.6,251.2 526.8,250.1 528.6,251.2 			"/>
			<polygon class="st41" points="530.5,253.5 529.2,252.8 529.4,251.6 530.7,252.4 			"/>
			<polygon class="st41" points="523,252 520.2,250.4 520.4,249.3 523.2,250.9 			"/>
			<polygon class="st41" points="527.2,254.5 523.8,252.5 524,251.3 527.4,253.3 			"/>
			<polygon class="st41" points="529.3,255.7 528,254.9 528.2,253.8 529.5,254.5 			"/>
			<polygon class="st41" points="531.2,256.8 530,256 530.2,254.9 531.4,255.6 			"/>
			<polygon class="st41" points="521.8,254.2 519.8,253 520,251.9 522,253 			"/>
			<polygon class="st41" points="523.3,255 522.6,254.6 522.8,253.5 523.5,253.9 			"/>
			<polygon class="st41" points="525.3,256.2 524.1,255.5 524.3,254.3 525.5,255.1 			"/>
			<polygon class="st41" points="526.9,259.9 519.4,255.6 519.5,254.4 527,258.8 			"/>
			<polygon class="st41" points="529.5,261.4 527.6,260.4 527.8,259.2 529.7,260.3 			"/>
			<polygon class="st41" points="521,259.3 518.9,258.2 519.1,257 521.1,258.2 			"/>
			<polygon class="st41" points="525.7,262.1 521.7,259.8 521.9,258.7 525.9,261 			"/>
			<polygon class="st41" points="527.8,263.3 526.5,262.6 526.7,261.4 528,262.1 			"/>
			<polygon class="st41" points="522.7,263.2 518.5,260.8 518.7,259.6 522.8,262 			"/>
			<polygon class="st41" points="526.5,265.3 523.4,263.6 523.6,262.5 526.6,264.2 			"/>
			<polygon class="st41" points="529.3,267 527.2,265.8 527.4,264.7 529.5,265.8 			"/>
			<polygon class="st41" points="519.5,264.2 518.1,263.3 518.3,262.2 519.7,263 			"/>
			<polygon class="st41" points="522.1,265.7 520.3,264.6 520.5,263.5 522.3,264.5 			"/>
			<polygon class="st41" points="525.9,267.9 522.9,266.1 523.1,265 526.1,266.7 			"/>
			<polygon class="st41" points="522,268.4 517.6,265.9 517.8,264.8 522.1,267.3 			"/>
			<polygon class="st41" points="526.8,271.2 522.7,268.9 522.9,267.7 527,270.1 			"/>
			<polygon class="st41" points="528.8,272.4 527.6,271.7 527.7,270.5 529,271.3 			"/>
			<polygon class="st41" points="530.8,273.5 529.5,272.8 529.7,271.7 531,272.4 			"/>
			<polygon class="st41" points="519.8,270 517.2,268.5 517.4,267.4 520,268.9 			"/>
			<polygon class="st41" points="534,255.5 537.6,257.6 537.7,256.5 534.2,254.4 			"/>
			<polygon class="st41" points="534.3,258.6 537.1,260.2 537.3,259.1 534.5,257.4 			"/>
			<polygon class="st41" points="534.7,261.6 536.7,262.8 536.9,261.6 534.9,260.5 			"/>
			<polygon class="st41" points="533.3,263.7 536.3,265.4 536.5,264.2 533.5,262.5 			"/>
			<polygon class="st41" points="533.8,266.8 535.9,267.9 536,266.8 534,265.6 			"/>
			<polygon class="st41" points="532.9,269 535.4,270.5 535.6,269.4 533,267.9 			"/>
			<polygon class="st41" points="533.6,272.3 535,273.1 535.2,272 533.8,271.2 			"/>
			<polygon class="st41" points="531.9,274.1 534.6,275.7 534.8,274.6 532,273 			"/>
			<polygon class="st41" points="531.6,276.8 534.2,278.3 534.3,277.2 531.8,275.7 			"/>
			<polygon class="st41" points="521.7,271.1 520.6,270.5 520.8,269.3 521.9,270 			"/>
			<polygon class="st41" points="524.9,273 522.5,271.6 522.7,270.4 525.1,271.8 			"/>
		</g>
	</g>
	<g>
		<g>
			<path class="st25" d="M481.2,297.5c-6.5,0-12.5-1.4-17.1-4.1l0,0c-4.6-2.7-7.2-6.3-7.2-10.1c0-3.8,2.6-7.4,7.2-10.1
				c9.4-5.4,24.7-5.4,34.2,0c4.6,2.7,7.2,6.3,7.2,10.1c0,3.8-2.6,7.4-7.2,10.1C493.7,296.1,487.6,297.5,481.2,297.5z M481.2,269.5
				c-6.1,0-12.3,1.3-16.9,4c-4.5,2.6-7,6.1-7,9.8s2.5,7.2,7,9.8l0,0c4.5,2.6,10.5,4,16.9,4c6.4,0,12.4-1.4,16.9-4
				c4.5-2.6,7-6.1,7-9.8c0-3.7-2.5-7.2-7-9.8C493.4,270.8,487.3,269.5,481.2,269.5z"/>
			<g>
				<g class="st10">
					<path class="st40" d="M468.8,253.3c1.5,0.6,2.6,0.4,2.5-0.4c-0.1-0.8-1.4-1.9-2.9-2.5c-1.5-0.6-2.6-0.4-2.5,0.4
						C466.1,251.6,467.3,252.7,468.8,253.3z"/>
				</g>
				<g class="st10">
					<path class="st40" d="M468.8,265.5c1.5,0.6,2.6,0.4,2.5-0.4c-0.1-0.8-1.4-1.9-2.9-2.5c-1.5-0.6-2.6-0.4-2.5,0.4
						C466.1,263.8,467.3,264.9,468.8,265.5z"/>
				</g>
				<g class="st10">
					<path class="st40" d="M468.7,277.8c1.5,0.6,2.6,0.4,2.5-0.4c-0.1-0.8-1.4-1.9-2.9-2.5c-1.5-0.6-2.6-0.4-2.5,0.4
						C466,276.1,467.3,277.2,468.7,277.8z"/>
				</g>
				<g class="st10">
					
						<ellipse transform="matrix(-0.5809 0.814 -0.814 -0.5809 938.3043 16.3098)" class="st40" cx="465" cy="249.7" rx="0.6" ry="0.8"/>
				</g>
				<g class="st10">
					
						<ellipse transform="matrix(-0.5809 0.814 -0.814 -0.5809 948.3072 35.7368)" class="st40" cx="465" cy="262" rx="0.6" ry="0.8"/>
				</g>
				<g class="st10">
					
						<ellipse transform="matrix(-0.5809 0.814 -0.814 -0.5809 958.2733 55.0922)" class="st40" cx="465" cy="274.3" rx="0.6" ry="0.8"/>
				</g>
			</g>
		</g>
		<g>
			<path class="st25" d="M467.8,309.5c-0.4,0-0.7-0.1-1-0.2l0,0l-48-27.7c-0.3-0.2-0.4-0.4-0.4-0.6c0-0.3,0.2-0.6,0.6-0.8l10-5.8
				c0.7-0.4,1.6-0.4,2.2-0.1l48,27.7c0.3,0.2,0.4,0.4,0.4,0.6c0,0.3-0.2,0.6-0.6,0.8l-10,5.8C468.7,309.4,468.3,309.5,467.8,309.5z
				 M467,309c0.5,0.3,1.4,0.2,1.9-0.1l10-5.8c0.3-0.2,0.4-0.4,0.4-0.6c0-0.2-0.2-0.3-0.3-0.4l-48-27.7c-0.5-0.3-1.4-0.2-1.9,0.1
				l-10,5.8c-0.3,0.2-0.4,0.4-0.4,0.6c0,0.2,0.2,0.3,0.3,0.4L467,309z"/>
			<g>
				
					<linearGradient id="SVGID_27_" gradientUnits="userSpaceOnUse" x1="-351.6593" y1="-249.272" x2="-294.0765" y2="-249.272" gradientTransform="matrix(-0.866 -0.5 0 1.1547 175.5006 399.0382)">
					<stop  offset="0" style="stop-color:#5761D7"/>
					<stop  offset="0.1779" style="stop-color:#5C66D9"/>
					<stop  offset="0.3876" style="stop-color:#6A73DF"/>
					<stop  offset="0.6134" style="stop-color:#8289E8"/>
					<stop  offset="0.849" style="stop-color:#A3A7F5"/>
					<stop  offset="1" style="stop-color:#BCBEFF"/>
				</linearGradient>
				<path class="st42" d="M438.2,258c1.3,0.7,2.5,1.8,3.5,3c1.5-4.7,6-6.2,11.3-3.1c4.4,2.5,8.2,7.5,10.3,12.8
					c0.7,0,1.4,0.2,2.2,0.7c2.9,1.7,5.2,5.7,5.2,9c0,0.1,0,0.1,0,0.2c0.8,0.1,1.7,0.3,2.7,0.9c3.7,2.1,6.7,7.3,6.7,11.5
					c0,4.2-3,6-6.7,3.8l-35.2-20.3c-4.4-2.6-8-8.8-8-13.9S433.8,255.4,438.2,258z"/>
				
					<radialGradient id="SVGID_28_" cx="-153.0276" cy="294.8091" r="23.7873" fx="-175.4601" fy="286.8957" gradientTransform="matrix(-1 0 0 1.0004 315.2906 -22.8514)" gradientUnits="userSpaceOnUse">
					<stop  offset="0" style="stop-color:#2B237C"/>
					<stop  offset="1" style="stop-color:#180D5B"/>
				</radialGradient>
				<path class="st43" d="M438.2,258c0.7,0.4,1.4,0.9,2.1,1.5l3.9-2.3l0,0c2.2-1.5,5.3-1.5,8.8,0.6c4.4,2.5,8.2,7.5,10.3,12.8
					c0.7,0,1.4,0.2,2.2,0.7c2.9,1.7,5.2,5.7,5.2,9c0,0.1,0,0.1,0,0.2c0.8,0.1,1.7,0.3,2.7,0.9c3.7,2.1,6.7,7.3,6.7,11.5
					c0,2.1-0.7,3.6-1.9,4.3l0,0l0,0c0,0,0,0,0,0l-9.6,5.6l-2.1-10.1l-28.1-16.3c-4.4-2.6-8-8.8-8-13.9S433.8,255.4,438.2,258z"/>
				
					<linearGradient id="SVGID_29_" gradientUnits="userSpaceOnUse" x1="-164.7469" y1="279.538" x2="-107.4277" y2="279.538" gradientTransform="matrix(-1 0 0 1 315.2906 0)">
					<stop  offset="0" style="stop-color:#5761D7"/>
					<stop  offset="0.1779" style="stop-color:#5C66D9"/>
					<stop  offset="0.3876" style="stop-color:#6A73DF"/>
					<stop  offset="0.6134" style="stop-color:#8289E8"/>
					<stop  offset="0.849" style="stop-color:#A3A7F5"/>
					<stop  offset="1" style="stop-color:#BCBEFF"/>
				</linearGradient>
				<path class="st44" d="M422.7,263.1l9.8-5.7l0,0c1.5-0.9,3.5-0.8,5.7,0.5c0.7,0.4,1.4,0.9,2.1,1.5l3.9-2.3l0,0
					c2.2-1.5,5.3-1.5,8.8,0.6c4.4,2.5,8.2,7.5,10.3,12.8c0.7,0,1.4,0.2,2.2,0.7c2.9,1.7,5.2,5.7,5.2,9c0,0.1,0,0.1,0,0.2
					c0.8,0.1,1.7,0.3,2.7,0.9c3.7,2.1,6.7,7.3,6.7,11.5c0,2.1-0.7,3.6-1.9,4.3l0,0l0,0c0,0,0,0,0,0l-9.6,5.6l-2.1-10.1l-28.1-16.3
					c-3.6-2.1-6.6-6.6-7.7-10.9L422.7,263.1z"/>
				
					<linearGradient id="SVGID_30_" gradientUnits="userSpaceOnUse" x1="-340.4974" y1="-239.578" x2="-282.9146" y2="-239.578" gradientTransform="matrix(-0.866 -0.5 0 1.1547 175.5006 399.0382)">
					<stop  offset="0" style="stop-color:#C0BFF6"/>
					<stop  offset="0.2938" style="stop-color:#C5C4F7"/>
					<stop  offset="0.6399" style="stop-color:#D3D2F9"/>
					<stop  offset="1" style="stop-color:#E9E9FD"/>
				</linearGradient>
				<path class="st45" d="M428.5,263.6c1.3,0.7,2.5,1.8,3.5,3c1.5-4.7,6-6.2,11.3-3.1c4.4,2.5,8.2,7.5,10.3,12.8
					c0.7,0,1.4,0.2,2.2,0.7c2.9,1.7,5.2,5.7,5.2,9c0,0.1,0,0.1,0,0.2c0.8,0.1,1.7,0.3,2.7,0.9c3.7,2.1,6.7,7.3,6.7,11.5
					c0,4.2-3,6-6.7,3.8l-35.2-20.3c-4.4-2.6-8-8.8-8-13.9C420.5,263.1,424.1,261,428.5,263.6z"/>
				<g>
					<path class="st19" d="M432.1,266.5c-1.1-1.2-2.3-2.2-3.5-3c-2.7-1.6-5.1-1.4-6.6,0.1c1.4-1.8,3.9-2.1,6.8-0.4
						c1.2,0.7,2.4,1.7,3.4,2.9C432.1,266.3,432.1,266.4,432.1,266.5z"/>
					<path class="st19" d="M470.4,298.6c0-4.2-3-9.4-6.7-11.5c-1-0.6-1.9-0.8-2.7-0.9c0-0.1,0-0.1,0-0.2c0-3.3-2.3-7.4-5.2-9
						c-0.8-0.5-1.5-0.7-2.2-0.7c-2-5.3-5.9-10.3-10.3-12.8c-4-2.3-7.6-2-9.7,0.3c2.1-2.6,5.8-3,10-0.6c4.4,2.5,8.2,7.5,10.3,12.8
						c0.7,0,1.4,0.2,2.2,0.7c2.9,1.7,5.2,5.7,5.2,9c0,0.1,0,0.1,0,0.2c0.8,0.1,1.7,0.3,2.7,0.9c3.7,2.1,6.7,7.3,6.7,11.5
						c0,1.7-0.5,2.9-1.2,3.7C470,301.3,470.4,300.1,470.4,298.6z"/>
				</g>
			</g>
		</g>
	</g>
</g>
</svg>
