<?xml version="1.0" encoding="utf-8"?>
<!-- Generator: Adobe Illustrator 19.0.0, SVG Export Plug-In . SVG Version: 6.00 Build 0)  -->
<svg version="1.1" id="Ñëîé_1" xmlns="http://www.w3.org/2000/svg" xmlns:xlink="http://www.w3.org/1999/xlink" x="0px" y="0px"
	 viewBox="0 0 600 400" style="enable-background:new 0 0 600 400;" xml:space="preserve">
<style type="text/css">
	.st0{fill:#5793CE;}
	.st1{fill:#396CAA;}
	.st2{fill:#D4ECFF;}
	.st3{fill:#B2D3EA;}
	.st4{fill:#FAFDFF;}
	.st5{fill:#173D7A;}
	.st6{fill:#FFFFFF;}
	.st7{opacity:0.4;fill:#D4ECFF;}
	.st8{fill:#274F89;}
</style>
<path class="st0" d="M272.5,298.3c-0.2,0-0.3,0-0.5-0.1l-21.6-11.2c-0.8-0.4-1.3-1.2-1.3-2.1c0-0.9,0.5-1.7,1.3-2.1l21.4-11.7
	c0.2-0.1,0.2-0.3,0.2-0.4c0-0.1,0-0.3-0.2-0.4l-21.2-11.8c-0.8-0.4-1.2-1.2-1.2-2.1c0-0.9,0.4-1.7,1.2-2.1l29.8-17.9
	c2.2-1.3,5-1.4,7.3-0.1l16.6,9.4c0.5,0.3,0.6,0.9,0.4,1.4c-0.3,0.5-0.9,0.6-1.4,0.4l-16.6-9.4c-1.6-0.9-3.6-0.9-5.3,0.1l-29.8,17.9
	c-0.2,0.1-0.2,0.3-0.2,0.4c0,0.1,0,0.3,0.2,0.4l21.2,11.8c0.8,0.4,1.2,1.2,1.2,2.1c0,0.9-0.5,1.7-1.3,2.1l-21.4,11.7
	c-0.2,0.1-0.2,0.3-0.2,0.4c0,0.1,0,0.3,0.2,0.4l21.6,11.2c0.5,0.3,0.7,0.9,0.4,1.3C273.2,298.1,272.9,298.3,272.5,298.3z"/>
<g>
	<g>
		<g>
			<g>
				
					<rect x="268.5" y="291.5" transform="matrix(-0.4974 0.8675 -0.8675 -0.4974 663.9898 209.851)" class="st0" width="5.4" height="11.6"/>
				<path class="st0" d="M264.3,295.5c0-1.2,0.8-2.7,1.9-3.3c1-0.6,1.9-0.1,1.9,1.1c0,1.2-0.8,2.7-1.9,3.3
					C265.2,297.2,264.3,296.7,264.3,295.5z"/>
			</g>
			<g>
				
					<rect x="278" y="294.6" transform="matrix(-0.4974 0.8675 -0.8675 -0.4974 686.2049 209.755)" class="st0" width="8.7" height="18.1"/>
				<path class="st1" d="M275.9,296.9l-3.4-1.9c-1.4,1-2.5,2.9-2.7,4.7l3.4,1.9C274.6,300.5,275.8,298.6,275.9,296.9z"/>
				<path class="st0" d="M271.4,300.9c0-2,1.4-4.3,3.1-5.3c1.7-1,3.1-0.2,3.1,1.8c0,2-1.4,4.3-3.1,5.3
					C272.8,303.7,271.4,302.9,271.4,300.9z"/>
			</g>
		</g>
	</g>
	<path class="st2" d="M267.5,294.2c-0.5-0.3-0.5-0.7,0-1c0.5-0.3,1.3-0.3,1.8,0s0.5,0.7,0,1S268,294.5,267.5,294.2z"/>
</g>
<g>
	<g>
		<g>
			<g>
				<path class="st3" d="M212.7,225.5l-53-30.2c-1.9-1.1-1.7-3.1,0.5-4.4l30.5-17.6c2.2-1.3,5.6-1.4,7.6-0.3l53,30.2
					c1.9,1.1,1.7,3.1-0.5,4.4l-30.5,17.6C218,226.5,214.6,226.6,212.7,225.5z"/>
				<path class="st1" d="M256,193L256,193V69.3l-49.2-12.9l-9.1-5.2c-2.1-1.2-5.7-1-8.1,0.3l-8.5,4.9l-26.2,0l7.8,119.4
					c-0.1,0.8,0.4,1.6,1.4,2.2l49.1,37c2.1,1.2,5.7,1,8.1-0.3l32.7-18.9C255.4,195,256.1,194,256,193z"/>
				<path class="st2" d="M194,50.4c-1.5,0-3.1,0.4-4.3,1.1l-8.5,4.9l-26.2,0v124c-0.1,0.8,0.4,1.6,1.4,2.2l56.8,32.4
					c1,0.6,2.4,0.8,3.8,0.8L217.5,91L194,50.4z"/>
				<path class="st0" d="M213.7,215.3c1.8,0.8,4.4,0.7,6.5-0.1V89.6h-6.5V215.3z"/>
				<path class="st2" d="M213.2,91l-56.8-32.4c-2.1-1.2-1.8-3.3,0.6-4.7l32.7-18.9c2.4-1.4,6-1.5,8.1-0.3l56.8,32.4
					c2.1,1.2,1.8,3.3-0.6,4.7l-32.7,18.9C218.9,92.1,215.3,92.2,213.2,91z"/>
				<path class="st4" d="M254,69.5l-32.7,18.9c-2.4,1.4-6,1.5-8.1,0.3l-56.8-32.4c-0.5-0.3-0.8-0.6-1-0.9c-0.7,1.1-0.4,2.4,1,3.2
					L213.2,91c2.1,1.2,5.7,1,8.1-0.3L254,71.8c1.9-1.1,2.4-2.6,1.6-3.8C255.3,68.6,254.8,69.1,254,69.5z"/>
				<g>
					<path class="st5" d="M214.8,77.9L177,56c-1-0.6-0.9-1.5,0.3-2.2l15.3-8.8c1.1-0.6,2.8-0.7,3.8-0.2l37.8,21.9
						c1,0.6,0.9,1.5-0.3,2.2l-15.3,8.8C217.5,78.4,215.8,78.5,214.8,77.9z"/>
					<g>
						<path class="st2" d="M194.4,57l-2.2-1.3c-0.1-0.1-0.1-0.2,0-0.3l2.1-1.2c0.2-0.1,0.4-0.1,0.5,0l2.2,1.3c0.1,0.1,0.1,0.2,0,0.3
							l-2.1,1.2C194.7,57,194.5,57,194.4,57z"/>
						<path class="st2" d="M201.7,61.2l-2.2-1.3c-0.1-0.1-0.1-0.2,0-0.3l2.1-1.2c0.2-0.1,0.4-0.1,0.5,0l2.2,1.3
							c0.1,0.1,0.1,0.2,0,0.3l-2.1,1.2C202.1,61.2,201.8,61.2,201.7,61.2z"/>
						<path class="st2" d="M209,65.4l-2.2-1.3c-0.1-0.1-0.1-0.2,0-0.3l2.1-1.2c0.2-0.1,0.4-0.1,0.5,0l2.2,1.3c0.1,0.1,0.1,0.2,0,0.3
							l-2.1,1.2C209.4,65.4,209.2,65.5,209,65.4z"/>
						<path class="st2" d="M216.3,69.6l-2.2-1.3c-0.1-0.1-0.1-0.2,0-0.3l2.1-1.2c0.2-0.1,0.4-0.1,0.5,0L219,68
							c0.1,0.1,0.1,0.2,0,0.3l-2.1,1.2C216.7,69.7,216.5,69.7,216.3,69.6z"/>
					</g>
					<path class="st0" d="M177,56L177,56c0.1,0,0.2-0.1,0.3-0.1l15.3-8.8c1.1-0.6,2.8-0.7,3.8-0.2l37.8,21.9c0.9-0.6,0.9-1.5,0-2
						l-37.8-21.9c-1-0.6-2.7-0.5-3.8,0.2l-15.3,8.8C176.1,54.4,176,55.4,177,56z"/>
				</g>
			</g>
			<g>
				<path class="st5" d="M227.7,115.6l21.5-12.3c1.2-0.7,2.2-2.6,2.2-4.2v-7.7c0-1.6-1-2.4-2.2-1.7L227.7,102
					c-1.2,0.7-2.2,2.6-2.2,4.2v7.7C225.5,115.5,226.5,116.2,227.7,115.6z"/>
				<path class="st6" d="M250.3,89.5c0.3,0.3,0.6,0.9,0.6,1.6v7.7c0,1.6-1,3.5-2.2,4.2l-21.5,12.3c-0.4,0.2-0.7,0.3-1.1,0.2
					c0.4,0.4,1,0.4,1.6,0.1l21.5-12.3c1.2-0.7,2.2-2.6,2.2-4.2v-7.7C251.4,90.2,250.9,89.6,250.3,89.5z"/>
				<g>
					<path class="st1" d="M234.2,107.2l2-1.1c0.3-0.2,0.5-0.6,0.5-0.9V103c0-0.4-0.2-0.5-0.5-0.4l-2,1.1c-0.3,0.2-0.5,0.6-0.5,0.9
						v2.1C233.7,107.2,233.9,107.3,234.2,107.2z"/>
					<path class="st6" d="M240.8,103.4l2-1.1c0.3-0.2,0.5-0.6,0.5-0.9v-2.1c0-0.4-0.2-0.5-0.5-0.4l-2,1.1c-0.3,0.2-0.5,0.6-0.5,0.9
						v2.1C240.3,103.4,240.5,103.5,240.8,103.4z"/>
				</g>
			</g>
			<g>
				<path class="st5" d="M227.7,171.2l21.5-12.3c1.2-0.7,2.2-2.6,2.2-4.2V147c0-1.6-1-2.4-2.2-1.7l-21.5,12.3
					c-1.2,0.7-2.2,2.6-2.2,4.2v7.7C225.5,171.1,226.5,171.9,227.7,171.2z"/>
				<path class="st6" d="M250.3,145.1c0.3,0.3,0.6,0.9,0.6,1.6v7.7c0,1.6-1,3.5-2.2,4.2l-21.5,12.3c-0.4,0.2-0.7,0.3-1.1,0.2
					c0.4,0.4,1,0.4,1.6,0.1l21.5-12.3c1.2-0.7,2.2-2.6,2.2-4.2V147C251.4,145.9,250.9,145.2,250.3,145.1z"/>
				<g>
					<path class="st1" d="M234.2,162.8l2-1.1c0.3-0.2,0.5-0.6,0.5-0.9v-2.1c0-0.4-0.2-0.5-0.5-0.4l-2,1.1c-0.3,0.2-0.5,0.6-0.5,0.9
						v2.1C233.7,162.8,233.9,162.9,234.2,162.8z"/>
					<path class="st6" d="M240.8,159l2-1.1c0.3-0.2,0.5-0.6,0.5-0.9v-2.1c0-0.4-0.2-0.5-0.5-0.4l-2,1.1c-0.3,0.2-0.5,0.6-0.5,0.9
						v2.1C240.3,159,240.5,159.1,240.8,159z"/>
				</g>
			</g>
			<g>
				<path class="st5" d="M227.7,199l21.5-12.3c1.2-0.7,2.2-2.6,2.2-4.2v-7.7c0-1.6-1-2.4-2.2-1.7l-21.5,12.3
					c-1.2,0.7-2.2,2.6-2.2,4.2v7.7C225.5,198.9,226.5,199.7,227.7,199z"/>
				<path class="st6" d="M250.3,172.9c0.3,0.3,0.6,0.9,0.6,1.6v7.7c0,1.6-1,3.5-2.2,4.2l-21.5,12.3c-0.4,0.2-0.7,0.3-1.1,0.2
					c0.4,0.4,1,0.4,1.6,0.1l21.5-12.3c1.2-0.7,2.2-2.6,2.2-4.2v-7.7C251.4,173.7,250.9,173,250.3,172.9z"/>
				<g>
					<path class="st1" d="M234.2,190.6l2-1.1c0.3-0.2,0.5-0.6,0.5-0.9v-2.1c0-0.4-0.2-0.5-0.5-0.4l-2,1.1c-0.3,0.2-0.5,0.6-0.5,0.9
						v2.1C233.7,190.6,233.9,190.8,234.2,190.6z"/>
					<path class="st6" d="M240.8,186.8l2-1.1c0.3-0.2,0.5-0.6,0.5-0.9v-2.1c0-0.4-0.2-0.5-0.5-0.4l-2,1.1c-0.3,0.2-0.5,0.6-0.5,0.9
						v2.1C240.3,186.8,240.5,186.9,240.8,186.8z"/>
				</g>
			</g>
			<g>
				<path class="st5" d="M227.7,143.4l21.5-12.3c1.2-0.7,2.2-2.6,2.2-4.2v-7.7c0-1.6-1-2.4-2.2-1.7l-21.5,12.3
					c-1.2,0.7-2.2,2.6-2.2,4.2v7.7C225.5,143.3,226.5,144.1,227.7,143.4z"/>
				<path class="st6" d="M250.3,117.3c0.3,0.3,0.6,0.9,0.6,1.6v7.7c0,1.6-1,3.5-2.2,4.2l-21.5,12.3c-0.4,0.2-0.7,0.3-1.1,0.2
					c0.4,0.4,1,0.4,1.6,0.1l21.5-12.3c1.2-0.7,2.2-2.6,2.2-4.2v-7.7C251.4,118.1,250.9,117.4,250.3,117.3z"/>
				<g>
					<path class="st1" d="M234.2,135l2-1.1c0.3-0.2,0.5-0.6,0.5-0.9v-2.1c0-0.4-0.2-0.5-0.5-0.4l-2,1.1c-0.3,0.2-0.5,0.6-0.5,0.9
						v2.1C233.7,135,233.9,135.1,234.2,135z"/>
					<path class="st6" d="M240.8,131.2l2-1.1c0.3-0.2,0.5-0.6,0.5-0.9V127c0-0.4-0.2-0.5-0.5-0.4l-2,1.1c-0.3,0.2-0.5,0.6-0.5,0.9
						v2.1C240.3,131.2,240.5,131.3,240.8,131.2z"/>
				</g>
			</g>
		</g>
		<g>
			<path class="st0" d="M209.1,107.7L159.4,79c-1.1-0.6-2-2.4-2-3.8v-9.5c0-1.5,0.9-2.2,2-1.5l49.6,28.7c1.1,0.6,2,2.4,2,3.8v9.5
				C211.1,107.6,210.2,108.3,209.1,107.7z"/>
			<path class="st7" d="M207.6,104.4l-46.8-27c-0.6-0.3-1-1.2-1-2v-7.1c0-0.8,0.5-1.1,1-0.8l46.8,27c0.6,0.3,1,1.2,1,2v7.1
				C208.6,104.3,208.2,104.7,207.6,104.4z"/>
			<path class="st2" d="M170.6,79.4l-7-4c-0.5-0.3-1-1.2-1-1.9l0,0c0-0.7,0.4-1.1,1-0.7l7,4c0.5,0.3,1,1.2,1,1.9l0,0
				C171.6,79.3,171.1,79.7,170.6,79.4z"/>
			<path class="st5" d="M176.5,81.5c0,0.7-0.5,1-1.1,0.7c-0.6-0.4-1.1-1.3-1.1-2c0-0.7,0.5-1,1.1-0.7
				C176,79.9,176.5,80.8,176.5,81.5z"/>
			<path class="st5" d="M180.6,83.8c0,0.7-0.5,1-1.1,0.7c-0.6-0.4-1.1-1.3-1.1-2c0-0.7,0.5-1,1.1-0.7
				C180.1,82.2,180.6,83.1,180.6,83.8z"/>
			<path class="st2" d="M184.6,86.1c0,0.7-0.5,1-1.1,0.7c-0.6-0.4-1.1-1.3-1.1-2c0-0.7,0.5-1,1.1-0.7
				C184.1,84.5,184.6,85.4,184.6,86.1z"/>
			<path class="st5" d="M188.6,88.5c0,0.7-0.5,1-1.1,0.7c-0.6-0.4-1.1-1.3-1.1-2s0.5-1,1.1-0.7C188.1,86.9,188.6,87.7,188.6,88.5z"
				/>
			<path class="st5" d="M205.7,100.4l-2.4-1.4c-0.4-0.2-0.6-0.7-0.6-1.2v-2.5c0-0.5,0.3-0.7,0.6-0.5l2.4,1.4
				c0.4,0.2,0.6,0.7,0.6,1.2v2.5C206.3,100.4,206,100.6,205.7,100.4z"/>
		</g>
		<g>
			<path class="st0" d="M209.1,124.4l-49.6-28.7c-1.1-0.6-2-2.4-2-3.8v-9.5c0-1.5,0.9-2.2,2-1.5l49.6,28.7c1.1,0.6,2,2.4,2,3.8v9.5
				C211.1,124.3,210.2,125,209.1,124.4z"/>
			<path class="st7" d="M207.6,121l-46.8-27c-0.6-0.3-1-1.2-1-2V85c0-0.8,0.5-1.1,1-0.8l46.8,27c0.6,0.3,1,1.2,1,2v7.1
				C208.6,121,208.2,121.4,207.6,121z"/>
			<path class="st2" d="M170.6,96.1l-7-4c-0.5-0.3-1-1.2-1-1.9l0,0c0-0.7,0.4-1.1,1-0.7l7,4c0.5,0.3,1,1.2,1,1.9l0,0
				C171.6,96,171.1,96.4,170.6,96.1z"/>
			<path class="st6" d="M176.5,98.2c0,0.7-0.5,1-1.1,0.7c-0.6-0.4-1.1-1.3-1.1-2c0-0.7,0.5-1,1.1-0.7
				C176,96.6,176.5,97.4,176.5,98.2z"/>
			<path class="st5" d="M180.6,100.5c0,0.7-0.5,1-1.1,0.7c-0.6-0.4-1.1-1.3-1.1-2c0-0.7,0.5-1,1.1-0.7
				C180.1,98.9,180.6,99.8,180.6,100.5z"/>
			<path class="st2" d="M184.6,102.8c0,0.7-0.5,1-1.1,0.7c-0.6-0.4-1.1-1.3-1.1-2s0.5-1,1.1-0.7
				C184.1,101.2,184.6,102.1,184.6,102.8z"/>
			<path class="st5" d="M188.6,105.2c0,0.7-0.5,1-1.1,0.7c-0.6-0.4-1.1-1.3-1.1-2c0-0.7,0.5-1,1.1-0.7
				C188.1,103.6,188.6,104.4,188.6,105.2z"/>
			<path class="st5" d="M205.7,117.1l-2.4-1.4c-0.4-0.2-0.6-0.7-0.6-1.2V112c0-0.5,0.3-0.7,0.6-0.5l2.4,1.4c0.4,0.2,0.6,0.7,0.6,1.2
				v2.5C206.3,117.1,206,117.3,205.7,117.1z"/>
		</g>
		<g>
			<path class="st0" d="M209.1,141.1l-49.6-28.7c-1.1-0.6-2-2.4-2-3.8v-9.5c0-1.5,0.9-2.2,2-1.5l49.6,28.7c1.1,0.6,2,2.4,2,3.8v9.5
				C211.1,141,210.2,141.7,209.1,141.1z"/>
			<path class="st7" d="M207.6,137.7l-46.8-27c-0.6-0.3-1-1.2-1-2v-7.1c0-0.8,0.5-1.1,1-0.8l46.8,27c0.6,0.3,1,1.2,1,2v7.1
				C208.6,137.7,208.2,138.1,207.6,137.7z"/>
			<path class="st2" d="M170.6,112.8l-7-4c-0.5-0.3-1-1.2-1-1.9l0,0c0-0.7,0.4-1.1,1-0.7l7,4c0.5,0.3,1,1.2,1,1.9l0,0
				C171.6,112.7,171.1,113.1,170.6,112.8z"/>
			<path class="st6" d="M176.5,114.9c0,0.7-0.5,1-1.1,0.7c-0.6-0.4-1.1-1.3-1.1-2c0-0.7,0.5-1,1.1-0.7
				C176,113.3,176.5,114.1,176.5,114.9z"/>
			<path class="st5" d="M180.6,117.2c0,0.7-0.5,1-1.1,0.7c-0.6-0.4-1.1-1.3-1.1-2c0-0.7,0.5-1,1.1-0.7
				C180.1,115.6,180.6,116.5,180.6,117.2z"/>
			<path class="st2" d="M184.6,119.5c0,0.7-0.5,1-1.1,0.7c-0.6-0.4-1.1-1.3-1.1-2c0-0.7,0.5-1,1.1-0.7
				C184.1,117.9,184.6,118.8,184.6,119.5z"/>
			<path class="st5" d="M188.6,121.9c0,0.7-0.5,1-1.1,0.7c-0.6-0.4-1.1-1.3-1.1-2c0-0.7,0.5-1,1.1-0.7
				C188.1,120.2,188.6,121.1,188.6,121.9z"/>
			<path class="st5" d="M205.7,133.8l-2.4-1.4c-0.4-0.2-0.6-0.7-0.6-1.2v-2.5c0-0.5,0.3-0.7,0.6-0.5l2.4,1.4
				c0.4,0.2,0.6,0.7,0.6,1.2v2.5C206.3,133.8,206,134,205.7,133.8z"/>
		</g>
		<g>
			<path class="st0" d="M209.1,157.8l-49.6-28.7c-1.1-0.6-2-2.4-2-3.8v-9.5c0-1.5,0.9-2.2,2-1.5l49.6,28.7c1.1,0.6,2,2.4,2,3.8v9.5
				C211.1,157.7,210.2,158.4,209.1,157.8z"/>
			<path class="st7" d="M207.6,154.4l-46.8-27c-0.6-0.3-1-1.2-1-2v-7.1c0-0.8,0.5-1.1,1-0.8l46.8,27c0.6,0.3,1,1.2,1,2v7.1
				C208.6,154.4,208.2,154.8,207.6,154.4z"/>
			<path class="st2" d="M170.6,129.4l-7-4c-0.5-0.3-1-1.2-1-1.9l0,0c0-0.7,0.4-1.1,1-0.7l7,4c0.5,0.3,1,1.2,1,1.9l0,0
				C171.6,129.4,171.1,129.8,170.6,129.4z"/>
			<path class="st5" d="M176.5,131.6c0,0.7-0.5,1-1.1,0.7c-0.6-0.4-1.1-1.3-1.1-2s0.5-1,1.1-0.7C176,129.9,176.5,130.8,176.5,131.6z
				"/>
			<path class="st5" d="M180.6,133.9c0,0.7-0.5,1-1.1,0.7c-0.6-0.4-1.1-1.3-1.1-2s0.5-1,1.1-0.7
				C180.1,132.3,180.6,133.2,180.6,133.9z"/>
			<path class="st2" d="M184.6,136.2c0,0.7-0.5,1-1.1,0.7c-0.6-0.4-1.1-1.3-1.1-2c0-0.7,0.5-1,1.1-0.7
				C184.1,134.6,184.6,135.5,184.6,136.2z"/>
			<path class="st5" d="M188.6,138.6c0,0.7-0.5,1-1.1,0.7c-0.6-0.4-1.1-1.3-1.1-2c0-0.7,0.5-1,1.1-0.7
				C188.1,136.9,188.6,137.8,188.6,138.6z"/>
			<path class="st2" d="M205.7,150.5l-2.4-1.4c-0.4-0.2-0.6-0.7-0.6-1.2v-2.5c0-0.5,0.3-0.7,0.6-0.5l2.4,1.4
				c0.4,0.2,0.6,0.7,0.6,1.2v2.5C206.3,150.5,206,150.7,205.7,150.5z"/>
		</g>
		<g>
			<path class="st0" d="M209.1,174.4l-49.6-28.7c-1.1-0.6-2-2.4-2-3.8v-9.5c0-1.5,0.9-2.2,2-1.5l49.6,28.7c1.1,0.6,2,2.4,2,3.8v9.5
				C211.1,174.4,210.2,175.1,209.1,174.4z"/>
			<path class="st7" d="M207.6,171.1l-46.8-27c-0.6-0.3-1-1.2-1-2V135c0-0.8,0.5-1.1,1-0.8l46.8,27c0.6,0.3,1,1.2,1,2v7.1
				C208.6,171.1,208.2,171.5,207.6,171.1z"/>
			<path class="st2" d="M170.6,146.1l-7-4c-0.5-0.3-1-1.2-1-1.9l0,0c0-0.7,0.4-1.1,1-0.7l7,4c0.5,0.3,1,1.2,1,1.9l0,0
				C171.6,146.1,171.1,146.5,170.6,146.1z"/>
			<path class="st5" d="M176.5,148.3c0,0.7-0.5,1-1.1,0.7c-0.6-0.4-1.1-1.3-1.1-2c0-0.7,0.5-1,1.1-0.7
				C176,146.6,176.5,147.5,176.5,148.3z"/>
			<path class="st6" d="M180.6,150.6c0,0.7-0.5,1-1.1,0.7c-0.6-0.4-1.1-1.3-1.1-2c0-0.7,0.5-1,1.1-0.7
				C180.1,149,180.6,149.9,180.6,150.6z"/>
			<path class="st2" d="M184.6,152.9c0,0.7-0.5,1-1.1,0.7c-0.6-0.4-1.1-1.3-1.1-2s0.5-1,1.1-0.7
				C184.1,151.3,184.6,152.2,184.6,152.9z"/>
			<path class="st6" d="M188.6,155.3c0,0.7-0.5,1-1.1,0.7c-0.6-0.4-1.1-1.3-1.1-2s0.5-1,1.1-0.7
				C188.1,153.6,188.6,154.5,188.6,155.3z"/>
			<path class="st2" d="M205.7,167.2l-2.4-1.4c-0.4-0.2-0.6-0.7-0.6-1.2v-2.5c0-0.5,0.3-0.7,0.6-0.5l2.4,1.4
				c0.4,0.2,0.6,0.7,0.6,1.2v2.5C206.3,167.2,206,167.4,205.7,167.2z"/>
		</g>
		<g>
			<path class="st0" d="M209.1,191.1l-49.6-28.7c-1.1-0.6-2-2.4-2-3.8v-9.5c0-1.5,0.9-2.2,2-1.5l49.6,28.7c1.1,0.6,2,2.4,2,3.8v9.5
				C211.1,191.1,210.2,191.8,209.1,191.1z"/>
			<path class="st7" d="M207.6,187.8l-46.8-27c-0.6-0.3-1-1.2-1-2v-7.1c0-0.8,0.5-1.1,1-0.8l46.8,27c0.6,0.3,1,1.2,1,2v7.1
				C208.6,187.8,208.2,188.1,207.6,187.8z"/>
			<path class="st2" d="M170.6,162.8l-7-4c-0.5-0.3-1-1.2-1-1.9l0,0c0-0.7,0.4-1.1,1-0.7l7,4c0.5,0.3,1,1.2,1,1.9l0,0
				C171.6,162.8,171.1,163.2,170.6,162.8z"/>
			<path class="st5" d="M176.5,164.9c0,0.7-0.5,1-1.1,0.7c-0.6-0.4-1.1-1.3-1.1-2c0-0.7,0.5-1,1.1-0.7
				C176,163.3,176.5,164.2,176.5,164.9z"/>
			<path class="st5" d="M180.6,167.3c0,0.7-0.5,1-1.1,0.7c-0.6-0.4-1.1-1.3-1.1-2c0-0.7,0.5-1,1.1-0.7
				C180.1,165.7,180.6,166.6,180.6,167.3z"/>
			<path class="st2" d="M184.6,169.6c0,0.7-0.5,1-1.1,0.7c-0.6-0.4-1.1-1.3-1.1-2c0-0.7,0.5-1,1.1-0.7
				C184.1,168,184.6,168.9,184.6,169.6z"/>
			<path class="st5" d="M188.6,171.9c0,0.7-0.5,1-1.1,0.7c-0.6-0.4-1.1-1.3-1.1-2c0-0.7,0.5-1,1.1-0.7
				C188.1,170.3,188.6,171.2,188.6,171.9z"/>
			<path class="st5" d="M205.7,183.9l-2.4-1.4c-0.4-0.2-0.6-0.7-0.6-1.2v-2.5c0-0.5,0.3-0.7,0.6-0.5l2.4,1.4
				c0.4,0.2,0.6,0.7,0.6,1.2v2.5C206.3,183.8,206,184.1,205.7,183.9z"/>
		</g>
		<g>
			<path class="st0" d="M209.1,207.8l-49.6-28.7c-1.1-0.6-2-2.4-2-3.8v-9.5c0-1.5,0.9-2.2,2-1.5l49.6,28.7c1.1,0.6,2,2.4,2,3.8v9.5
				C211.1,207.8,210.2,208.5,209.1,207.8z"/>
			<path class="st7" d="M207.6,204.5l-46.8-27c-0.6-0.3-1-1.2-1-2v-7.1c0-0.8,0.5-1.1,1-0.8l46.8,27c0.6,0.3,1,1.2,1,2v7.1
				C208.6,204.5,208.2,204.8,207.6,204.5z"/>
			<path class="st2" d="M170.6,179.5l-7-4c-0.5-0.3-1-1.2-1-1.9l0,0c0-0.7,0.4-1.1,1-0.7l7,4c0.5,0.3,1,1.2,1,1.9l0,0
				C171.6,179.5,171.1,179.8,170.6,179.5z"/>
			<path class="st6" d="M177.8,182.5c0,1.4-1,1.9-2.2,1.2c-1.2-0.7-2.2-2.4-2.2-3.7c0-1.4,1-1.9,2.2-1.2
				C176.8,179.5,177.8,181.2,177.8,182.5z"/>
			<path class="st5" d="M186.2,187.4c0,0.7-0.5,1-1.1,0.7c-0.6-0.4-1.1-1.3-1.1-2c0-0.7,0.5-1,1.1-0.7
				C185.7,185.8,186.2,186.7,186.2,187.4z"/>
			<path class="st2" d="M190.2,189.8c0,0.7-0.5,1-1.1,0.7c-0.6-0.4-1.1-1.3-1.1-2c0-0.7,0.5-1,1.1-0.7
				C189.7,188.2,190.2,189,190.2,189.8z"/>
			<path class="st5" d="M194.3,192.1c0,0.7-0.5,1-1.1,0.7c-0.6-0.4-1.1-1.3-1.1-2c0-0.7,0.5-1,1.1-0.7
				C193.7,190.5,194.3,191.4,194.3,192.1z"/>
			<path class="st2" d="M205.7,200.5l-2.4-1.4c-0.4-0.2-0.6-0.7-0.6-1.2v-2.5c0-0.5,0.3-0.7,0.6-0.5l2.4,1.4
				c0.4,0.2,0.6,0.7,0.6,1.2v2.5C206.3,200.5,206,200.8,205.7,200.5z"/>
		</g>
	</g>
	<path class="st0" d="M205.8,249.7c-0.2,0-0.3,0-0.5-0.1l-56.4-32.1c-0.7-0.4-1.1-1.1-1.1-1.9c0-0.8,0.4-1.5,1.1-1.9l24.2-14.3
		c0.9-0.5,1.4-1.4,1.4-2.4v-15.7c0-0.6,0.4-1,1-1c0.6,0,1,0.4,1,1V197c0,1.7-0.9,3.3-2.4,4.1l-24.2,14.3c-0.1,0-0.1,0.1-0.1,0.2
		c0,0.1,0,0.1,0.1,0.2l56.4,32.1c0.5,0.3,0.6,0.9,0.4,1.4C206.4,249.6,206.1,249.7,205.8,249.7z"/>
	<g>
		<g>
			<g>
				<g>
					
						<rect x="188.6" y="234.9" transform="matrix(-0.4974 0.8675 -0.8675 -0.4974 495.252 194.3781)" class="st0" width="5.4" height="11.6"/>
					<path class="st0" d="M184.4,238.9c0-1.2,0.8-2.7,1.9-3.3c1-0.6,1.9-0.1,1.9,1.1c0,1.2-0.8,2.7-1.9,3.3
						C185.3,240.6,184.4,240.1,184.4,238.9z"/>
				</g>
				<g>
					
						<rect x="198.1" y="238" transform="matrix(-0.4974 0.8675 -0.8675 -0.4974 517.4669 194.2829)" class="st0" width="8.7" height="18.1"/>
					<path class="st1" d="M196,240.3l-3.4-1.9c-1.4,1-2.5,2.9-2.7,4.7l3.4,1.9C194.8,243.9,195.9,242,196,240.3z"/>
					<path class="st0" d="M191.5,244.3c0-2,1.4-4.3,3.1-5.3c1.7-1,3.1-0.2,3.1,1.8c0,2-1.4,4.3-3.1,5.3
						C192.9,247,191.5,246.3,191.5,244.3z"/>
				</g>
			</g>
		</g>
		<path class="st2" d="M187.6,237.6c-0.5-0.3-0.5-0.7,0-1c0.5-0.3,1.3-0.3,1.8,0c0.5,0.3,0.5,0.7,0,1
			C188.9,237.9,188.1,237.9,187.6,237.6z"/>
	</g>
	<g>
		<g>
			<g>
				<g>
					
						<rect x="176.4" y="242.2" transform="matrix(-0.4974 0.8675 -0.8675 -0.4974 483.3752 216.0099)" class="st0" width="5.4" height="11.6"/>
					<path class="st0" d="M172.2,246.2c0-1.2,0.8-2.7,1.9-3.3c1-0.6,1.9-0.1,1.9,1.1c0,1.2-0.8,2.7-1.9,3.3
						C173.1,247.9,172.2,247.5,172.2,246.2z"/>
				</g>
				<g>
					
						<rect x="185.9" y="245.3" transform="matrix(-0.4974 0.8675 -0.8675 -0.4974 505.5898 215.9116)" class="st0" width="8.7" height="18.1"/>
					<path class="st1" d="M183.8,247.6l-3.4-1.9c-1.4,1-2.5,2.9-2.7,4.7l3.4,1.9C182.6,251.3,183.7,249.3,183.8,247.6z"/>
					<path class="st0" d="M179.3,251.7c0-2,1.4-4.3,3.1-5.3c1.7-1,3.1-0.2,3.1,1.8c0,2-1.4,4.3-3.1,5.3
						C180.7,254.4,179.3,253.6,179.3,251.7z"/>
				</g>
			</g>
		</g>
		<path class="st2" d="M175.4,245c-0.5-0.3-0.5-0.7,0-1c0.5-0.3,1.3-0.3,1.8,0s0.5,0.7,0,1C176.7,245.3,175.9,245.3,175.4,245z"/>
	</g>
	<g>
		<path class="st0" d="M377.8,159.9c-0.1,0-0.1,0-0.2,0c-0.5-0.1-0.9-0.7-0.8-1.2l9.8-42.3c0.1-0.5,0.7-0.9,1.2-0.8
			c0.5,0.1,0.9,0.7,0.8,1.2l-9.8,42.3C378.7,159.6,378.3,159.9,377.8,159.9z"/>
		<path class="st0" d="M364.9,156.9c-0.1,0-0.1,0-0.2,0c-0.5-0.1-0.9-0.7-0.8-1.2l9.8-42.3c0.1-0.5,0.7-0.9,1.2-0.8
			c0.5,0.1,0.9,0.7,0.8,1.2l-9.8,42.3C365.7,156.6,365.3,156.9,364.9,156.9z"/>
		<path class="st0" d="M351.9,154c-0.1,0-0.1,0-0.2,0c-0.5-0.1-0.9-0.7-0.8-1.2l9.8-42.3c0.1-0.5,0.7-0.9,1.2-0.8
			c0.5,0.1,0.9,0.7,0.8,1.2l-9.8,42.3C352.8,153.6,352.4,154,351.9,154z"/>
		<g>
			<g>
				<g>
					<g>
						
							<rect x="355.3" y="121" transform="matrix(0.9736 0.2282 -0.2282 0.9736 38.3742 -78.3583)" class="st0" width="5.4" height="11.6"/>
						<path class="st0" d="M358.3,133.9c-1.2,0.3-2.8,0-3.7-0.9c-0.9-0.8-0.7-1.8,0.5-2.1c1.2-0.3,2.8,0,3.7,0.9
							C359.7,132.6,359.5,133.5,358.3,133.9z"/>
					</g>
					<g>
						
							<rect x="356.6" y="105.2" transform="matrix(0.9736 0.2282 -0.2282 0.9736 35.6009 -79.359)" class="st0" width="8.7" height="18.1"/>
						<path class="st1" d="M356.3,122.4l-0.9,3.8c1.4,1.1,3.5,1.6,5.2,1.2l0.9-3.8C360.2,122.5,358,122,356.3,122.4z"/>
						<path class="st0" d="M361.5,125.5c-1.9,0.6-4.6-0.1-6-1.4c-1.4-1.3-1.1-2.9,0.8-3.5c1.9-0.6,4.6,0.1,6,1.4
							C363.7,123.4,363.3,125,361.5,125.5z"/>
					</g>
				</g>
			</g>
			<path class="st2" d="M356.2,131.2c-0.1,0.6-0.6,0.7-1,0.3c-0.4-0.4-0.6-1.2-0.5-1.7s0.6-0.7,1-0.3
				C356.1,129.9,356.3,130.7,356.2,131.2z"/>
		</g>
		<g>
			<g>
				<g>
					<g>
						
							<rect x="367.4" y="128.1" transform="matrix(0.9736 0.2282 -0.2282 0.9736 40.3247 -80.9124)" class="st0" width="5.4" height="11.6"/>
						<path class="st0" d="M370.3,141c-1.2,0.3-2.8,0-3.7-0.9c-0.9-0.8-0.7-1.8,0.5-2.1s2.8,0,3.7,0.9
							C371.7,139.7,371.5,140.7,370.3,141z"/>
					</g>
					<g>
						
							<rect x="368.6" y="112.3" transform="matrix(0.9736 0.2282 -0.2282 0.9736 37.552 -81.9141)" class="st0" width="8.7" height="18.1"/>
						<path class="st1" d="M368.3,129.5l-0.9,3.8c1.4,1.1,3.5,1.6,5.2,1.2l0.9-3.8C372.2,129.7,370,129.2,368.3,129.5z"/>
						<path class="st0" d="M373.5,132.7c-1.9,0.6-4.6-0.1-6-1.4c-1.4-1.3-1.1-2.9,0.8-3.5c1.9-0.6,4.6,0.1,6,1.4
							C375.7,130.6,375.4,132.1,373.5,132.7z"/>
					</g>
				</g>
			</g>
			<path class="st2" d="M368.2,138.4c-0.1,0.6-0.6,0.7-1,0.3c-0.4-0.4-0.6-1.2-0.5-1.7c0.1-0.6,0.6-0.7,1-0.3
				C368.1,137.1,368.4,137.8,368.2,138.4z"/>
		</g>
		<g>
			<g>
				<g>
					<g>
						
							<rect x="379.5" y="135.2" transform="matrix(0.9736 0.2282 -0.2282 0.9736 42.2662 -83.4987)" class="st0" width="5.4" height="11.6"/>
						<path class="st0" d="M382.5,148.2c-1.2,0.3-2.8,0-3.7-0.9c-0.9-0.8-0.7-1.8,0.5-2.1c1.2-0.3,2.8,0,3.7,0.9
							C383.9,146.8,383.6,147.8,382.5,148.2z"/>
					</g>
					<g>
						
							<rect x="380.8" y="119.4" transform="matrix(0.9736 0.2282 -0.2282 0.9736 39.4936 -84.5005)" class="st0" width="8.7" height="18.1"/>
						<path class="st1" d="M380.5,136.6l-0.9,3.8c1.4,1.1,3.5,1.6,5.2,1.2l0.9-3.8C384.3,136.8,382.2,136.3,380.5,136.6z"/>
						<path class="st0" d="M385.6,139.8c-1.9,0.6-4.6-0.1-6-1.4c-1.4-1.3-1.1-2.9,0.8-3.5c1.9-0.6,4.6,0.1,6,1.4
							C387.9,137.7,387.5,139.2,385.6,139.8z"/>
					</g>
				</g>
			</g>
			<path class="st2" d="M380.4,145.5c-0.1,0.6-0.6,0.7-1,0.3c-0.4-0.4-0.6-1.2-0.5-1.7c0.1-0.6,0.6-0.7,1-0.3
				C380.3,144.2,380.5,144.9,380.4,145.5z"/>
		</g>
	</g>
	<g>
		<g>
			<path class="st3" d="M298.3,346.6l-116.1-67.1c-3.3-1.9-2.9-5.2,0.9-7.4l79.1-45.6c3.8-2.2,9.5-2.4,12.8-0.5L391.1,293
				c3.3,1.9,2.9,5.2-0.9,7.4L311.1,346C307.3,348.2,301.6,348.5,298.3,346.6z"/>
			<path class="st5" d="M418.3,174.2l-116.1-67.1c-1.3-0.8-2.7-0.9-3.9-0.5l0,0l-0.2,0.1c0,0,0,0-0.1,0l-4.2,1.6l3.8,1.8
				c0,0.1,0,0.1-0.1,0.2l-18.9,86.1c-0.9,4.3,0.9,9.3,4.2,11.2l113.3,65.4l-0.4,4.8l4.6-1.8c1.5-0.7,2.8-2.4,3.3-4.7l18.9-86.1
				C423.5,181.1,421.6,176.1,418.3,174.2z"/>
			<path class="st1" d="M418.3,174.2l-116.1-67.1c-1.3-0.8-2.7-0.9-3.9-0.5l0,0l-0.2,0.1c0,0,0,0-0.1,0l-4.2,1.6l3.8,1.8
				c0,0.1,0,0.1-0.1,0.2L285,167.2l56.8,44.3l80.1-32.6C421.2,176.8,419.9,175.1,418.3,174.2z"/>
			<path class="st8" d="M413.9,187.4l8.8-3.8c0.2-3.4-1.3-7-3.6-8.9l-14,5.9L413.9,187.4z"/>
			<path class="st2" d="M391.7,277.5l-116.1-67.1c-3.3-1.9-5.2-6.9-4.2-11.2l18.9-86.1c0.9-4.3,4.4-6.3,7.7-4.4L414,175.8
				c3.3,1.9,5.2,6.9,4.2,11.2l-18.9,86.1C398.4,277.5,395,279.4,391.7,277.5z"/>
			<path class="st6" d="M389.2,271.1l-109.2-63c-3-1.7-4.7-6.3-3.9-10.3l17.3-78.8c0.9-3.9,4-5.7,7-4l109.2,63
				c3,1.7,4.7,6.3,3.9,10.3l-17.3,78.8C395.3,271.1,392.2,272.9,389.2,271.1z"/>
			<path class="st6" d="M389.2,271.1l-109.2-63c-3-1.7-4.7-6.3-3.9-10.3l17.3-78.8c0.9-3.9,4-5.7,7-4l109.2,63
				c3,1.7,4.7,6.3,3.9,10.3l-17.3,78.8C395.3,271.1,392.2,272.9,389.2,271.1z"/>
			<path class="st5" d="M393.3,280.5l-15.9-2.1l-102.5-59.2c-3.3-1.9-9-1.7-12.8,0.5l-72.6,41.9l-9.6-1.3v5.4l0,0
				c-0.1,1.3,0.7,2.5,2.2,3.4l116.1,67.1c3.3,1.9,9,1.7,12.8-0.5l79.1-45.6c2.1-1.2,3.2-2.8,3.1-4.3h0V280.5z"/>
			<path class="st1" d="M316.3,243.1l-7.3-4.2h-80l-39.5,22.8l-9.6-1.3v5.4l0,0c-0.1,1.3,0.7,2.5,2.2,3.4l116.1,67.1
				c1.7,1,4.2,1.4,6.6,1.2L316.3,243.1z"/>
			<path class="st0" d="M184.2,260.9l-4.3-0.6v5.4l0,0c-0.1,1.3,0.7,2.5,2.2,3.4l2,1.2V260.9z"/>
			<path class="st8" d="M299.4,336.8c3.1,1.2,7.6,0.9,10.9-0.7V324h-10.9V336.8z"/>
			<path class="st2" d="M298.3,330.8l-116.1-67.1c-3.3-1.9-2.9-5.2,0.9-7.4l79.1-45.6c3.8-2.2,9.5-2.4,12.8-0.5l116.1,67.1
				c3.3,1.9,2.9,5.2-0.9,7.4l-79.1,45.6C307.3,332.5,301.6,332.7,298.3,330.8z"/>
			<path class="st6" d="M390.2,282.6l-79.1,45.6c-3.8,2.2-9.5,2.4-12.8,0.5l-116.1-67.1c-1.1-0.6-1.7-1.4-2-2.2
				c-0.5,1.6,0.1,3.1,2,4.2l116.1,67.1c3.3,1.9,9,1.7,12.8-0.5l79.1-45.6c2.5-1.5,3.6-3.5,3-5.2
				C392.8,280.6,391.8,281.7,390.2,282.6z"/>
			<g>
				<path class="st5" d="M231.5,241.5l-5.3-3c-0.4-0.2-0.4-0.7,0.1-1l6.2-3.6c0.5-0.3,1.2-0.3,1.6-0.1l5.3,3c0.4,0.2,0.4,0.7-0.1,1
					l-6.2,3.6C232.7,241.8,231.9,241.8,231.5,241.5z"/>
				<path class="st5" d="M239.6,246.2l-5.3-3c-0.4-0.2-0.4-0.7,0.1-1l6.2-3.6c0.5-0.3,1.2-0.3,1.6-0.1l5.3,3c0.4,0.2,0.4,0.7-0.1,1
					l-6.2,3.6C240.8,246.4,240.1,246.5,239.6,246.2z"/>
				<path class="st5" d="M247.8,250.9l-5.3-3c-0.4-0.2-0.4-0.7,0.1-1l6.2-3.6c0.5-0.3,1.2-0.3,1.6-0.1l5.3,3c0.4,0.2,0.4,0.7-0.1,1
					l-6.2,3.6C248.9,251.1,248.2,251.2,247.8,250.9z"/>
				<path class="st5" d="M259,247l-5.3-3c-0.4-0.2-0.4-0.7,0.1-1l5.2-3c0.5-0.3,1.2-0.3,1.6-0.1l5.3,3c0.4,0.2,0.4,0.7-0.1,1l-5.2,3
					C260.1,247.3,259.4,247.3,259,247z"/>
				<path class="st5" d="M267.1,251.7l-5.3-3c-0.4-0.2-0.4-0.7,0.1-1l5.2-3c0.5-0.3,1.2-0.3,1.6-0.1l5.3,3c0.4,0.2,0.4,0.7-0.1,1
					l-5.2,3C268.2,251.9,267.5,252,267.1,251.7z"/>
				<path class="st5" d="M275.2,256.4l-5.3-3c-0.4-0.2-0.4-0.7,0.1-1l5.2-3c0.5-0.3,1.2-0.3,1.6-0.1l5.3,3c0.4,0.2,0.4,0.7-0.1,1
					l-5.2,3C276.4,256.6,275.6,256.7,275.2,256.4z"/>
				<path class="st5" d="M283.3,261.1l-5.3-3c-0.4-0.2-0.4-0.7,0.1-1l5.2-3c0.5-0.3,1.2-0.3,1.6-0.1l5.3,3c0.4,0.2,0.4,0.7-0.1,1
					l-5.2,3C284.5,261.3,283.7,261.3,283.3,261.1z"/>
				<path class="st5" d="M291.4,265.8l-5.3-3c-0.4-0.2-0.4-0.7,0.1-1l5.2-3c0.5-0.3,1.2-0.3,1.6-0.1l5.3,3c0.4,0.2,0.4,0.7-0.1,1
					l-5.2,3C292.6,266,291.9,266,291.4,265.8z"/>
				<path class="st5" d="M299.6,270.5l-5.3-3c-0.4-0.2-0.4-0.7,0.1-1l5.2-3c0.5-0.3,1.2-0.3,1.6-0.1l5.3,3c0.4,0.2,0.4,0.7-0.1,1
					l-5.2,3C300.7,270.7,300,270.7,299.6,270.5z"/>
				<path class="st5" d="M307.7,275.2l-5.3-3c-0.4-0.2-0.4-0.7,0.1-1l5.2-3c0.5-0.3,1.2-0.3,1.6-0.1l5.3,3c0.4,0.2,0.4,0.7-0.1,1
					l-5.2,3C308.8,275.4,308.1,275.4,307.7,275.2z"/>
				<path class="st5" d="M315.8,279.8l-5.3-3c-0.4-0.2-0.4-0.7,0.1-1l5.2-3c0.5-0.3,1.2-0.3,1.6-0.1l5.3,3c0.4,0.2,0.4,0.7-0.1,1
					l-5.2,3C316.9,280.1,316.2,280.1,315.8,279.8z"/>
				<path class="st5" d="M323.9,284.5l-5.3-3c-0.4-0.2-0.4-0.7,0.1-1l5.2-3c0.5-0.3,1.2-0.3,1.6-0.1l5.3,3c0.4,0.2,0.4,0.7-0.1,1
					l-5.2,3C325.1,284.7,324.3,284.8,323.9,284.5z"/>
				<path class="st5" d="M332,289.2l-5.3-3c-0.4-0.2-0.4-0.7,0.1-1l5.2-3c0.5-0.3,1.2-0.3,1.6-0.1l5.3,3c0.4,0.2,0.4,0.7-0.1,1
					l-5.2,3C333.2,289.4,332.4,289.5,332,289.2z"/>
				<path class="st1" d="M270.9,244.8l-5.3-3c-0.4-0.2-0.4-0.7,0.1-1l5.2-3c0.5-0.3,1.2-0.3,1.6-0.1l5.3,3c0.4,0.2,0.4,0.7-0.1,1
					l-5.2,3C272.1,245,271.4,245.1,270.9,244.8z"/>
				<path class="st1" d="M262.7,240.1l-5.3-3c-0.4-0.2-0.4-0.7,0.1-1l5.2-3c0.5-0.3,1.2-0.3,1.6-0.1l5.3,3c0.4,0.2,0.4,0.7-0.1,1
					l-5.2,3C263.9,240.3,263.1,240.3,262.7,240.1z"/>
				<path class="st5" d="M254.4,235.3l-11.3-6.5c-0.4-0.2-0.4-0.7,0.1-1l5.2-3c0.5-0.3,1.2-0.3,1.6-0.1l11.3,6.5
					c0.4,0.2,0.4,0.7-0.1,1l-5.2,3C255.6,235.5,254.9,235.6,254.4,235.3z"/>
				<path class="st5" d="M260.2,229.5l-9.2-5.3c-0.4-0.2-0.4-0.7,0.1-1l5.2-3c0.5-0.3,1.2-0.3,1.6-0.1l9.2,5.3
					c0.4,0.2,0.4,0.7-0.1,1l-5.2,3C261.4,229.7,260.6,229.8,260.2,229.5z"/>
				<path class="st1" d="M279,249.5l-5.3-3c-0.4-0.2-0.4-0.7,0.1-1l5.2-3c0.5-0.3,1.2-0.3,1.6-0.1l5.3,3c0.4,0.2,0.4,0.7-0.1,1
					l-5.2,3C280.2,249.7,279.5,249.8,279,249.5z"/>
				<path class="st5" d="M287.2,254.2l-5.3-3c-0.4-0.2-0.4-0.7,0.1-1l5.2-3c0.5-0.3,1.2-0.3,1.6-0.1l5.3,3c0.4,0.2,0.4,0.7-0.1,1
					l-5.2,3C288.3,254.4,287.6,254.4,287.2,254.2z"/>
				<path class="st5" d="M295.3,258.9l-5.3-3c-0.4-0.2-0.4-0.7,0.1-1l5.2-3c0.5-0.3,1.2-0.3,1.6-0.1l5.3,3c0.4,0.2,0.4,0.7-0.1,1
					l-5.2,3C296.4,259.1,295.7,259.1,295.3,258.9z"/>
				<path class="st5" d="M303.4,263.6l-5.3-3c-0.4-0.2-0.4-0.7,0.1-1l5.2-3c0.5-0.3,1.2-0.3,1.6-0.1l5.3,3c0.4,0.2,0.4,0.7-0.1,1
					l-5.2,3C304.6,263.8,303.8,263.8,303.4,263.6z"/>
				<path class="st5" d="M311.5,268.3l-5.3-3c-0.4-0.2-0.4-0.7,0.1-1l5.2-3c0.5-0.3,1.2-0.3,1.6-0.1l5.3,3c0.4,0.2,0.4,0.7-0.1,1
					l-5.2,3C312.7,268.5,311.9,268.5,311.5,268.3z"/>
				<path class="st5" d="M319.6,272.9l-5.3-3c-0.4-0.2-0.4-0.7,0.1-1l5.2-3c0.5-0.3,1.2-0.3,1.6-0.1l5.3,3c0.4,0.2,0.4,0.7-0.1,1
					l-5.2,3C320.8,273.1,320,273.2,319.6,272.9z"/>
				<path class="st5" d="M327.7,277.6l-5.3-3c-0.4-0.2-0.4-0.7,0.1-1l5.2-3c0.5-0.3,1.2-0.3,1.6-0.1l5.3,3c0.4,0.2,0.4,0.7-0.1,1
					l-5.2,3C328.9,277.8,328.2,277.9,327.7,277.6z"/>
				<path class="st5" d="M335.9,282.3l-5.3-3c-0.4-0.2-0.4-0.7,0.1-1l5.2-3c0.5-0.3,1.2-0.3,1.6-0.1l5.3,3c0.4,0.2,0.4,0.7-0.1,1
					l-5.2,3C337,282.5,336.3,282.6,335.9,282.3z"/>
				<path class="st5" d="M344,287l-5.3-3c-0.4-0.2-0.4-0.7,0.1-1l5.2-3c0.5-0.3,1.2-0.3,1.6-0.1l5.3,3c0.4,0.2,0.4,0.7-0.1,1l-5.2,3
					C345.1,287.2,344.4,287.2,344,287z"/>
				<path class="st5" d="M358.4,295.3l-11.5-6.6c-0.4-0.2-0.4-0.7,0.1-1l5.2-3c0.5-0.3,1.2-0.3,1.6-0.1l11.5,6.6
					c0.4,0.2,0.4,0.7-0.1,1l-5.2,3C359.6,295.5,358.8,295.6,358.4,295.3z"/>
				<path class="st5" d="M374.2,286.2l-9.7-5.6c-0.4-0.2-0.4-0.7,0.1-1l5.2-3c0.5-0.3,1.2-0.3,1.6-0.1l9.7,5.6
					c0.4,0.2,0.4,0.7-0.1,1l-5.2,3C375.4,286.4,374.6,286.4,374.2,286.2z"/>
				<path class="st5" d="M293.3,248.6l-5.3-3c-0.4-0.2-0.4-0.7,0.1-1l5.2-3c0.5-0.3,1.2-0.3,1.6-0.1l5.3,3c0.4,0.2,0.4,0.7-0.1,1
					l-5.2,3C294.4,248.8,293.7,248.8,293.3,248.6z"/>
				<path class="st5" d="M284.9,243.8l-5.3-3c-0.4-0.2-0.4-0.7,0.1-1l5.2-3c0.5-0.3,1.2-0.3,1.6-0.1l5.3,3c0.4,0.2,0.4,0.7-0.1,1
					l-5.2,3C286.1,244,285.4,244,284.9,243.8z"/>
				<path class="st1" d="M276.6,239l-5.3-3c-0.4-0.2-0.4-0.7,0.1-1l5.2-3c0.5-0.3,1.2-0.3,1.6-0.1l5.3,3c0.4,0.2,0.4,0.7-0.1,1
					l-5.2,3C277.8,239.2,277,239.2,276.6,239z"/>
				<path class="st5" d="M268.3,234.2l-5.3-3c-0.4-0.2-0.4-0.7,0.1-1l5.2-3c0.5-0.3,1.2-0.3,1.6-0.1l5.3,3c0.4,0.2,0.4,0.7-0.1,1
					l-5.2,3C269.5,234.4,268.7,234.4,268.3,234.2z"/>
				<path class="st5" d="M301.4,253.3l-5.3-3c-0.4-0.2-0.4-0.7,0.1-1l5.2-3c0.5-0.3,1.2-0.3,1.6-0.1l5.3,3c0.4,0.2,0.4,0.7-0.1,1
					l-5.2,3C302.5,253.5,301.8,253.5,301.4,253.3z"/>
				<path class="st5" d="M309.5,258l-5.3-3c-0.4-0.2-0.4-0.7,0.1-1l5.2-3c0.5-0.3,1.2-0.3,1.6-0.1l5.3,3c0.4,0.2,0.4,0.7-0.1,1
					l-5.2,3C310.6,258.2,309.9,258.2,309.5,258z"/>
				<path class="st5" d="M317.6,262.6l-5.3-3c-0.4-0.2-0.4-0.7,0.1-1l5.2-3c0.5-0.3,1.2-0.3,1.6-0.1l5.3,3c0.4,0.2,0.4,0.7-0.1,1
					l-5.2,3C318.8,262.9,318,262.9,317.6,262.6z"/>
				<path class="st5" d="M325.7,267.3l-5.3-3c-0.4-0.2-0.4-0.7,0.1-1l5.2-3c0.5-0.3,1.2-0.3,1.6-0.1l5.3,3c0.4,0.2,0.4,0.7-0.1,1
					l-5.2,3C326.9,267.5,326.1,267.6,325.7,267.3z"/>
				<path class="st5" d="M333.8,272l-5.3-3c-0.4-0.2-0.4-0.7,0.1-1l5.2-3c0.5-0.3,1.2-0.3,1.6-0.1l5.3,3c0.4,0.2,0.4,0.7-0.1,1
					l-5.2,3C335,272.2,334.3,272.3,333.8,272z"/>
				<path class="st5" d="M342,276.7l-5.3-3c-0.4-0.2-0.4-0.7,0.1-1l5.2-3c0.5-0.3,1.2-0.3,1.6-0.1l5.3,3c0.4,0.2,0.4,0.7-0.1,1
					l-5.2,3C343.1,276.9,342.4,276.9,342,276.7z"/>
				<path class="st5" d="M350.1,281.4l-5.3-3c-0.4-0.2-0.4-0.7,0.1-1l5.2-3c0.5-0.3,1.2-0.3,1.6-0.1l5.3,3c0.4,0.2,0.4,0.7-0.1,1
					l-5.2,3C351.2,281.6,350.5,281.6,350.1,281.4z"/>
				<path class="st5" d="M358.2,286.1l-5.3-3c-0.4-0.2-0.4-0.7,0.1-1l5.2-3c0.5-0.3,1.2-0.3,1.6-0.1l5.3,3c0.4,0.2,0.4,0.7-0.1,1
					l-5.2,3C359.3,286.3,358.6,286.3,358.2,286.1z"/>
				<path class="st5" d="M366.3,290.8l-5.3-3c-0.4-0.2-0.4-0.7,0.1-1l5.2-3c0.5-0.3,1.2-0.3,1.6-0.1l5.3,3c0.4,0.2,0.4,0.7-0.1,1
					l-5.2,3C367.5,291,366.7,291,366.3,290.8z"/>
				<path class="st5" d="M289,237l-5.3-3c-0.4-0.2-0.4-0.7,0.1-1l5.2-3c0.5-0.3,1.2-0.3,1.6-0.1l5.3,3c0.4,0.2,0.4,0.7-0.1,1l-5.2,3
					C290.1,237.2,289.4,237.2,289,237z"/>
				<path class="st5" d="M280.9,232.3l-5.3-3c-0.4-0.2-0.4-0.7,0.1-1l5.2-3c0.5-0.3,1.2-0.3,1.6-0.1l5.3,3c0.4,0.2,0.4,0.7-0.1,1
					l-5.2,3C282.1,232.6,281.3,232.6,280.9,232.3z"/>
				<path class="st5" d="M272.8,227.7l-5.3-3c-0.4-0.2-0.4-0.7,0.1-1l5.2-3c0.5-0.3,1.2-0.3,1.6-0.1l5.3,3c0.4,0.2,0.4,0.7-0.1,1
					l-5.2,3C274,227.9,273.3,227.9,272.8,227.7z"/>
				<path class="st5" d="M264.8,223l-5.3-3c-0.4-0.2-0.4-0.7,0.1-1l5.2-3c0.5-0.3,1.2-0.3,1.6-0.1l5.3,3c0.4,0.2,0.4,0.7-0.1,1
					l-5.2,3C265.9,223.2,265.2,223.3,264.8,223z"/>
				<path class="st5" d="M273.1,218.2l-5.3-3c-0.4-0.2-0.4-0.7,0.1-1l1.7-1c0.5-0.3,1.2-0.3,1.6-0.1l5.3,3c0.4,0.2,0.4,0.7-0.1,1
					l-1.7,1C274.2,218.4,273.5,218.5,273.1,218.2z"/>
				<path class="st5" d="M283.6,224.3l-5.3-3c-0.4-0.2-0.4-0.7,0.1-1l1.7-1c0.5-0.3,1.2-0.3,1.6-0.1l5.3,3c0.4,0.2,0.4,0.7-0.1,1
					l-1.7,1C284.8,224.5,284,224.6,283.6,224.3z"/>
				<path class="st5" d="M291.6,229l-5.3-3c-0.4-0.2-0.4-0.7,0.1-1l1.7-1c0.5-0.3,1.2-0.3,1.6-0.1l5.3,3c0.4,0.2,0.4,0.7-0.1,1
					l-1.7,1C292.8,229.2,292.1,229.2,291.6,229z"/>
				<path class="st5" d="M299.7,233.6l-5.3-3c-0.4-0.2-0.4-0.7,0.1-1l1.7-1c0.5-0.3,1.2-0.3,1.6-0.1l5.3,3c0.4,0.2,0.4,0.7-0.1,1
					l-1.7,1C300.8,233.8,300.1,233.8,299.7,233.6z"/>
				<path class="st5" d="M307.7,238.2l-5.3-3c-0.4-0.2-0.4-0.7,0.1-1l1.7-1c0.5-0.3,1.2-0.3,1.6-0.1l5.3,3c0.4,0.2,0.4,0.7-0.1,1
					l-1.7,1C308.9,238.4,308.1,238.5,307.7,238.2z"/>
				<path class="st5" d="M352.6,264.2l-5.3-3c-0.4-0.2-0.4-0.7,0.1-1l1.7-1c0.5-0.3,1.2-0.3,1.6-0.1l5.3,3c0.4,0.2,0.4,0.7-0.1,1
					l-1.7,1C353.8,264.4,353,264.4,352.6,264.2z"/>
				<path class="st5" d="M360.7,268.8l-5.3-3c-0.4-0.2-0.4-0.7,0.1-1l1.7-1c0.5-0.3,1.2-0.3,1.6-0.1l5.3,3c0.4,0.2,0.4,0.7-0.1,1
					l-1.7,1C361.8,269,361.1,269,360.7,268.8z"/>
				<path class="st5" d="M368.7,273.4l-5.3-3c-0.4-0.2-0.4-0.7,0.1-1l1.7-1c0.5-0.3,1.2-0.3,1.6-0.1l5.3,3c0.4,0.2,0.4,0.7-0.1,1
					l-1.7,1C369.9,273.7,369.1,273.7,368.7,273.4z"/>
				<path class="st5" d="M376.7,278.1l-5.3-3c-0.4-0.2-0.4-0.7,0.1-1l1.7-1c0.5-0.3,1.2-0.3,1.6-0.1l5.3,3c0.4,0.2,0.4,0.7-0.1,1
					l-1.7,1C377.9,278.3,377.2,278.3,376.7,278.1z"/>
				<path class="st5" d="M297.1,241.7l-5.3-3c-0.4-0.2-0.4-0.7,0.1-1l5.2-3c0.5-0.3,1.2-0.3,1.6-0.1l5.3,3c0.4,0.2,0.4,0.7-0.1,1
					l-5.2,3C298.3,241.9,297.5,241.9,297.1,241.7z"/>
				<path class="st5" d="M305.2,246.4l-5.3-3c-0.4-0.2-0.4-0.7,0.1-1l5.2-3c0.5-0.3,1.2-0.3,1.6-0.1l5.3,3c0.4,0.2,0.4,0.7-0.1,1
					l-5.2,3C306.4,246.6,305.6,246.6,305.2,246.4z"/>
				<path class="st5" d="M313.3,251.1l-5.3-3c-0.4-0.2-0.4-0.7,0.1-1l5.2-3c0.5-0.3,1.2-0.3,1.6-0.1l5.3,3c0.4,0.2,0.4,0.7-0.1,1
					l-5.2,3C314.5,251.3,313.8,251.3,313.3,251.1z"/>
				<path class="st5" d="M321.4,255.7l-5.3-3c-0.4-0.2-0.4-0.7,0.1-1l5.2-3c0.5-0.3,1.2-0.3,1.6-0.1l5.3,3c0.4,0.2,0.4,0.7-0.1,1
					l-5.2,3C322.6,256,321.9,256,321.4,255.7z"/>
				<path class="st5" d="M329.6,260.4l-5.3-3c-0.4-0.2-0.4-0.7,0.1-1l5.2-3c0.5-0.3,1.2-0.3,1.6-0.1l5.3,3c0.4,0.2,0.4,0.7-0.1,1
					l-5.2,3C330.7,260.6,330,260.7,329.6,260.4z"/>
				<path class="st5" d="M337.7,265.1l-5.3-3c-0.4-0.2-0.4-0.7,0.1-1l5.2-3c0.5-0.3,1.2-0.3,1.6-0.1l5.3,3c0.4,0.2,0.4,0.7-0.1,1
					l-5.2,3C338.8,265.3,338.1,265.4,337.7,265.1z"/>
				<path class="st5" d="M345.8,269.8l-5.3-3c-0.4-0.2-0.4-0.7,0.1-1l5.2-3c0.5-0.3,1.2-0.3,1.6-0.1l5.3,3c0.4,0.2,0.4,0.7-0.1,1
					l-5.2,3C347,270,346.2,270,345.8,269.8z"/>
				<path class="st5" d="M353.9,274.5l-5.3-3c-0.4-0.2-0.4-0.7,0.1-1l5.2-3c0.5-0.3,1.2-0.3,1.6-0.1l5.3,3c0.4,0.2,0.4,0.7-0.1,1
					l-5.2,3C355.1,274.7,354.3,274.7,353.9,274.5z"/>
				<path class="st5" d="M362,279.2l-5.3-3c-0.4-0.2-0.4-0.7,0.1-1l5.2-3c0.5-0.3,1.2-0.3,1.6-0.1l5.3,3c0.4,0.2,0.4,0.7-0.1,1
					l-5.2,3C363.2,279.4,362.4,279.4,362,279.2z"/>
				<path class="st5" d="M250.7,242.3l-15.5-8.9c-0.4-0.2-0.4-0.7,0.1-1l5.2-3c0.5-0.3,1.2-0.3,1.6-0.1l15.5,8.9
					c0.4,0.2,0.4,0.7-0.1,1l-5.2,3C251.9,242.5,251.1,242.5,250.7,242.3z"/>
				<path class="st5" d="M350.4,299.8l-15.5-8.9c-0.4-0.2-0.4-0.7,0.1-1l5.2-3c0.5-0.3,1.2-0.3,1.6-0.1l15.5,8.9
					c0.4,0.2,0.4,0.7-0.1,1l-5.2,3C351.6,300,350.8,300.1,350.4,299.8z"/>
				<path class="st5" d="M317.9,291.4l-5.3-3c-0.4-0.2-0.4-0.7,0.1-1l6.2-3.6c0.5-0.3,1.2-0.3,1.6-0.1l5.3,3c0.4,0.2,0.4,0.7-0.1,1
					l-6.2,3.6C319.1,291.7,318.4,291.7,317.9,291.4z"/>
				<path class="st5" d="M259,257.4l-8.4-4.9c-0.4-0.2-0.4-0.7,0.1-1l6.2-3.6c0.5-0.3,1.2-0.3,1.6-0.1l8.4,4.9
					c0.4,0.2,0.4,0.7-0.1,1l-6.2,3.6C260.2,257.6,259.4,257.7,259,257.4z"/>
				<path class="st5" d="M310.1,286.9l-8.4-4.9c-0.4-0.2-0.4-0.7,0.1-1l6.2-3.6c0.5-0.3,1.2-0.3,1.6-0.1l8.4,4.9
					c0.4,0.2,0.4,0.7-0.1,1l-6.2,3.6C311.3,287.1,310.6,287.2,310.1,286.9z"/>
				<path class="st5" d="M270.7,264.2l-8.4-4.9c-0.4-0.2-0.4-0.7,0.1-1l6.2-3.6c0.5-0.3,1.2-0.3,1.6-0.1l8.4,4.9
					c0.4,0.2,0.4,0.7-0.1,1l-6.2,3.6C271.9,264.4,271.1,264.4,270.7,264.2z"/>
				<path class="st5" d="M270.3,254.8l36.5,21.1c0.5,0.3,0.5,0.7,0,0.9l-6.3,3.7c-0.5,0.3-1.2,0.3-1.6,0l-36.5-21.1L270.3,254.8z"/>
				<path class="st5" d="M340.6,299.9l5.9,3.4c0.3,0.2,0.3,0.5-0.1,0.8l-2.5,1.5c-0.4,0.2-1,0.3-1.3,0.1l-5.9-3.4
					c-0.3-0.2-0.3-0.5,0.1-0.8l2.5-1.5C339.7,299.8,340.3,299.7,340.6,299.9z"/>
				<path class="st5" d="M332.4,295.2l5.9,3.4c0.3,0.2,0.3,0.5-0.1,0.8l-2.5,1.5c-0.4,0.2-1,0.3-1.3,0.1l-5.9-3.4
					c-0.3-0.2-0.3-0.5,0.1-0.8l2.5-1.5C331.5,295,332.1,295,332.4,295.2z"/>
				<path class="st5" d="M324.3,290.5l5.9,3.4c0.3,0.2,0.3,0.5-0.1,0.8l-2.5,1.5c-0.4,0.2-1,0.3-1.3,0.1l-5.9-3.4
					c-0.3-0.2-0.3-0.5,0.1-0.8l2.5-1.5C323.4,290.4,324,290.3,324.3,290.5z"/>
				<path class="st5" d="M336.9,292.6l5.9,3.4c0.3,0.2,0.3,0.5-0.1,0.8l-2.5,1.5c-0.4,0.2-1,0.3-1.3,0.1l-5.9-3.4
					c-0.3-0.2-0.3-0.5,0.1-0.8l2.5-1.5C336,292.4,336.6,292.4,336.9,292.6z"/>
			</g>
		</g>
		<g>
			<g>
				<path class="st2" d="M326.2,149l-7.8-4.5c-0.7-0.4-1.1-1.4-0.9-2.3l0,0c0.2-0.9,0.9-1.2,1.7-0.8l7.8,4.5
					c0.7,0.4,1.1,1.4,0.9,2.3l0,0C327.6,149.1,326.9,149.4,326.2,149z"/>
				<path class="st2" d="M344.7,159.7l-11.5-6.6c-0.7-0.4-1.1-1.4-0.9-2.3l0,0c0.2-0.9,0.9-1.2,1.7-0.8l11.5,6.6
					c0.7,0.4,1.1,1.4,0.9,2.3l0,0C346.1,159.7,345.4,160.1,344.7,159.7z"/>
				<path class="st2" d="M312.6,185.3l-7.8-4.5c-0.7-0.4-1.1-1.4-0.9-2.3l0,0c0.2-0.9,0.9-1.2,1.7-0.8l7.8,4.5
					c0.7,0.4,1.1,1.4,0.9,2.3l0,0C314.1,185.3,313.4,185.7,312.6,185.3z"/>
				<path class="st2" d="M329.1,194.8l-11.5-6.6c-0.7-0.4-1.1-1.4-0.9-2.3l0,0c0.2-0.9,0.9-1.2,1.7-0.8l11.5,6.6
					c0.7,0.4,1.1,1.4,0.9,2.3l0,0C330.6,194.8,329.8,195.2,329.1,194.8z"/>
				<path class="st2" d="M303.3,143.1l-4.9-2.8c-0.7-0.4-1.1-1.4-0.9-2.3l0,0c0.2-0.9,0.9-1.2,1.7-0.8l4.9,2.8
					c0.7,0.4,1.1,1.4,0.9,2.3l0,0C304.7,143.2,304,143.5,303.3,143.1z"/>
				<path class="st2" d="M318.2,159.1l-14.8-8.6c-0.7-0.4-1.1-1.4-0.9-2.3l0,0c0.2-0.9,0.9-1.2,1.7-0.8l14.8,8.6
					c0.7,0.4,1.1,1.4,0.9,2.3l0,0C319.7,159.2,318.9,159.5,318.2,159.1z"/>
				<path class="st2" d="M305.3,166.3l-4.9-2.8c-0.7-0.4-1.1-1.4-0.9-2.3l0,0c0.2-0.9,0.9-1.2,1.7-0.8l4.9,2.8
					c0.7,0.4,1.1,1.4,0.9,2.3l0,0C306.7,166.4,306,166.7,305.3,166.3z"/>
				<path class="st2" d="M331.6,210.9l-13-7.5c-0.7-0.4-1.1-1.4-0.9-2.3l0,0c0.2-0.9,0.9-1.2,1.7-0.8l13,7.5
					c0.7,0.4,1.1,1.4,0.9,2.3l0,0C333.1,211,332.3,211.3,331.6,210.9z"/>
				<path class="st2" d="M300.5,178.3l-3.1-1.8c-0.7-0.4-1.1-1.4-0.9-2.3l0,0c0.2-0.9,0.9-1.2,1.7-0.8l3.1,1.8
					c0.7,0.4,1.1,1.4,0.9,2.3l0,0C302,178.3,301.2,178.7,300.5,178.3z"/>
				<path class="st2" d="M298.3,191.7l-3.9-2.2c-0.7-0.4-1.1-1.4-0.9-2.3l0,0c0.2-0.9,0.9-1.2,1.7-0.8l3.9,2.2
					c0.7,0.4,1.1,1.4,0.9,2.3l0,0C299.8,191.7,299,192.1,298.3,191.7z"/>
				<path class="st2" d="M313.3,200.3l-10.2-5.9c-0.7-0.4-1.1-1.4-0.9-2.3l0,0c0.2-0.9,0.9-1.2,1.7-0.8l10.2,5.9
					c0.7,0.4,1.1,1.4,0.9,2.3l0,0C314.8,200.4,314.1,200.8,313.3,200.3z"/>
				<path class="st2" d="M300.3,200.1l-7.3-4.2c-0.7-0.4-1.1-1.4-0.9-2.3l0,0c0.2-0.9,0.9-1.2,1.7-0.8l7.3,4.2
					c0.7,0.4,1.1,1.4,0.9,2.3l0,0C301.7,200.2,301,200.6,300.3,200.1z"/>
				<path class="st2" d="M342.7,217.4l-4.7-2.7c-0.7-0.4-1.1-1.4-0.9-2.3l0,0c0.2-0.9,0.9-1.2,1.7-0.8l4.7,2.7
					c0.7,0.4,1.1,1.4,0.9,2.3l0,0C344.2,217.4,343.5,217.8,342.7,217.4z"/>
				<path class="st2" d="M323.3,176.7l-13-7.5c-0.7-0.4-1.1-1.4-0.9-2.3l0,0c0.2-0.9,0.9-1.2,1.7-0.8l13,7.5
					c0.7,0.4,1.1,1.4,0.9,2.3l0,0C324.8,176.8,324,177.1,323.3,176.7z"/>
				<path class="st2" d="M324.5,170.1l-22.6-13c-0.7-0.4-1.1-1.4-0.9-2.3l0,0c0.2-0.9,0.9-1.2,1.7-0.8l22.6,13
					c0.7,0.4,1.1,1.4,0.9,2.3l0,0C325.9,170.1,325.2,170.5,324.5,170.1z"/>
				<path class="st2" d="M311.9,177.5l-13-7.5c-0.7-0.4-1.1-1.4-0.9-2.3l0,0c0.2-0.9,0.9-1.2,1.7-0.8l13,7.5
					c0.7,0.4,1.1,1.4,0.9,2.3l0,0C313.3,177.5,312.6,177.9,311.9,177.5z"/>
				<path class="st2" d="M333.1,182.4l-4.7-2.7c-0.7-0.4-1.1-1.4-0.9-2.3l0,0c0.2-0.9,0.9-1.2,1.7-0.8l4.7,2.7
					c0.7,0.4,1.1,1.4,0.9,2.3l0,0C334.6,182.5,333.8,182.8,333.1,182.4z"/>
				<path class="st2" d="M379.6,179.8l-27.9-16.1c-0.7-0.4-1.1-1.4-0.9-2.3l0,0c0.2-0.9,0.9-1.2,1.7-0.8l27.9,16.1
					c0.7,0.4,1.1,1.4,0.9,2.3l0,0C381.1,179.9,380.3,180.3,379.6,179.8z"/>
				<path class="st2" d="M311.5,191.9l-15.6-9c-0.7-0.4-1.1-1.4-0.9-2.3l0,0c0.2-0.9,0.9-1.2,1.7-0.8l15.6,9
					c0.7,0.4,1.1,1.4,0.9,2.3l0,0C313,192,312.2,192.4,311.5,191.9z"/>
				<path class="st2" d="M311.4,140.5l-11.5-6.6c-0.7-0.4-1.1-1.4-0.9-2.3l0,0c0.2-0.9,0.9-1.2,1.7-0.8l11.5,6.6
					c0.7,0.4,1.1,1.4,0.9,2.3l0,0C312.8,140.5,312.1,140.9,311.4,140.5z"/>
				<path class="st2" d="M298.2,206.3l-13.3-7.7c-0.7-0.4-1.1-1.4-0.9-2.3l0,0c0.2-0.9,0.9-1.2,1.7-0.8l13.3,7.7
					c0.7,0.4,1.1,1.4,0.9,2.3l0,0C299.7,206.4,298.9,206.7,298.2,206.3z"/>
			</g>
			<g>
				<path class="st2" d="M388,234.3l-7.8-4.5c-0.7-0.4-1.1-1.4-0.9-2.3v0c0.2-0.9,0.9-1.2,1.7-0.8l7.8,4.5c0.7,0.4,1.1,1.4,0.9,2.3
					l0,0C389.4,234.3,388.7,234.7,388,234.3z"/>
				<path class="st2" d="M393.5,208.1l-14.8-8.6c-0.7-0.4-1.1-1.4-0.9-2.3l0,0c0.2-0.9,0.9-1.2,1.7-0.8l14.8,8.6
					c0.7,0.4,1.1,1.4,0.9,2.3l0,0C395,208.2,394.3,208.5,393.5,208.1z"/>
				<path class="st2" d="M380.6,215.3l-4.9-2.8c-0.7-0.4-1.1-1.4-0.9-2.3l0,0c0.2-0.9,0.9-1.2,1.7-0.8l4.9,2.8
					c0.7,0.4,1.1,1.4,0.9,2.3l0,0C382,215.4,381.3,215.7,380.6,215.3z"/>
				<path class="st2" d="M375.9,227.3l-3.1-1.8c-0.7-0.4-1.1-1.4-0.9-2.3l0,0c0.2-0.9,0.9-1.2,1.7-0.8l3.1,1.8
					c0.7,0.4,1.1,1.4,0.9,2.3l0,0C377.3,227.3,376.6,227.7,375.9,227.3z"/>
				<path class="st2" d="M398.6,225.7l-13-7.5c-0.7-0.4-1.1-1.4-0.9-2.3l0,0c0.2-0.9,0.9-1.2,1.7-0.8l13,7.5
					c0.7,0.4,1.1,1.4,0.9,2.3l0,0C400.1,225.8,399.3,226.1,398.6,225.7z"/>
				<path class="st2" d="M399.8,219.1l-22.6-13c-0.7-0.4-1.1-1.4-0.9-2.3l0,0c0.2-0.9,0.9-1.2,1.7-0.8l22.6,13
					c0.7,0.4,1.1,1.4,0.9,2.3l0,0C401.3,219.1,400.5,219.5,399.8,219.1z"/>
				<path class="st2" d="M387.2,226.5l-13-7.5c-0.7-0.4-1.1-1.4-0.9-2.3l0,0c0.2-0.9,0.9-1.2,1.7-0.8l13,7.5
					c0.7,0.4,1.1,1.4,0.9,2.3l0,0C388.7,226.5,387.9,226.9,387.2,226.5z"/>
				<path class="st2" d="M386.8,240.9l-15.6-9c-0.7-0.4-1.1-1.4-0.9-2.3l0,0c0.2-0.9,0.9-1.2,1.7-0.8l15.6,9
					c0.7,0.4,1.1,1.4,0.9,2.3l0,0C388.3,241,387.5,241.4,386.8,240.9z"/>
			</g>
		</g>
	</g>
	<g>
		<g>
			<polygon class="st0" points="421.7,147.6 433.9,142.8 431.2,124.8 425.2,130 			"/>
			<path class="st0" d="M339.8,63.7l29.6-11.8c0,0-5.4,11.8-5.5,11.8c0,0-15.8,3.7-15.8,3.7L339.8,63.7z"/>
			<path class="st0" d="M432.5,112.7c-1.6-0.9-3.2-1.4-4.8-1.6c1.6-10.9-3.1-22.4-12.1-27.6c-2.7-1.6-5.7-2.5-8.5-2.7
				c3.5-13.2-1.9-28.2-13.1-34.6c-5.8-3.4-12.1-3.8-17.6-1.7l0,0l-0.3,0.1c-0.1,0.1-0.3,0.1-0.4,0.2l-9.3,3.6l3.7,3.2
				c-5,1.6-9.3,5.6-11.6,11.6c-4.2,11,0.1,24.5,9.7,30l56.8,47.9c7.2,4.1,11.5,2.4,14.7-5.9C442.9,126.9,439.7,116.8,432.5,112.7z"
				/>
			<path class="st0" d="M361.2,58.3L393,45.6c-5.5-2.8-11.4-3-16.6-1.1l0,0l-0.3,0.1c-0.1,0.1-0.3,0.1-0.4,0.2l-9.3,3.6l3.7,3.2
				C366.7,52.7,363.5,55,361.2,58.3z"/>
			<path class="st0" d="M405.5,106.1l21-8.4c-1.9-6-5.8-11.3-11.1-14.3c-0.7-0.4-1.4-0.8-2.1-1.1l-29,11.6L405.5,106.1z"/>
			<path class="st2" d="M373,49.7l9,5.2l15.7-6.2c-1.1-0.9-2.3-1.8-3.6-2.5c-2-1.2-4.1-2-6.1-2.4L373,49.7z"/>
			<path class="st2" d="M425.2,94.2l-15.1,6l4.5,6.3l13-5.2C427,98.9,426.2,96.5,425.2,94.2z"/>
			<path class="st2" d="M422.4,116.7c-1.6-0.9-3.2-1.4-4.8-1.6c1.6-10.9-3.2-22.4-12.2-27.7c-2.7-1.6-5.5-2.4-8.3-2.6
				c3.5-13.2-1.9-28.2-13.1-34.6c-12-6.9-26-1.3-31.2,12.5c-0.2,0.5-0.3,0.9-0.5,1.4C343.1,60,333,64.6,329.1,75
				c-4.2,11,0.1,24.5,9.7,30l72.2,41.7c7.2,4.1,15.6,0.8,18.7-7.5C432.8,130.9,429.5,120.8,422.4,116.7z"/>
			<g>
				<path class="st6" d="M423.9,115.8c-1.6-0.9-3.2-1.4-4.8-1.6c1.6-10.9-3.2-22.4-12.2-27.7c-2.7-1.6-5.5-2.4-8.3-2.6
					c3.5-13.2-1.9-28.2-13.1-34.6c-7.1-4.1-15-3.8-21.3,0.1c6-3.1,13.2-3.1,19.8,0.7c11.1,6.4,16.6,21.4,13.1,34.6
					c2.8,0.2,5.6,1,8.3,2.6c9,5.2,13.8,16.8,12.2,27.7c1.6,0.2,3.2,0.7,4.8,1.6c7.2,4.1,10.4,14.2,7.3,22.5
					c-1.2,3.2-3.2,5.7-5.6,7.2c3.1-1.5,5.7-4.2,7.1-8.1C434.3,130.1,431,120,423.9,115.8z"/>
				<path class="st6" d="M352.2,64.1c0.1-0.4,0.3-0.8,0.4-1.2c-4.9-1.8-10.1-1.2-14.3,1.5C342.6,62.2,347.5,62,352.2,64.1z"/>
			</g>
			<g>
				<path class="st1" d="M344.1,66.3c-1.3,0-2.6,0.3-3.8,0.8c-2.9,1.3-5.3,4.2-6.8,8c-3.7,9.7,0.3,22,8.7,26.8l72.2,41.7
					c2.3,1.3,4.6,1.6,6.4,0.9c1.8-0.7,3.4-2.7,4.4-5.3c2.7-7-0.2-15.9-6.2-19.4c-1.1-0.6-2.3-1-3.4-1.2l-2.9-0.4l0.4-2.5
					c1.5-10-3.1-20.6-11-25.2c-2.2-1.3-4.4-2-6.6-2.1l-3.6-0.2l0.8-3c3.2-12.1-2-26.1-11.9-31.8c-4.6-2.7-9.5-3.2-13.7-1.5
					c-4.2,1.7-7.7,5.6-9.7,10.9c-0.2,0.4-0.3,0.8-0.4,1.3l-1.9,6l-5.7-2.5C347.4,66.6,345.7,66.3,344.1,66.3z"/>
			</g>
		</g>
		<g>
			<polygon class="st0" points="379.5,112.7 381.9,111.7 380,110.2 			"/>
			<polygon class="st0" points="378.2,85.7 380.6,84.7 380.5,85.7 			"/>
			<polygon class="st0" points="387.3,106.4 389.8,105.3 386.1,101.6 			"/>
			<g>
				<path class="st0" d="M381.3,111.6l-9.6-5.6c-0.5-0.3-0.8-1-0.7-1.6l2.3-10.9l11.4,6.6l-2.3,10.9
					C382.3,111.6,381.8,111.9,381.3,111.6z"/>
				<path class="st0" d="M380.6,84.7l-13,6.6c-0.6,0.3-0.4,1.3,0.3,1.7l10.6,6.1l10.6,6.1c0.7,0.4,1.2-0.2,0.9-1l-7.7-18.5
					C382,84.9,381.2,84.5,380.6,84.7z"/>
			</g>
			<g>
				<path class="st2" d="M378.8,112.6l-9.6-5.6c-0.5-0.3-0.8-1-0.7-1.6l2.3-10.9l11.4,6.6l-2.3,10.9
					C379.7,112.6,379.3,112.9,378.8,112.6z"/>
				<path class="st2" d="M378.1,85.8l-13,6.6c-0.6,0.3-0.4,1.3,0.3,1.7l10.6,6.1l10.6,6.1c0.7,0.4,1.2-0.2,0.9-1l-7.7-18.5
					C379.4,85.9,378.6,85.5,378.1,85.8z"/>
			</g>
		</g>
	</g>
	<g>
		<path class="st3" d="M134.4,330.5l38.5-22.1c3-1.7,8.3-1.5,11.8,0.5l79,45.8c3.5,2,3.9,5.1,0.8,6.8l-38.5,22.1
			c-3,1.7-8.3,1.5-11.8-0.5l-79-45.8C131.8,335.3,131.4,332.3,134.4,330.5z"/>
		<path class="st1" d="M227.6,376.4l39.4-22.7c1.7-1,2.6-2.3,2.6-3.7l0,0l0-6.8l-1.3,2.2c-0.6-0.7-1.4-1.4-2.5-2l-79.4-46.1
			c-4.5-2.6-11.3-2.9-15.2-0.7l-39.4,22.7c-0.4,0.2-0.8,0.5-1.1,0.8l-1.5-1.9l0,6.4l0,0c-0.1,1.8,1.2,3.6,3.7,5.1l79.4,46.1
			C216.9,378.3,223.7,378.6,227.6,376.4z"/>
		<path class="st2" d="M131.9,314.3l39.4-22.7c3.9-2.2,10.7-1.9,15.2,0.7l79.4,46.1c4.5,2.6,5,6.5,1.1,8.8l-39.4,22.7
			c-3.9,2.2-10.7,1.9-15.2-0.7L133,323.1C128.5,320.5,128,316.6,131.9,314.3z"/>
		<path class="st6" d="M267.1,347.2l-39.4,22.7c-3.9,2.2-10.7,1.9-15.2-0.7L133,323.1c-2.2-1.3-3.4-2.8-3.7-4.4
			c-0.3,1.9,0.9,4,3.7,5.5l79.4,46.1c4.5,2.6,11.3,2.9,15.2,0.7l39.4-22.7c2-1.2,2.9-2.8,2.6-4.4
			C269.5,345.2,268.6,346.3,267.1,347.2z"/>
		<path class="st6" d="M134.4,315.2l38.5-22.1c3-1.7,8.3-1.5,11.8,0.5l79,45.8c3.5,2,3.9,5.1,0.8,6.8l-38.5,22.1
			c-3,1.7-8.3,1.5-11.8-0.5l-79-45.8C131.8,320,131.4,317,134.4,315.2z"/>
	</g>
	<g>
		<path class="st3" d="M196.5,323.3l-14.3-8.2c-0.5-0.3-0.5-0.8,0.1-1.2l0,0c0.6-0.4,1.5-0.4,2.1-0.1l14.3,8.2
			c0.5,0.3,0.5,0.8-0.1,1.2l0,0C197.9,323.5,197,323.6,196.5,323.3z"/>
		<path class="st3" d="M183,320.5l-5.1-2.9c-0.5-0.3-0.5-0.8,0.1-1.2l0,0c0.6-0.4,1.5-0.4,2.1-0.1l5.1,2.9c0.5,0.3,0.5,0.8-0.1,1.2
			l0,0C184.4,320.8,183.5,320.8,183,320.5z"/>
		<path class="st1" d="M191.5,325.4l-5.1-2.9c-0.5-0.3-0.5-0.8,0.1-1.2l0,0c0.6-0.4,1.5-0.4,2.1-0.1l5.1,2.9
			c0.5,0.3,0.5,0.8-0.1,1.2l0,0C192.9,325.7,192,325.7,191.5,325.4z"/>
		<path class="st3" d="M208.7,335.4l-13.8-8c-0.5-0.3-0.5-0.8,0.1-1.2l0,0c0.6-0.4,1.5-0.4,2.1-0.1l13.8,8c0.5,0.3,0.5,0.8-0.1,1.2
			l0,0C210.2,335.6,209.3,335.7,208.7,335.4z"/>
		<path class="st3" d="M191.3,330.3l-17.8-10.3c-0.5-0.3-0.5-0.8,0.1-1.2l0,0c0.6-0.4,1.5-0.4,2.1-0.1l17.8,10.3
			c0.5,0.3,0.5,0.8-0.1,1.2l0,0C192.8,330.6,191.9,330.6,191.3,330.3z"/>
		<path class="st1" d="M212.8,347.7l-43.6-25.2c-0.5-0.3-0.5-0.8,0.1-1.2l0,0c0.6-0.4,1.5-0.4,2.1-0.1l43.6,25.2
			c0.5,0.3,0.5,0.8-0.1,1.2l0,0C214.2,348,213.3,348,212.8,347.7z"/>
		<path class="st3" d="M225.5,340l-25.1-14.5c-0.5-0.3-0.5-0.8,0.1-1.2l0,0c0.6-0.4,1.5-0.4,2.1-0.1l25.1,14.5
			c0.5,0.3,0.5,0.8-0.1,1.2l0,0C226.9,340.3,226,340.3,225.5,340z"/>
	</g>
	<path class="st2" d="M194.8,363.7l-3.7-2.1c-0.4-0.2-0.7-0.8-0.7-1.3l0,0c0-0.5,0.3-0.7,0.7-0.5l3.7,2.1c0.4,0.2,0.7,0.8,0.7,1.3
		l0,0C195.4,363.6,195.1,363.9,194.8,363.7z"/>
	<path class="st2" d="M200.5,367l-3.7-2.1c-0.4-0.2-0.7-0.8-0.7-1.3l0,0c0-0.5,0.3-0.7,0.7-0.5l3.7,2.1c0.4,0.2,0.7,0.8,0.7,1.3l0,0
		C201.2,367,200.9,367.2,200.5,367z"/>
</g>
</svg>
